ISO-10303-21;
HEADER;
FILE_DESCRIPTION (( 'STEP AP214' ),
    '1' );
FILE_NAME ('PS140M-D32_R1_00301.STEP',
    '2025-03-08T19:58:06',
    ( '' ),
    ( '' ),
    'SwSTEP 2.0',
    'SolidWorks 2023',
    '' );
FILE_SCHEMA (( 'AUTOMOTIVE_DESIGN' ));
ENDSEC;

DATA;
#1 = CARTESIAN_POINT ( 'NONE',  ( 0.1700000000000000400, 0.1400000000000000133, 0.2500000000000000000 ) ) ;
#2 = EDGE_CURVE ( 'NONE', #205, #1048, #538, .T. ) ;
#3 = ORIENTED_EDGE ( 'NONE', *, *, #366, .T. ) ;
#4 = DIRECTION ( 'NONE',  ( -0.000000000000000000, -0.000000000000000000, -1.000000000000000000 ) ) ;
#5 = CARTESIAN_POINT ( 'NONE',  ( -0.1499999999999999112, -0.1200000000000000233, 0.2500000000000000000 ) ) ;
#6 = FILL_AREA_STYLE_COLOUR ( '', #23 ) ;
#7 = UNCERTAINTY_MEASURE_WITH_UNIT (LENGTH_MEASURE( 1.000000000000000082E-05 ), #528, 'distance_accuracy_value', 'NONE');
#8 = CARTESIAN_POINT ( 'NONE',  ( -0.3099999999999999423, -0.1400000000000000688, 0.2500000000000000000 ) ) ;
#9 = ORIENTED_EDGE ( 'NONE', *, *, #844, .T. ) ;
#10 = CYLINDRICAL_SURFACE ( 'NONE', #849, 0.02000000000000005246 ) ;
#11 =( GEOMETRIC_REPRESENTATION_CONTEXT ( 3 ) GLOBAL_UNCERTAINTY_ASSIGNED_CONTEXT ( ( #7 ) ) GLOBAL_UNIT_ASSIGNED_CONTEXT ( ( #528, #856, #683 ) ) REPRESENTATION_CONTEXT ( 'NONE', 'WORKASPACE' ) );
#12 = PRESENTATION_STYLE_ASSIGNMENT (( #947 ) ) ;
#13 = STYLED_ITEM ( 'NONE', ( #466 ), #372 ) ;
#14 = DIRECTION ( 'NONE',  ( -1.000000000000000000, 0.000000000000000000, 0.000000000000000000 ) ) ;
#15 = CARTESIAN_POINT ( 'NONE',  ( 0.000000000000000000, 0.000000000000000000, 0.2500000000000000000 ) ) ;
#16 = ORIENTED_EDGE ( 'NONE', *, *, #558, .F. ) ;
#17 =( NAMED_UNIT ( * ) PLANE_ANGLE_UNIT ( ) SI_UNIT ( $, .RADIAN. ) );
#18 = VERTEX_POINT ( 'NONE', #1079 ) ;
#19 = AXIS2_PLACEMENT_3D ( 'NONE', #800, #546, #694 ) ;
#20 = EDGE_CURVE ( 'NONE', #190, #96, #1062, .T. ) ;
#21 =( GEOMETRIC_REPRESENTATION_CONTEXT ( 3 ) GLOBAL_UNCERTAINTY_ASSIGNED_CONTEXT ( ( #784 ) ) GLOBAL_UNIT_ASSIGNED_CONTEXT ( ( #315, #1068, #1096 ) ) REPRESENTATION_CONTEXT ( 'NONE', 'WORKASPACE' ) );
#22 = UNCERTAINTY_MEASURE_WITH_UNIT (LENGTH_MEASURE( 1.000000000000000082E-05 ), #847, 'distance_accuracy_value', 'NONE');
#23 = COLOUR_RGB ( '',0.2980392156862745057, 0.2980392156862745057, 0.2980392156862745057 ) ;
#24 = CARTESIAN_POINT ( 'NONE',  ( 0.1700000000000001232, -0.1400000000000000411, 0.2700000000000000178 ) ) ;
#25 = ORIENTED_EDGE ( 'NONE', *, *, #723, .F. ) ;
#26 = CARTESIAN_POINT ( 'NONE',  ( 0.3349999999999999645, 0.1849999999999999978, 0.2500000000000000000 ) ) ;
#27 =( LENGTH_UNIT ( ) NAMED_UNIT ( * ) SI_UNIT ( .MILLI., .METRE. ) );
#28 = FILL_AREA_STYLE ('',( #1015 ) ) ;
#29 = EDGE_LOOP ( 'NONE', ( #44, #712, #1104, #608 ) ) ;
#30 = EDGE_CURVE ( 'NONE', #993, #787, #929, .T. ) ;
#31 = CARTESIAN_POINT ( 'NONE',  ( -0.3100000000000000533, 0.1199999999999999956, 0.2700000000000000178 ) ) ;
#32 = LINE ( 'NONE', #899, #1001 ) ;
#33 = COLOUR_RGB ( '',0.6470588235294117974, 0.6196078431372549211, 0.5882352941176470784 ) ;
#34 = FACE_OUTER_BOUND ( 'NONE', #185, .T. ) ;
#35 = VECTOR ( 'NONE', #690, 1000.000000000000000 ) ;
#36 = ORIENTED_EDGE ( 'NONE', *, *, #516, .F. ) ;
#37 = AXIS2_PLACEMENT_3D ( 'NONE', #987, #222, #471 ) ;
#38 = ORIENTED_EDGE ( 'NONE', *, *, #1091, .T. ) ;
#39 = FILL_AREA_STYLE ('',( #629 ) ) ;
#40 = DIRECTION ( 'NONE',  ( -1.000000000000000000, -0.000000000000000000, -0.000000000000000000 ) ) ;
#41 = COLOUR_RGB ( '',0.6470588235294117974, 0.6196078431372549211, 0.5882352941176470784 ) ;
#42 = FACE_OUTER_BOUND ( 'NONE', #452, .T. ) ;
#43 = ORIENTED_EDGE ( 'NONE', *, *, #480, .T. ) ;
#44 = ORIENTED_EDGE ( 'NONE', *, *, #300, .T. ) ;
#45 = SURFACE_STYLE_FILL_AREA ( #544 ) ;
#46 = EDGE_CURVE ( 'NONE', #96, #503, #145, .T. ) ;
#47 = FILL_AREA_STYLE_COLOUR ( '', #401 ) ;
#48 = DIRECTION ( 'NONE',  ( 1.000000000000000000, 0.000000000000000000, 0.000000000000000000 ) ) ;
#49 = DIRECTION ( 'NONE',  ( -1.000000000000000000, 1.936075308009829910E-16, -0.000000000000000000 ) ) ;
#50 = CARTESIAN_POINT ( 'NONE',  ( 0.3300000000000000155, 0.1199999999999999956, 0.2700000000000000178 ) ) ;
#51 = PRESENTATION_LAYER_ASSIGNMENT (  '', '', ( #490 ) ) ;
#52 = CARTESIAN_POINT ( 'NONE',  ( -0.3350000000000000200, -0.1849999999999999978, 0.2500000000000000000 ) ) ;
#53 = CARTESIAN_POINT ( 'NONE',  ( 0.3349999999999999645, 0.1849999999999999978, 0.000000000000000000 ) ) ;
#54 = STYLED_ITEM ( 'NONE', ( #403 ), #663 ) ;
#55 = LINE ( 'NONE', #984, #212 ) ;
#56 = EDGE_CURVE ( 'NONE', #337, #190, #556, .T. ) ;
#57 = DIRECTION ( 'NONE',  ( -0.000000000000000000, -0.000000000000000000, -1.000000000000000000 ) ) ;
#58 = SURFACE_STYLE_USAGE ( .BOTH. , #320 ) ;
#59 = CARTESIAN_POINT ( 'NONE',  ( 0.3100000000000000533, -0.1200000000000000649, 0.2700000000000000178 ) ) ;
#60 = AXIS2_PLACEMENT_3D ( 'NONE', #464, #394, #406 ) ;
#61 = DIRECTION ( 'NONE',  ( -0.000000000000000000, -0.000000000000000000, -1.000000000000000000 ) ) ;
#62 = ORIENTED_EDGE ( 'NONE', *, *, #1103, .F. ) ;
#63 = LINE ( 'NONE', #997, #642 ) ;
#64 = ORIENTED_EDGE ( 'NONE', *, *, #659, .F. ) ;
#65 = DIRECTION ( 'NONE',  ( 4.517509052022934484E-16, -1.000000000000000000, 0.000000000000000000 ) ) ;
#66 = FACE_OUTER_BOUND ( 'NONE', #93, .T. ) ;
#67 = DIRECTION ( 'NONE',  ( 0.000000000000000000, -0.000000000000000000, 1.000000000000000000 ) ) ;
#68 = AXIS2_PLACEMENT_3D ( 'NONE', #15, #433, #695 ) ;
#69 =( NAMED_UNIT ( * ) PLANE_ANGLE_UNIT ( ) SI_UNIT ( $, .RADIAN. ) );
#70 = EDGE_CURVE ( 'NONE', #758, #74, #201, .T. ) ;
#71 = FILL_AREA_STYLE ('',( #1013 ) ) ;
#72 = CARTESIAN_POINT ( 'NONE',  ( -0.3350000000000000200, -0.1849999999999999978, 0.000000000000000000 ) ) ;
#73 = FILL_AREA_STYLE_COLOUR ( '', #869 ) ;
#74 = VERTEX_POINT ( 'NONE', #308 ) ;
#75 = FACE_OUTER_BOUND ( 'NONE', #404, .T. ) ;
#76 = EDGE_CURVE ( 'NONE', #883, #988, #577, .T. ) ;
#77 = UNCERTAINTY_MEASURE_WITH_UNIT (LENGTH_MEASURE( 1.000000000000000082E-05 ), #693, 'distance_accuracy_value', 'NONE');
#78 = FILL_AREA_STYLE_COLOUR ( '', #716 ) ;
#79 = FILL_AREA_STYLE_COLOUR ( '', #1057 ) ;
#80 = EDGE_CURVE ( 'NONE', #1048, #421, #561, .T. ) ;
#81 = SURFACE_STYLE_USAGE ( .BOTH. , #850 ) ;
#82 = VERTEX_POINT ( 'NONE', #573 ) ;
#83 = AXIS2_PLACEMENT_3D ( 'NONE', #509, #579, #921 ) ;
#84 = LINE ( 'NONE', #936, #939 ) ;
#85 = VECTOR ( 'NONE', #759, 1000.000000000000000 ) ;
#86 = LINE ( 'NONE', #760, #1094 ) ;
#87 = EDGE_CURVE ( 'NONE', #684, #337, #896, .T. ) ;
#88 = CARTESIAN_POINT ( 'NONE',  ( -0.1500000000000000222, 0.1199999999999999956, 0.2700000000000000178 ) ) ;
#89 =( LENGTH_UNIT ( ) NAMED_UNIT ( * ) SI_UNIT ( .MILLI., .METRE. ) );
#90 = VERTEX_POINT ( 'NONE', #724 ) ;
#91 =( LENGTH_UNIT ( ) NAMED_UNIT ( * ) SI_UNIT ( .MILLI., .METRE. ) );
#92 = DIRECTION ( 'NONE',  ( 1.000000000000000000, 0.000000000000000000, 0.000000000000000000 ) ) ;
#93 = EDGE_LOOP ( 'NONE', ( #1027, #768, #469, #1063 ) ) ;
#94 = PRESENTATION_STYLE_ASSIGNMENT (( #182 ) ) ;
#95 = UNCERTAINTY_MEASURE_WITH_UNIT (LENGTH_MEASURE( 1.000000000000000082E-05 ), #89, 'distance_accuracy_value', 'NONE');
#96 = VERTEX_POINT ( 'NONE', #296 ) ;
#97 =( NAMED_UNIT ( * ) SI_UNIT ( $, .STERADIAN. ) SOLID_ANGLE_UNIT ( ) );
#98 = MECHANICAL_DESIGN_GEOMETRIC_PRESENTATION_REPRESENTATION (  '', ( #570 ), #746 ) ;
#99 = SURFACE_STYLE_USAGE ( .BOTH. , #110 ) ;
#100 = DIRECTION ( 'NONE',  ( -1.000000000000000000, -4.517509052022935470E-16, 0.000000000000000000 ) ) ;
#101 = MECHANICAL_DESIGN_GEOMETRIC_PRESENTATION_REPRESENTATION (  '', ( #691 ), #1043 ) ;
#102 = ORIENTED_EDGE ( 'NONE', *, *, #934, .T. ) ;
#103 = PRESENTATION_LAYER_ASSIGNMENT (  '', '', ( #971 ) ) ;
#104 =( NAMED_UNIT ( * ) SI_UNIT ( $, .STERADIAN. ) SOLID_ANGLE_UNIT ( ) );
#105 = CARTESIAN_POINT ( 'NONE',  ( 0.1700000000000000400, 0.1400000000000000133, 0.2700000000000000178 ) ) ;
#106 = SURFACE_STYLE_USAGE ( .BOTH. , #962 ) ;
#107 = ORIENTED_EDGE ( 'NONE', *, *, #56, .T. ) ;
#108 = PLANE ( 'NONE',  #121 ) ;
#109 =( NAMED_UNIT ( * ) SI_UNIT ( $, .STERADIAN. ) SOLID_ANGLE_UNIT ( ) );
#110 = SURFACE_SIDE_STYLE ('',( #791 ) ) ;
#111 = PRESENTATION_STYLE_ASSIGNMENT (( #1041 ) ) ;
#112 = ORIENTED_EDGE ( 'NONE', *, *, #801, .T. ) ;
#113 = CARTESIAN_POINT ( 'NONE',  ( -0.3300000000000000155, -0.1200000000000000511, 0.2700000000000000178 ) ) ;
#114 = CARTESIAN_POINT ( 'NONE',  ( -0.1500000000000000222, 0.1199999999999999956, 0.2700000000000000178 ) ) ;
#115 = STYLED_ITEM ( 'NONE', ( #564 ), #405 ) ;
#116 = FACE_OUTER_BOUND ( 'NONE', #737, .T. ) ;
#117 = LINE ( 'NONE', #364, #838 ) ;
#118 = COLOUR_RGB ( '',0.6470588235294117974, 0.6196078431372549211, 0.5882352941176470784 ) ;
#119 = MECHANICAL_DESIGN_GEOMETRIC_PRESENTATION_REPRESENTATION (  '', ( #942 ), #531 ) ;
#120 = ORIENTED_EDGE ( 'NONE', *, *, #1009, .T. ) ;
#121 = AXIS2_PLACEMENT_3D ( 'NONE', #140, #584, #158 ) ;
#122 = CARTESIAN_POINT ( 'NONE',  ( -0.3100000000000000533, 0.1399999999999999856, 0.2500000000000000000 ) ) ;
#123 = EDGE_CURVE ( 'NONE', #90, #707, #1074, .T. ) ;
#124 = DIRECTION ( 'NONE',  ( -0.000000000000000000, 0.000000000000000000, -1.000000000000000000 ) ) ;
#125 = DIRECTION ( 'NONE',  ( 1.000000000000000000, 0.000000000000000000, 0.000000000000000000 ) ) ;
#126 = AXIS2_PLACEMENT_3D ( 'NONE', #329, #1102, #1010 ) ;
#127 = DIRECTION ( 'NONE',  ( 0.000000000000000000, 0.000000000000000000, 1.000000000000000000 ) ) ;
#128 = CARTESIAN_POINT ( 'NONE',  ( -0.3350000000000000755, 0.1849999999999999978, 0.2500000000000000000 ) ) ;
#129 = ORIENTED_EDGE ( 'NONE', *, *, #244, .T. ) ;
#130 = ADVANCED_FACE ( 'NONE', ( #138 ), #909, .F. ) ;
#131 = LINE ( 'NONE', #390, #334 ) ;
#132 = CARTESIAN_POINT ( 'NONE',  ( 0.3099999999999999978, 0.1199999999999999956, 0.2700000000000000178 ) ) ;
#133 = LINE ( 'NONE', #395, #891 ) ;
#134 = EDGE_CURVE ( 'NONE', #750, #82, #246, .T. ) ;
#135 = FILL_AREA_STYLE ('',( #218 ) ) ;
#136 = ADVANCED_FACE ( 'NONE', ( #1026 ), #661, .T. ) ;
#137 = COLOUR_RGB ( '',0.6470588235294117974, 0.6196078431372549211, 0.5882352941176470784 ) ;
#138 = FACE_OUTER_BOUND ( 'NONE', #29, .T. ) ;
#139 = MECHANICAL_DESIGN_GEOMETRIC_PRESENTATION_REPRESENTATION (  '', ( #729 ), #1038 ) ;
#140 = CARTESIAN_POINT ( 'NONE',  ( -0.3350000000000000755, 0.1849999999999999978, 0.2500000000000000000 ) ) ;
#141 = SURFACE_SIDE_STYLE ('',( #582 ) ) ;
#142 = CARTESIAN_POINT ( 'NONE',  ( 0.000000000000000000, 0.000000000000000000, 0.000000000000000000 ) ) ;
#143 = EDGE_CURVE ( 'NONE', #1070, #373, #606, .T. ) ;
#144 = VECTOR ( 'NONE', #590, 1000.000000000000000 ) ;
#145 = LINE ( 'NONE', #214, #824 ) ;
#146 =( GEOMETRIC_REPRESENTATION_CONTEXT ( 3 ) GLOBAL_UNCERTAINTY_ASSIGNED_CONTEXT ( ( #356 ) ) GLOBAL_UNIT_ASSIGNED_CONTEXT ( ( #241, #593, #588 ) ) REPRESENTATION_CONTEXT ( 'NONE', 'WORKASPACE' ) );
#147 = STYLED_ITEM ( 'NONE', ( #94 ), #1021 ) ;
#148 = FACE_OUTER_BOUND ( 'NONE', #662, .T. ) ;
#149 = FILL_AREA_STYLE ('',( #79 ) ) ;
#150 = SURFACE_STYLE_USAGE ( .BOTH. , #252 ) ;
#151 = LINE ( 'NONE', #88, #841 ) ;
#152 =( NAMED_UNIT ( * ) PLANE_ANGLE_UNIT ( ) SI_UNIT ( $, .RADIAN. ) );
#153 = SURFACE_STYLE_USAGE ( .BOTH. , #665 ) ;
#154 = EDGE_LOOP ( 'NONE', ( #367, #317, #581, #1082 ) ) ;
#155 = DIRECTION ( 'NONE',  ( -0.000000000000000000, -0.000000000000000000, -1.000000000000000000 ) ) ;
#156 = ADVANCED_FACE ( 'NONE', ( #411 ), #1093, .F. ) ;
#157 = DIRECTION ( 'NONE',  ( 0.000000000000000000, 0.000000000000000000, 1.000000000000000000 ) ) ;
#158 = DIRECTION ( 'NONE',  ( 0.000000000000000000, -0.000000000000000000, -1.000000000000000000 ) ) ;
#159 = EDGE_LOOP ( 'NONE', ( #774, #950, #763, #594 ) ) ;
#160 = PRESENTATION_LAYER_ASSIGNMENT (  '', '', ( #729 ) ) ;
#161 = VECTOR ( 'NONE', #495, 1000.000000000000000 ) ;
#162 = ADVANCED_FACE ( 'NONE', ( #493 ), #834, .F. ) ;
#163 = MECHANICAL_DESIGN_GEOMETRIC_PRESENTATION_REPRESENTATION (  '', ( #555 ), #425 ) ;
#164 =( NAMED_UNIT ( * ) SI_UNIT ( $, .STERADIAN. ) SOLID_ANGLE_UNIT ( ) );
#165 = DIRECTION ( 'NONE',  ( 1.465138070926357470E-16, -1.000000000000000000, 0.000000000000000000 ) ) ;
#166 = VECTOR ( 'NONE', #938, 1000.000000000000000 ) ;
#167 = ORIENTED_EDGE ( 'NONE', *, *, #450, .F. ) ;
#168 = AXIS2_PLACEMENT_3D ( 'NONE', #132, #646, #566 ) ;
#169 = COLOUR_RGB ( '',0.6470588235294117974, 0.6196078431372549211, 0.5882352941176470784 ) ;
#170 = ADVANCED_FACE ( 'NONE', ( #1033, #601, #533 ), #277, .T. ) ;
#171 = LINE ( 'NONE', #260, #607 ) ;
#172 =( NAMED_UNIT ( * ) PLANE_ANGLE_UNIT ( ) SI_UNIT ( $, .RADIAN. ) );
#173 = SURFACE_STYLE_FILL_AREA ( #845 ) ;
#174 = ORIENTED_EDGE ( 'NONE', *, *, #30, .F. ) ;
#175 = CARTESIAN_POINT ( 'NONE',  ( 0.3300000000000000711, -0.1200000000000000649, 0.2700000000000000178 ) ) ;
#176 = EDGE_CURVE ( 'NONE', #198, #883, #943, .T. ) ;
#177 =( NAMED_UNIT ( * ) SI_UNIT ( $, .STERADIAN. ) SOLID_ANGLE_UNIT ( ) );
#178 = CARTESIAN_POINT ( 'NONE',  ( -0.3099999999999999423, -0.1400000000000000411, 0.2700000000000000178 ) ) ;
#179 = EDGE_LOOP ( 'NONE', ( #489, #901, #649, #167 ) ) ;
#180 = MECHANICAL_DESIGN_GEOMETRIC_PRESENTATION_REPRESENTATION (  '', ( #651 ), #211 ) ;
#181 = DIRECTION ( 'NONE',  ( 0.000000000000000000, 0.000000000000000000, 1.000000000000000000 ) ) ;
#182 = SURFACE_STYLE_USAGE ( .BOTH. , #196 ) ;
#183 = SURFACE_STYLE_FILL_AREA ( #915 ) ;
#184 = CARTESIAN_POINT ( 'NONE',  ( 0.1500000000000000222, 0.1199999999999999956, 0.2700000000000000178 ) ) ;
#185 = EDGE_LOOP ( 'NONE', ( #1000, #780, #952, #278, #360, #688, #1042, #818 ) ) ;
#186 = CARTESIAN_POINT ( 'NONE',  ( -0.3300000000000001266, 0.1199999999999999956, 0.2700000000000000178 ) ) ;
#187 =( NAMED_UNIT ( * ) PLANE_ANGLE_UNIT ( ) SI_UNIT ( $, .RADIAN. ) );
#188 = ORIENTED_EDGE ( 'NONE', *, *, #341, .F. ) ;
#189 = PRODUCT_DEFINITION ( 'UNKNOWN', '', #310, #599 ) ;
#190 = VERTEX_POINT ( 'NONE', #949 ) ;
#191 = CARTESIAN_POINT ( 'NONE',  ( 0.3099999999999999978, 0.1199999999999999956, 0.2700000000000000178 ) ) ;
#192 = UNCERTAINTY_MEASURE_WITH_UNIT (LENGTH_MEASURE( 1.000000000000000082E-05 ), #1011, 'distance_accuracy_value', 'NONE');
#193 = CARTESIAN_POINT ( 'NONE',  ( 0.1700000000000001232, -0.1400000000000000133, 0.2700000000000000178 ) ) ;
#194 = FACE_OUTER_BOUND ( 'NONE', #797, .T. ) ;
#195 = ORIENTED_EDGE ( 'NONE', *, *, #554, .F. ) ;
#196 = SURFACE_SIDE_STYLE ('',( #796 ) ) ;
#197 = CARTESIAN_POINT ( 'NONE',  ( -0.1500000000000000222, 0.1199999999999999956, 0.2700000000000000178 ) ) ;
#198 = VERTEX_POINT ( 'NONE', #24 ) ;
#199 = ORIENTED_EDGE ( 'NONE', *, *, #619, .T. ) ;
#200 = FILL_AREA_STYLE ('',( #851 ) ) ;
#201 = CIRCLE ( 'NONE', #168, 0.01999999999999999695 ) ;
#202 = SURFACE_STYLE_FILL_AREA ( #710 ) ;
#203 = UNCERTAINTY_MEASURE_WITH_UNIT (LENGTH_MEASURE( 1.000000000000000082E-05 ), #638, 'distance_accuracy_value', 'NONE');
#204 = FILL_AREA_STYLE ('',( #612 ) ) ;
#205 = VERTEX_POINT ( 'NONE', #1 ) ;
#206 = SURFACE_SIDE_STYLE ('',( #628 ) ) ;
#207 = CYLINDRICAL_SURFACE ( 'NONE', #786, 0.01999999999999999695 ) ;
#208 = CARTESIAN_POINT ( 'NONE',  ( -0.3350000000000000755, 0.1849999999999999978, 0.000000000000000000 ) ) ;
#209 = CARTESIAN_POINT ( 'NONE',  ( 0.1500000000000000222, 0.1199999999999999956, 0.2700000000000000178 ) ) ;
#210 = SURFACE_STYLE_FILL_AREA ( #39 ) ;
#211 =( GEOMETRIC_REPRESENTATION_CONTEXT ( 3 ) GLOBAL_UNCERTAINTY_ASSIGNED_CONTEXT ( ( #370 ) ) GLOBAL_UNIT_ASSIGNED_CONTEXT ( ( #27, #430, #697 ) ) REPRESENTATION_CONTEXT ( 'NONE', 'WORKASPACE' ) );
#212 = VECTOR ( 'NONE', #1076, 1000.000000000000000 ) ;
#213 = CARTESIAN_POINT ( 'NONE',  ( 0.3100000000000000533, -0.1400000000000000411, 0.2500000000000000000 ) ) ;
#214 = CARTESIAN_POINT ( 'NONE',  ( -0.3099999999999999423, -0.1400000000000000411, 0.2700000000000000178 ) ) ;
#215 = PRESENTATION_LAYER_ASSIGNMENT (  '', '', ( #691 ) ) ;
#216 = DIRECTION ( 'NONE',  ( -2.930276141852714940E-16, 1.000000000000000000, -0.000000000000000000 ) ) ;
#217 = LINE ( 'NONE', #309, #905 ) ;
#218 = FILL_AREA_STYLE_COLOUR ( '', #822 ) ;
#219 = CIRCLE ( 'NONE', #713, 0.01999999999999997266 ) ;
#220 = PRODUCT ( 'PS140M-D32_R1_00301', 'PS140M-D32_R1_00301', '', ( #235 ) ) ;
#221 = SURFACE_STYLE_FILL_AREA ( #986 ) ;
#222 = DIRECTION ( 'NONE',  ( 0.000000000000000000, 0.000000000000000000, 1.000000000000000000 ) ) ;
#223 = ORIENTED_EDGE ( 'NONE', *, *, #820, .F. ) ;
#224 = CARTESIAN_POINT ( 'NONE',  ( 0.1700000000000000400, 0.1400000000000000133, 0.2700000000000000178 ) ) ;
#225 = CARTESIAN_POINT ( 'NONE',  ( -0.1699999999999999845, -0.1200000000000000233, 0.2700000000000000178 ) ) ;
#226 = CARTESIAN_POINT ( 'NONE',  ( -0.1699999999999999845, -0.1200000000000000233, 0.2500000000000000000 ) ) ;
#227 = DIRECTION ( 'NONE',  ( 1.000000000000000000, 0.000000000000000000, 0.000000000000000000 ) ) ;
#228 = SURFACE_STYLE_USAGE ( .BOTH. , #647 ) ;
#229 = DIRECTION ( 'NONE',  ( -1.000000000000000000, -4.517509052022935470E-16, 0.000000000000000000 ) ) ;
#230 = AXIS2_PLACEMENT_3D ( 'NONE', #197, #100, #882 ) ;
#231 = CARTESIAN_POINT ( 'NONE',  ( 0.1500000000000000222, 0.1199999999999999956, 0.2500000000000000000 ) ) ;
#232 = VECTOR ( 'NONE', #388, 1000.000000000000000 ) ;
#233 = CYLINDRICAL_SURFACE ( 'NONE', #639, 0.02000000000000005246 ) ;
#234 = SURFACE_STYLE_USAGE ( .BOTH. , #245 ) ;
#235 = PRODUCT_CONTEXT ( 'NONE', #257, 'mechanical' ) ;
#236 =( LENGTH_UNIT ( ) NAMED_UNIT ( * ) SI_UNIT ( .MILLI., .METRE. ) );
#237 =( GEOMETRIC_REPRESENTATION_CONTEXT ( 3 ) GLOBAL_UNCERTAINTY_ASSIGNED_CONTEXT ( ( #203 ) ) GLOBAL_UNIT_ASSIGNED_CONTEXT ( ( #638, #819, #1084 ) ) REPRESENTATION_CONTEXT ( 'NONE', 'WORKASPACE' ) );
#238 = MECHANICAL_DESIGN_GEOMETRIC_PRESENTATION_REPRESENTATION (  '', ( #536 ), #658 ) ;
#239 = ORIENTED_EDGE ( 'NONE', *, *, #767, .F. ) ;
#240 = SURFACE_STYLE_FILL_AREA ( #591 ) ;
#241 =( LENGTH_UNIT ( ) NAMED_UNIT ( * ) SI_UNIT ( .MILLI., .METRE. ) );
#242 = STYLED_ITEM ( 'NONE', ( #788 ), #483 ) ;
#243 = VERTEX_POINT ( 'NONE', #184 ) ;
#244 = EDGE_CURVE ( 'NONE', #707, #831, #1050, .T. ) ;
#245 = SURFACE_SIDE_STYLE ('',( #422 ) ) ;
#246 = LINE ( 'NONE', #72, #792 ) ;
#247 =( GEOMETRIC_REPRESENTATION_CONTEXT ( 3 ) GLOBAL_UNCERTAINTY_ASSIGNED_CONTEXT ( ( #254 ) ) GLOBAL_UNIT_ASSIGNED_CONTEXT ( ( #722, #996, #306 ) ) REPRESENTATION_CONTEXT ( 'NONE', 'WORKASPACE' ) );
#248 = VECTOR ( 'NONE', #631, 1000.000000000000000 ) ;
#249 = ORIENTED_EDGE ( 'NONE', *, *, #353, .F. ) ;
#250 = STYLED_ITEM ( 'NONE', ( #880 ), #1040 ) ;
#251 = DIRECTION ( 'NONE',  ( -0.000000000000000000, -0.000000000000000000, -1.000000000000000000 ) ) ;
#252 = SURFACE_SIDE_STYLE ('',( #586 ) ) ;
#253 = SURFACE_SIDE_STYLE ('',( #240 ) ) ;
#254 = UNCERTAINTY_MEASURE_WITH_UNIT (LENGTH_MEASURE( 1.000000000000000082E-05 ), #722, 'distance_accuracy_value', 'NONE');
#255 = PRESENTATION_STYLE_ASSIGNMENT (( #654 ) ) ;
#256 = ORIENTED_EDGE ( 'NONE', *, *, #507, .T. ) ;
#257 = APPLICATION_CONTEXT ( 'automotive_design' ) ;
#258 = FILL_AREA_STYLE_COLOUR ( '', #637 ) ;
#259 = DIRECTION ( 'NONE',  ( -0.000000000000000000, -0.000000000000000000, -1.000000000000000000 ) ) ;
#260 = CARTESIAN_POINT ( 'NONE',  ( 0.1500000000000000222, 0.1199999999999999956, 0.2700000000000000178 ) ) ;
#261 = ADVANCED_FACE ( 'NONE', ( #194 ), #959, .T. ) ;
#262 =( LENGTH_UNIT ( ) NAMED_UNIT ( * ) SI_UNIT ( .MILLI., .METRE. ) );
#263 = CARTESIAN_POINT ( 'NONE',  ( -0.3300000000000001266, 0.1199999999999999956, 0.2500000000000000000 ) ) ;
#264 = VECTOR ( 'NONE', #525, 1000.000000000000000 ) ;
#265 = ORIENTED_EDGE ( 'NONE', *, *, #769, .T. ) ;
#266 = STYLED_ITEM ( 'NONE', ( #1099 ), #457 ) ;
#267 = DIRECTION ( 'NONE',  ( -1.000000000000000000, -2.930276141852714940E-16, 0.000000000000000000 ) ) ;
#268 = CARTESIAN_POINT ( 'NONE',  ( 0.1700000000000000400, 0.1199999999999999956, 0.2700000000000000178 ) ) ;
#269 = CARTESIAN_POINT ( 'NONE',  ( -0.3350000000000000200, -0.1849999999999999978, 0.2500000000000000000 ) ) ;
#270 = UNCERTAINTY_MEASURE_WITH_UNIT (LENGTH_MEASURE( 1.000000000000000082E-05 ), #747, 'distance_accuracy_value', 'NONE');
#271 = ORIENTED_EDGE ( 'NONE', *, *, #80, .F. ) ;
#272 = FILL_AREA_STYLE ('',( #258 ) ) ;
#273 = ORIENTED_EDGE ( 'NONE', *, *, #434, .F. ) ;
#274 = VECTOR ( 'NONE', #816, 1000.000000000000000 ) ;
#275 = DIRECTION ( 'NONE',  ( 1.000000000000000000, 4.517509052022935470E-16, -0.000000000000000000 ) ) ;
#276 =( NAMED_UNIT ( * ) PLANE_ANGLE_UNIT ( ) SI_UNIT ( $, .RADIAN. ) );
#277 = PLANE ( 'NONE',  #68 ) ;
#278 = ORIENTED_EDGE ( 'NONE', *, *, #879, .T. ) ;
#279 = DIRECTION ( 'NONE',  ( 0.000000000000000000, 0.000000000000000000, 1.000000000000000000 ) ) ;
#280 = DIRECTION ( 'NONE',  ( -0.000000000000000000, -0.000000000000000000, -1.000000000000000000 ) ) ;
#281 = SURFACE_STYLE_FILL_AREA ( #866 ) ;
#282 = ORIENTED_EDGE ( 'NONE', *, *, #56, .F. ) ;
#283 = ADVANCED_FACE ( 'NONE', ( #968 ), #953, .F. ) ;
#284 = PRESENTATION_LAYER_ASSIGNMENT (  '', '', ( #549 ) ) ;
#285 = DIRECTION ( 'NONE',  ( -4.517509052022935470E-16, 1.000000000000000000, 0.000000000000000000 ) ) ;
#286 = VECTOR ( 'NONE', #753, 1000.000000000000000 ) ;
#287 = AXIS2_PLACEMENT_3D ( 'NONE', #1028, #523, #794 ) ;
#288 =( NAMED_UNIT ( * ) PLANE_ANGLE_UNIT ( ) SI_UNIT ( $, .RADIAN. ) );
#289 = ORIENTED_EDGE ( 'NONE', *, *, #558, .T. ) ;
#290 = EDGE_CURVE ( 'NONE', #18, #198, #923, .T. ) ;
#291 = LINE ( 'NONE', #113, #232 ) ;
#292 = ORIENTED_EDGE ( 'NONE', *, *, #1029, .T. ) ;
#293 = COLOUR_RGB ( '',0.6470588235294117974, 0.6196078431372549211, 0.5882352941176470784 ) ;
#294 = ADVANCED_FACE ( 'NONE', ( #1054 ), #355, .F. ) ;
#295 = DIRECTION ( 'NONE',  ( 0.000000000000000000, 0.000000000000000000, 1.000000000000000000 ) ) ;
#296 = CARTESIAN_POINT ( 'NONE',  ( -0.3099999999999999423, -0.1400000000000000688, 0.2700000000000000178 ) ) ;
#297 = FACE_OUTER_BOUND ( 'NONE', #945, .T. ) ;
#298 = CARTESIAN_POINT ( 'NONE',  ( -0.1700000000000000122, 0.1199999999999999956, 0.2700000000000000178 ) ) ;
#299 = CARTESIAN_POINT ( 'NONE',  ( -0.3099999999999999423, -0.1400000000000000688, 0.2700000000000000178 ) ) ;
#300 = EDGE_CURVE ( 'NONE', #733, #453, #32, .T. ) ;
#301 = DIRECTION ( 'NONE',  ( 1.000000000000000000, 0.000000000000000000, 0.000000000000000000 ) ) ;
#302 = ORIENTED_EDGE ( 'NONE', *, *, #176, .F. ) ;
#303 = FILL_AREA_STYLE_COLOUR ( '', #617 ) ;
#304 = AXIS2_PLACEMENT_3D ( 'NONE', #346, #685, #782 ) ;
#305 = PRESENTATION_LAYER_ASSIGNMENT (  '', '', ( #266 ) ) ;
#306 =( NAMED_UNIT ( * ) SI_UNIT ( $, .STERADIAN. ) SOLID_ANGLE_UNIT ( ) );
#307 =( NAMED_UNIT ( * ) SI_UNIT ( $, .STERADIAN. ) SOLID_ANGLE_UNIT ( ) );
#308 = CARTESIAN_POINT ( 'NONE',  ( 0.3099999999999999978, 0.1399999999999999856, 0.2700000000000000178 ) ) ;
#309 = CARTESIAN_POINT ( 'NONE',  ( 0.1700000000000000400, 0.1400000000000000133, 0.2500000000000000000 ) ) ;
#310 = PRODUCT_DEFINITION_FORMATION_WITH_SPECIFIED_SOURCE ( 'ANY', '', #220, .NOT_KNOWN. ) ;
#311 = COLOUR_RGB ( '',0.6470588235294117974, 0.6196078431372549211, 0.5882352941176470784 ) ;
#312 = SURFACE_SIDE_STYLE ('',( #892 ) ) ;
#313 = DIRECTION ( 'NONE',  ( 1.000000000000000000, 0.000000000000000000, 0.000000000000000000 ) ) ;
#314 = AXIS2_PLACEMENT_3D ( 'NONE', #903, #481, #48 ) ;
#315 =( LENGTH_UNIT ( ) NAMED_UNIT ( * ) SI_UNIT ( .MILLI., .METRE. ) );
#316 = SURFACE_STYLE_FILL_AREA ( #1081 ) ;
#317 = ORIENTED_EDGE ( 'NONE', *, *, #507, .F. ) ;
#318 = LINE ( 'NONE', #518, #730 ) ;
#319 = PRODUCT_DEFINITION_SHAPE ( 'NONE', 'NONE',  #189 ) ;
#320 = SURFACE_SIDE_STYLE ('',( #1072 ) ) ;
#321 = AXIS2_PLACEMENT_3D ( 'NONE', #26, #267, #703 ) ;
#322 = COLOUR_RGB ( '',0.6470588235294117974, 0.6196078431372549211, 0.5882352941176470784 ) ;
#323 =( NAMED_UNIT ( * ) SI_UNIT ( $, .STERADIAN. ) SOLID_ANGLE_UNIT ( ) );
#324 = COLOUR_RGB ( '',0.2980392156862745057, 0.2980392156862745057, 0.2980392156862745057 ) ;
#325 = EDGE_CURVE ( 'NONE', #831, #826, #55, .T. ) ;
#326 = VECTOR ( 'NONE', #431, 1000.000000000000000 ) ;
#327 = DIRECTION ( 'NONE',  ( -1.000000000000000000, 0.000000000000000000, 0.000000000000000000 ) ) ;
#328 = ORIENTED_EDGE ( 'NONE', *, *, #934, .F. ) ;
#329 = CARTESIAN_POINT ( 'NONE',  ( 0.3100000000000000533, -0.1200000000000000649, 0.2700000000000000178 ) ) ;
#330 = LINE ( 'NONE', #263, #1092 ) ;
#331 = VERTEX_POINT ( 'NONE', #114 ) ;
#332 = FACE_OUTER_BOUND ( 'NONE', #335, .T. ) ;
#333 = DIRECTION ( 'NONE',  ( 1.000000000000000000, 0.000000000000000000, 0.000000000000000000 ) ) ;
#334 = VECTOR ( 'NONE', #1065, 1000.000000000000000 ) ;
#335 = EDGE_LOOP ( 'NONE', ( #447, #912, #419, #875 ) ) ;
#336 = EDGE_CURVE ( 'NONE', #1034, #1070, #131, .T. ) ;
#337 = VERTEX_POINT ( 'NONE', #376 ) ;
#338 = AXIS2_PLACEMENT_3D ( 'NONE', #59, #474, #719 ) ;
#339 = CIRCLE ( 'NONE', #810, 0.01999999999999999695 ) ;
#340 = SURFACE_STYLE_FILL_AREA ( #440 ) ;
#341 = EDGE_CURVE ( 'NONE', #802, #1034, #478, .T. ) ;
#342 = SURFACE_STYLE_FILL_AREA ( #200 ) ;
#343 = FILL_AREA_STYLE_COLOUR ( '', #33 ) ;
#344 = ORIENTED_EDGE ( 'NONE', *, *, #480, .F. ) ;
#345 = SURFACE_STYLE_FILL_AREA ( #272 ) ;
#346 = CARTESIAN_POINT ( 'NONE',  ( -0.3350000000000000755, 0.1849999999999999978, 0.2500000000000000000 ) ) ;
#347 = LINE ( 'NONE', #686, #326 ) ;
#348 = LINE ( 'NONE', #1049, #380 ) ;
#349 =( GEOMETRIC_REPRESENTATION_CONTEXT ( 3 ) GLOBAL_UNCERTAINTY_ASSIGNED_CONTEXT ( ( #95 ) ) GLOBAL_UNIT_ASSIGNED_CONTEXT ( ( #89, #152, #757 ) ) REPRESENTATION_CONTEXT ( 'NONE', 'WORKASPACE' ) );
#350 = EDGE_LOOP ( 'NONE', ( #265, #992, #836, #563 ) ) ;
#351 = LINE ( 'NONE', #429, #35 ) ;
#352 = MECHANICAL_DESIGN_GEOMETRIC_PRESENTATION_REPRESENTATION (  '', ( #242 ), #1107 ) ;
#353 = EDGE_CURVE ( 'NONE', #373, #205, #217, .T. ) ;
#354 =( GEOMETRIC_REPRESENTATION_CONTEXT ( 3 ) GLOBAL_UNCERTAINTY_ASSIGNED_CONTEXT ( ( #192 ) ) GLOBAL_UNIT_ASSIGNED_CONTEXT ( ( #1011, #69, #323 ) ) REPRESENTATION_CONTEXT ( 'NONE', 'WORKASPACE' ) );
#355 = PLANE ( 'NONE',  #491 ) ;
#356 = UNCERTAINTY_MEASURE_WITH_UNIT (LENGTH_MEASURE( 1.000000000000000082E-05 ), #241, 'distance_accuracy_value', 'NONE');
#357 =( NAMED_UNIT ( * ) SI_UNIT ( $, .STERADIAN. ) SOLID_ANGLE_UNIT ( ) );
#358 = ORIENTED_EDGE ( 'NONE', *, *, #776, .F. ) ;
#359 = FILL_AREA_STYLE_COLOUR ( '', #118 ) ;
#360 = ORIENTED_EDGE ( 'NONE', *, *, #290, .T. ) ;
#361 = VECTOR ( 'NONE', #807, 1000.000000000000000 ) ;
#362 = AXIS2_PLACEMENT_3D ( 'NONE', #191, #783, #14 ) ;
#363 = FILL_AREA_STYLE ('',( #6 ) ) ;
#364 = CARTESIAN_POINT ( 'NONE',  ( -0.3100000000000000533, 0.1399999999999999856, 0.2700000000000000178 ) ) ;
#365 = SURFACE_STYLE_USAGE ( .BOTH. , #620 ) ;
#366 = EDGE_CURVE ( 'NONE', #758, #1070, #721, .T. ) ;
#367 = ORIENTED_EDGE ( 'NONE', *, *, #30, .T. ) ;
#368 =( NAMED_UNIT ( * ) SI_UNIT ( $, .STERADIAN. ) SOLID_ANGLE_UNIT ( ) );
#369 = DIRECTION ( 'NONE',  ( 0.000000000000000000, -0.000000000000000000, 1.000000000000000000 ) ) ;
#370 = UNCERTAINTY_MEASURE_WITH_UNIT (LENGTH_MEASURE( 1.000000000000000082E-05 ), #27, 'distance_accuracy_value', 'NONE');
#371 =( LENGTH_UNIT ( ) NAMED_UNIT ( * ) SI_UNIT ( .MILLI., .METRE. ) );
#372 = ADVANCED_FACE ( 'NONE', ( #709 ), #625, .F. ) ;
#373 = VERTEX_POINT ( 'NONE', #648 ) ;
#374 = DIRECTION ( 'NONE',  ( -1.000000000000000000, 0.000000000000000000, 0.000000000000000000 ) ) ;
#375 = COLOUR_RGB ( '',0.2980392156862745057, 0.2980392156862745057, 0.2980392156862745057 ) ;
#376 = CARTESIAN_POINT ( 'NONE',  ( -0.3300000000000001266, 0.1199999999999999956, 0.2700000000000000178 ) ) ;
#377 = VECTOR ( 'NONE', #817, 1000.000000000000000 ) ;
#378 = PRESENTATION_STYLE_ASSIGNMENT (( #228 ) ) ;
#379 = VERTEX_POINT ( 'NONE', #224 ) ;
#380 = VECTOR ( 'NONE', #280, 1000.000000000000000 ) ;
#381 = SURFACE_SIDE_STYLE ('',( #210 ) ) ;
#382 = CIRCLE ( 'NONE', #520, 0.02000000000000002470 ) ;
#383 = STYLED_ITEM ( 'NONE', ( #920 ), #994 ) ;
#384 = LINE ( 'NONE', #299, #910 ) ;
#385 = DIRECTION ( 'NONE',  ( 1.000000000000000000, 0.000000000000000000, 0.000000000000000000 ) ) ;
#386 = DIRECTION ( 'NONE',  ( -0.000000000000000000, -0.000000000000000000, -1.000000000000000000 ) ) ;
#387 = CARTESIAN_POINT ( 'NONE',  ( 0.1700000000000000400, 0.1199999999999999956, 0.2500000000000000000 ) ) ;
#388 = DIRECTION ( 'NONE',  ( -0.000000000000000000, -0.000000000000000000, -1.000000000000000000 ) ) ;
#389 = EDGE_LOOP ( 'NONE', ( #596, #195, #282, #256 ) ) ;
#390 = CARTESIAN_POINT ( 'NONE',  ( 0.3300000000000000155, 0.1199999999999999956, 0.2500000000000000000 ) ) ;
#391 = AXIS2_PLACEMENT_3D ( 'NONE', #871, #259, #692 ) ;
#392 = APPLICATION_PROTOCOL_DEFINITION ( 'draft international standard', 'automotive_design', 1998, #257 ) ;
#393 = DIRECTION ( 'NONE',  ( 0.000000000000000000, 0.000000000000000000, 1.000000000000000000 ) ) ;
#394 = DIRECTION ( 'NONE',  ( 0.000000000000000000, 0.000000000000000000, 1.000000000000000000 ) ) ;
#395 = CARTESIAN_POINT ( 'NONE',  ( 0.3099999999999999978, 0.1399999999999999856, 0.2700000000000000178 ) ) ;
#396 = ORIENTED_EDGE ( 'NONE', *, *, #1016, .F. ) ;
#397 = VECTOR ( 'NONE', #735, 1000.000000000000000 ) ;
#398 = AXIS2_PLACEMENT_3D ( 'NONE', #226, #565, #825 ) ;
#399 =( GEOMETRIC_REPRESENTATION_CONTEXT ( 3 ) GLOBAL_UNCERTAINTY_ASSIGNED_CONTEXT ( ( #592 ) ) GLOBAL_UNIT_ASSIGNED_CONTEXT ( ( #236, #893, #307 ) ) REPRESENTATION_CONTEXT ( 'NONE', 'WORKASPACE' ) );
#400 = SURFACE_STYLE_USAGE ( .BOTH. , #312 ) ;
#401 = COLOUR_RGB ( '',0.6470588235294117974, 0.6196078431372549211, 0.5882352941176470784 ) ;
#402 = ORIENTED_EDGE ( 'NONE', *, *, #820, .T. ) ;
#403 = PRESENTATION_STYLE_ASSIGNMENT (( #153 ) ) ;
#404 = EDGE_LOOP ( 'NONE', ( #512, #328, #789, #427 ) ) ;
#405 = ADVANCED_FACE ( 'NONE', ( #811 ), #207, .T. ) ;
#406 = DIRECTION ( 'NONE',  ( 1.000000000000000000, 0.000000000000000000, 0.000000000000000000 ) ) ;
#407 = SURFACE_STYLE_USAGE ( .BOTH. , #574 ) ;
#408 = FILL_AREA_STYLE ('',( #906 ) ) ;
#409 = PRESENTATION_LAYER_ASSIGNMENT (  '', '', ( #242 ) ) ;
#410 = SURFACE_STYLE_USAGE ( .BOTH. , #253 ) ;
#411 = FACE_OUTER_BOUND ( 'NONE', #179, .T. ) ;
#412 = PRESENTATION_LAYER_ASSIGNMENT (  '', '', ( #54 ) ) ;
#413 = DIRECTION ( 'NONE',  ( -0.000000000000000000, -0.000000000000000000, -1.000000000000000000 ) ) ;
#414 = PRESENTATION_STYLE_ASSIGNMENT (( #150 ) ) ;
#415 = CARTESIAN_POINT ( 'NONE',  ( 0.1700000000000001232, -0.1400000000000000133, 0.2500000000000000000 ) ) ;
#416 = CARTESIAN_POINT ( 'NONE',  ( 0.3099999999999999978, 0.1199999999999999956, 0.2500000000000000000 ) ) ;
#417 = PRESENTATION_LAYER_ASSIGNMENT (  '', '', ( #250 ) ) ;
#418 =( NAMED_UNIT ( * ) PLANE_ANGLE_UNIT ( ) SI_UNIT ( $, .RADIAN. ) );
#419 = ORIENTED_EDGE ( 'NONE', *, *, #123, .F. ) ;
#420 = LINE ( 'NONE', #764, #85 ) ;
#421 = VERTEX_POINT ( 'NONE', #1095 ) ;
#422 = SURFACE_STYLE_FILL_AREA ( #149 ) ;
#423 = STYLED_ITEM ( 'NONE', ( #748 ), #156 ) ;
#424 = ORIENTED_EDGE ( 'NONE', *, *, #678, .F. ) ;
#425 =( GEOMETRIC_REPRESENTATION_CONTEXT ( 3 ) GLOBAL_UNCERTAINTY_ASSIGNED_CONTEXT ( ( #508 ) ) GLOBAL_UNIT_ASSIGNED_CONTEXT ( ( #961, #276, #611 ) ) REPRESENTATION_CONTEXT ( 'NONE', 'WORKASPACE' ) );
#426 = DIRECTION ( 'NONE',  ( 4.517509052022934484E-16, -1.000000000000000000, 0.000000000000000000 ) ) ;
#427 = ORIENTED_EDGE ( 'NONE', *, *, #1002, .T. ) ;
#428 = VECTOR ( 'NONE', #1014, 1000.000000000000000 ) ;
#429 = CARTESIAN_POINT ( 'NONE',  ( -0.1500000000000000222, 0.1199999999999999956, 0.2500000000000000000 ) ) ;
#430 =( NAMED_UNIT ( * ) PLANE_ANGLE_UNIT ( ) SI_UNIT ( $, .RADIAN. ) );
#431 = DIRECTION ( 'NONE',  ( -0.000000000000000000, -0.000000000000000000, -1.000000000000000000 ) ) ;
#432 = CARTESIAN_POINT ( 'NONE',  ( 0.3300000000000001266, -0.1200000000000000649, 0.2500000000000000000 ) ) ;
#433 = DIRECTION ( 'NONE',  ( -0.000000000000000000, 0.000000000000000000, 1.000000000000000000 ) ) ;
#434 = EDGE_CURVE ( 'NONE', #18, #421, #924, .T. ) ;
#435 = ORIENTED_EDGE ( 'NONE', *, *, #450, .T. ) ;
#436 = DIRECTION ( 'NONE',  ( -1.000000000000000000, 0.000000000000000000, 0.000000000000000000 ) ) ;
#437 = AXIS2_PLACEMENT_3D ( 'NONE', #681, #771, #704 ) ;
#438 = ORIENTED_EDGE ( 'NONE', *, *, #2, .T. ) ;
#439 = AXIS2_PLACEMENT_3D ( 'NONE', #842, #251, #575 ) ;
#440 = FILL_AREA_STYLE ('',( #359 ) ) ;
#441 = ORIENTED_EDGE ( 'NONE', *, *, #341, .T. ) ;
#442 = SURFACE_STYLE_FILL_AREA ( #878 ) ;
#443 = LINE ( 'NONE', #790, #874 ) ;
#444 = UNCERTAINTY_MEASURE_WITH_UNIT (LENGTH_MEASURE( 1.000000000000000082E-05 ), #863, 'distance_accuracy_value', 'NONE');
#445 = PLANE ( 'NONE',  #19 ) ;
#446 = CARTESIAN_POINT ( 'NONE',  ( 0.1700000000000001232, -0.1400000000000000133, 0.2700000000000000178 ) ) ;
#447 = ORIENTED_EDGE ( 'NONE', *, *, #134, .T. ) ;
#448 = DIRECTION ( 'NONE',  ( -0.000000000000000000, -0.000000000000000000, -1.000000000000000000 ) ) ;
#449 = SURFACE_STYLE_USAGE ( .BOTH. , #514 ) ;
#450 = EDGE_CURVE ( 'NONE', #623, #702, #420, .T. ) ;
#451 = PRESENTATION_STYLE_ASSIGNMENT (( #106 ) ) ;
#452 = EDGE_LOOP ( 'NONE', ( #289, #25, #62, #102 ) ) ;
#453 = VERTEX_POINT ( 'NONE', #498 ) ;
#454 = UNCERTAINTY_MEASURE_WITH_UNIT (LENGTH_MEASURE( 1.000000000000000082E-05 ), #476, 'distance_accuracy_value', 'NONE');
#455 = PRESENTATION_STYLE_ASSIGNMENT (( #99 ) ) ;
#456 = VERTEX_POINT ( 'NONE', #837 ) ;
#457 = ADVANCED_FACE ( 'NONE', ( #75 ), #650, .T. ) ;
#458 = PRESENTATION_LAYER_ASSIGNMENT (  '', '', ( #1087 ) ) ;
#459 = LINE ( 'NONE', #122, #377 ) ;
#460 = COLOUR_RGB ( '',0.6470588235294117974, 0.6196078431372549211, 0.5882352941176470784 ) ;
#461 =( NAMED_UNIT ( * ) SI_UNIT ( $, .STERADIAN. ) SOLID_ANGLE_UNIT ( ) );
#462 = PRESENTATION_LAYER_ASSIGNMENT (  '', '', ( #13 ) ) ;
#463 = LINE ( 'NONE', #626, #534 ) ;
#464 = CARTESIAN_POINT ( 'NONE',  ( -0.3100000000000000533, 0.1199999999999999956, 0.2500000000000000000 ) ) ;
#465 =( NAMED_UNIT ( * ) SI_UNIT ( $, .STERADIAN. ) SOLID_ANGLE_UNIT ( ) );
#466 = PRESENTATION_STYLE_ASSIGNMENT (( #978 ) ) ;
#467 = AXIS2_PLACEMENT_3D ( 'NONE', #1025, #587, #506 ) ;
#468 = CARTESIAN_POINT ( 'NONE',  ( -0.1500000000000000222, 0.1199999999999999956, 0.2700000000000000178 ) ) ;
#469 = ORIENTED_EDGE ( 'NONE', *, *, #290, .F. ) ;
#470 = ADVANCED_FACE ( 'NONE', ( #487 ), #1089, .F. ) ;
#471 = DIRECTION ( 'NONE',  ( -1.000000000000000000, 0.000000000000000000, 0.000000000000000000 ) ) ;
#472 = VERTEX_POINT ( 'NONE', #595 ) ;
#473 =( LENGTH_UNIT ( ) NAMED_UNIT ( * ) SI_UNIT ( .MILLI., .METRE. ) );
#474 = DIRECTION ( 'NONE',  ( 0.000000000000000000, 0.000000000000000000, 1.000000000000000000 ) ) ;
#475 = PRESENTATION_STYLE_ASSIGNMENT (( #1075 ) ) ;
#476 =( LENGTH_UNIT ( ) NAMED_UNIT ( * ) SI_UNIT ( .MILLI., .METRE. ) );
#477 = MECHANICAL_DESIGN_GEOMETRIC_PRESENTATION_REPRESENTATION (  '', ( #615 ), #11 ) ;
#478 = CIRCLE ( 'NONE', #867, 0.01999999999999999695 ) ;
#479 = CARTESIAN_POINT ( 'NONE',  ( 0.1700000000000001232, -0.1400000000000000411, 0.2700000000000000178 ) ) ;
#480 = EDGE_CURVE ( 'NONE', #883, #802, #84, .T. ) ;
#481 = DIRECTION ( 'NONE',  ( 0.000000000000000000, 0.000000000000000000, 1.000000000000000000 ) ) ;
#482 = MECHANICAL_DESIGN_GEOMETRIC_PRESENTATION_REPRESENTATION (  '', ( #657 ), #399 ) ;
#483 = ADVANCED_FACE ( 'NONE', ( #504 ), #946, .T. ) ;
#484 = AXIS2_PLACEMENT_3D ( 'NONE', #178, #502, #67 ) ;
#485 = SURFACE_SIDE_STYLE ('',( #221 ) ) ;
#486 = PLANE ( 'NONE',  #870 ) ;
#487 = FACE_OUTER_BOUND ( 'NONE', #501, .T. ) ;
#488 = LINE ( 'NONE', #829, #522 ) ;
#489 = ORIENTED_EDGE ( 'NONE', *, *, #568, .F. ) ;
#490 = STYLED_ITEM ( 'NONE', ( #1030 ), #283 ) ;
#491 = AXIS2_PLACEMENT_3D ( 'NONE', #186, #275, #285 ) ;
#492 = VECTOR ( 'NONE', #770, 1000.000000000000000 ) ;
#493 = FACE_OUTER_BOUND ( 'NONE', #159, .T. ) ;
#494 = VECTOR ( 'NONE', #386, 1000.000000000000000 ) ;
#495 = DIRECTION ( 'NONE',  ( -0.000000000000000000, -0.000000000000000000, -1.000000000000000000 ) ) ;
#496 = ORIENTED_EDGE ( 'NONE', *, *, #879, .F. ) ;
#497 = COLOUR_RGB ( '',0.6470588235294117974, 0.6196078431372549211, 0.5882352941176470784 ) ;
#498 = CARTESIAN_POINT ( 'NONE',  ( -0.1699999999999999845, -0.1400000000000000411, 0.2500000000000000000 ) ) ;
#499 = VECTOR ( 'NONE', #301, 1000.000000000000000 ) ;
#500 =( GEOMETRIC_REPRESENTATION_CONTEXT ( 3 ) GLOBAL_UNCERTAINTY_ASSIGNED_CONTEXT ( ( #270 ) ) GLOBAL_UNIT_ASSIGNED_CONTEXT ( ( #747, #172, #177 ) ) REPRESENTATION_CONTEXT ( 'NONE', 'WORKASPACE' ) );
#501 = EDGE_LOOP ( 'NONE', ( #868, #1058, #1098, #542 ) ) ;
#502 = DIRECTION ( 'NONE',  ( 0.000000000000000000, 1.000000000000000000, 0.000000000000000000 ) ) ;
#503 = VERTEX_POINT ( 'NONE', #932 ) ;
#504 = FACE_OUTER_BOUND ( 'NONE', #632, .T. ) ;
#505 = CARTESIAN_POINT ( 'NONE',  ( 0.1700000000000001232, -0.1200000000000000649, 0.2500000000000000000 ) ) ;
#506 = DIRECTION ( 'NONE',  ( 0.000000000000000000, -0.000000000000000000, -1.000000000000000000 ) ) ;
#507 = EDGE_CURVE ( 'NONE', #337, #787, #775, .T. ) ;
#508 = UNCERTAINTY_MEASURE_WITH_UNIT (LENGTH_MEASURE( 1.000000000000000082E-05 ), #961, 'distance_accuracy_value', 'NONE');
#509 = CARTESIAN_POINT ( 'NONE',  ( 0.000000000000000000, 0.000000000000000000, 0.000000000000000000 ) ) ;
#510 = VECTOR ( 'NONE', #956, 1000.000000000000000 ) ;
#511 =( GEOMETRIC_REPRESENTATION_CONTEXT ( 3 ) GLOBAL_UNCERTAINTY_ASSIGNED_CONTEXT ( ( #865 ) ) GLOBAL_UNIT_ASSIGNED_CONTEXT ( ( #473, #990, #461 ) ) REPRESENTATION_CONTEXT ( 'NONE', 'WORKASPACE' ) );
#512 = ORIENTED_EDGE ( 'NONE', *, *, #1035, .T. ) ;
#513 = SURFACE_STYLE_USAGE ( .BOTH. , #680 ) ;
#514 = SURFACE_SIDE_STYLE ('',( #442 ) ) ;
#515 = CARTESIAN_POINT ( 'NONE',  ( 0.3300000000000000711, -0.1200000000000000649, 0.2700000000000000178 ) ) ;
#516 = EDGE_CURVE ( 'NONE', #988, #1034, #527, .T. ) ;
#517 = CARTESIAN_POINT ( 'NONE',  ( -0.3350000000000000755, 0.1849999999999999978, 0.000000000000000000 ) ) ;
#518 = CARTESIAN_POINT ( 'NONE',  ( 0.3350000000000000755, -0.1849999999999999978, 0.2500000000000000000 ) ) ;
#519 = PRESENTATION_STYLE_ASSIGNMENT (( #365 ) ) ;
#520 = AXIS2_PLACEMENT_3D ( 'NONE', #268, #181, #92 ) ;
#521 = ORIENTED_EDGE ( 'NONE', *, *, #541, .F. ) ;
#522 = VECTOR ( 'NONE', #165, 1000.000000000000000 ) ;
#523 = DIRECTION ( 'NONE',  ( -0.000000000000000000, -0.000000000000000000, -1.000000000000000000 ) ) ;
#524 = UNCERTAINTY_MEASURE_WITH_UNIT (LENGTH_MEASURE( 1.000000000000000082E-05 ), #955, 'distance_accuracy_value', 'NONE');
#525 = DIRECTION ( 'NONE',  ( -2.930276141852714940E-16, 1.000000000000000000, -0.000000000000000000 ) ) ;
#526 = VERTEX_POINT ( 'NONE', #1111 ) ;
#527 = LINE ( 'NONE', #175, #492 ) ;
#528 =( LENGTH_UNIT ( ) NAMED_UNIT ( * ) SI_UNIT ( .MILLI., .METRE. ) );
#529 = ORIENTED_EDGE ( 'NONE', *, *, #889, .F. ) ;
#530 = PRESENTATION_STYLE_ASSIGNMENT (( #917 ) ) ;
#531 =( GEOMETRIC_REPRESENTATION_CONTEXT ( 3 ) GLOBAL_UNCERTAINTY_ASSIGNED_CONTEXT ( ( #1056 ) ) GLOBAL_UNIT_ASSIGNED_CONTEXT ( ( #803, #890, #715 ) ) REPRESENTATION_CONTEXT ( 'NONE', 'WORKASPACE' ) );
#532 = FILL_AREA_STYLE_COLOUR ( '', #497 ) ;
#533 = FACE_BOUND ( 'NONE', #726, .T. ) ;
#534 = VECTOR ( 'NONE', #40, 1000.000000000000000 ) ;
#535 = EDGE_LOOP ( 'NONE', ( #435, #1020, #967, #998 ) ) ;
#536 = STYLED_ITEM ( 'NONE', ( #414 ), #908 ) ;
#537 = EDGE_LOOP ( 'NONE', ( #862, #877, #634, #107, #885, #585, #38, #813 ) ) ;
#538 = CIRCLE ( 'NONE', #676, 0.02000000000000002470 ) ;
#539 =( NAMED_UNIT ( * ) PLANE_ANGLE_UNIT ( ) SI_UNIT ( $, .RADIAN. ) );
#540 = SURFACE_STYLE_USAGE ( .BOTH. , #605 ) ;
#541 = EDGE_CURVE ( 'NONE', #983, #456, #351, .T. ) ;
#542 = ORIENTED_EDGE ( 'NONE', *, *, #645, .T. ) ;
#543 = ORIENTED_EDGE ( 'NONE', *, *, #336, .T. ) ;
#544 = FILL_AREA_STYLE ('',( #303 ) ) ;
#545 = CARTESIAN_POINT ( 'NONE',  ( 0.3300000000000000155, 0.1199999999999999956, 0.2500000000000000000 ) ) ;
#546 = DIRECTION ( 'NONE',  ( -1.936075308009830156E-16, -1.000000000000000000, 0.000000000000000000 ) ) ;
#547 = ADVANCED_FACE ( 'NONE', ( #781 ), #10, .T. ) ;
#548 = PRESENTATION_STYLE_ASSIGNMENT (( #627 ) ) ;
#549 = STYLED_ITEM ( 'NONE', ( #111 ), #170 ) ;
#550 = DIRECTION ( 'NONE',  ( 1.000000000000000000, 4.517509052022935470E-16, -0.000000000000000000 ) ) ;
#551 = MECHANICAL_DESIGN_GEOMETRIC_PRESENTATION_REPRESENTATION (  '', ( #115 ), #766 ) ;
#552 = PRESENTATION_LAYER_ASSIGNMENT (  '', '', ( #572 ) ) ;
#553 = PLANE ( 'NONE',  #752 ) ;
#554 = EDGE_CURVE ( 'NONE', #190, #935, #291, .T. ) ;
#555 = STYLED_ITEM ( 'NONE', ( #455 ), #714 ) ;
#556 = LINE ( 'NONE', #741, #361 ) ;
#557 = ORIENTED_EDGE ( 'NONE', *, *, #571, .T. ) ;
#558 = EDGE_CURVE ( 'NONE', #613, #993, #459, .T. ) ;
#559 = DIRECTION ( 'NONE',  ( -0.000000000000000000, -0.000000000000000000, -1.000000000000000000 ) ) ;
#560 = PRESENTATION_STYLE_ASSIGNMENT (( #58 ) ) ;
#561 = LINE ( 'NONE', #231, #274 ) ;
#562 = CARTESIAN_POINT ( 'NONE',  ( -0.1700000000000000122, 0.1399999999999999856, 0.2500000000000000000 ) ) ;
#563 = ORIENTED_EDGE ( 'NONE', *, *, #913, .T. ) ;
#564 = PRESENTATION_STYLE_ASSIGNMENT (( #886 ) ) ;
#565 = DIRECTION ( 'NONE',  ( 0.000000000000000000, 0.000000000000000000, 1.000000000000000000 ) ) ;
#566 = DIRECTION ( 'NONE',  ( -1.000000000000000000, 0.000000000000000000, 0.000000000000000000 ) ) ;
#567 = ORIENTED_EDGE ( 'NONE', *, *, #830, .F. ) ;
#568 = EDGE_CURVE ( 'NONE', #82, #623, #1069, .T. ) ;
#569 = ADVANCED_FACE ( 'NONE', ( #297 ), #977, .F. ) ;
#570 = STYLED_ITEM ( 'NONE', ( #530 ), #470 ) ;
#571 = EDGE_CURVE ( 'NONE', #826, #702, #814, .T. ) ;
#572 = STYLED_ITEM ( 'NONE', ( #742 ), #630 ) ;
#573 = CARTESIAN_POINT ( 'NONE',  ( 0.3350000000000000755, -0.1849999999999999978, 0.000000000000000000 ) ) ;
#574 = SURFACE_SIDE_STYLE ('',( #580 ) ) ;
#575 = DIRECTION ( 'NONE',  ( -1.000000000000000000, 0.000000000000000000, 0.000000000000000000 ) ) ;
#576 = AXIS2_PLACEMENT_3D ( 'NONE', #142, #295, #673 ) ;
#577 = CIRCLE ( 'NONE', #338, 0.01999999999999999695 ) ;
#578 = PRESENTATION_LAYER_ASSIGNMENT (  '', '', ( #147 ) ) ;
#579 = DIRECTION ( 'NONE',  ( -0.000000000000000000, 0.000000000000000000, 1.000000000000000000 ) ) ;
#580 = SURFACE_STYLE_FILL_AREA ( #1060 ) ;
#581 = ORIENTED_EDGE ( 'NONE', *, *, #87, .F. ) ;
#582 = SURFACE_STYLE_FILL_AREA ( #408 ) ;
#583 = CYLINDRICAL_SURFACE ( 'NONE', #928, 0.01999999999999997266 ) ;
#584 = DIRECTION ( 'NONE',  ( 0.000000000000000000, -1.000000000000000000, 0.000000000000000000 ) ) ;
#585 = ORIENTED_EDGE ( 'NONE', *, *, #46, .T. ) ;
#586 = SURFACE_STYLE_FILL_AREA ( #71 ) ;
#587 = DIRECTION ( 'NONE',  ( 0.000000000000000000, -1.000000000000000000, 0.000000000000000000 ) ) ;
#588 =( NAMED_UNIT ( * ) SI_UNIT ( $, .STERADIAN. ) SOLID_ANGLE_UNIT ( ) );
#589 = ORIENTED_EDGE ( 'NONE', *, *, #554, .T. ) ;
#590 = DIRECTION ( 'NONE',  ( -0.000000000000000000, -0.000000000000000000, -1.000000000000000000 ) ) ;
#591 = FILL_AREA_STYLE ('',( #894 ) ) ;
#592 = UNCERTAINTY_MEASURE_WITH_UNIT (LENGTH_MEASURE( 1.000000000000000082E-05 ), #236, 'distance_accuracy_value', 'NONE');
#593 =( NAMED_UNIT ( * ) PLANE_ANGLE_UNIT ( ) SI_UNIT ( $, .RADIAN. ) );
#594 = ORIENTED_EDGE ( 'NONE', *, *, #738, .T. ) ;
#595 = CARTESIAN_POINT ( 'NONE',  ( 0.1700000000000001232, -0.1400000000000000411, 0.2500000000000000000 ) ) ;
#596 = ORIENTED_EDGE ( 'NONE', *, *, #678, .T. ) ;
#597 = EDGE_CURVE ( 'NONE', #331, #526, #1059, .T. ) ;
#598 =( NAMED_UNIT ( * ) SI_UNIT ( $, .STERADIAN. ) SOLID_ANGLE_UNIT ( ) );
#599 = PRODUCT_DEFINITION_CONTEXT ( 'detailed design', #828, 'design' ) ;
#600 = CARTESIAN_POINT ( 'NONE',  ( -0.3100000000000000533, 0.1399999999999999856, 0.2700000000000000178 ) ) ;
#601 = FACE_BOUND ( 'NONE', #1061, .T. ) ;
#602 = ORIENTED_EDGE ( 'NONE', *, *, #20, .F. ) ;
#603 = VECTOR ( 'NONE', #448, 1000.000000000000000 ) ;
#604 = SURFACE_SIDE_STYLE ('',( #342 ) ) ;
#605 = SURFACE_SIDE_STYLE ('',( #202 ) ) ;
#606 = CIRCLE ( 'NONE', #754, 0.01999999999999999695 ) ;
#607 = VECTOR ( 'NONE', #426, 1000.000000000000000 ) ;
#608 = ORIENTED_EDGE ( 'NONE', *, *, #767, .T. ) ;
#609 = SURFACE_SIDE_STYLE ('',( #345 ) ) ;
#610 = UNCERTAINTY_MEASURE_WITH_UNIT (LENGTH_MEASURE( 1.000000000000000082E-05 ), #933, 'distance_accuracy_value', 'NONE');
#611 =( NAMED_UNIT ( * ) SI_UNIT ( $, .STERADIAN. ) SOLID_ANGLE_UNIT ( ) );
#612 = FILL_AREA_STYLE_COLOUR ( '', #1105 ) ;
#613 = VERTEX_POINT ( 'NONE', #562 ) ;
#614 = CARTESIAN_POINT ( 'NONE',  ( -0.3350000000000000200, -0.1849999999999999978, 0.000000000000000000 ) ) ;
#615 = STYLED_ITEM ( 'NONE', ( #519 ), #162 ) ;
#616 = ORIENTED_EDGE ( 'NONE', *, *, #123, .T. ) ;
#617 = COLOUR_RGB ( '',0.6470588235294117974, 0.6196078431372549211, 0.5882352941176470784 ) ;
#618 = CARTESIAN_POINT ( 'NONE',  ( 0.3349999999999999645, 0.1849999999999999978, 0.000000000000000000 ) ) ;
#619 = EDGE_CURVE ( 'NONE', #74, #373, #133, .T. ) ;
#620 = SURFACE_SIDE_STYLE ('',( #706 ) ) ;
#621 = EDGE_LOOP ( 'NONE', ( #292, #529, #396, #557 ) ) ;
#622 = SURFACE_STYLE_USAGE ( .BOTH. , #609 ) ;
#623 = VERTEX_POINT ( 'NONE', #618 ) ;
#624 = MECHANICAL_DESIGN_GEOMETRIC_PRESENTATION_REPRESENTATION (  '', ( #873 ), #146 ) ;
#625 = PLANE ( 'NONE',  #635 ) ;
#626 = CARTESIAN_POINT ( 'NONE',  ( -0.3100000000000000533, 0.1399999999999999856, 0.2700000000000000178 ) ) ;
#627 = SURFACE_STYLE_USAGE ( .BOTH. , #485 ) ;
#628 = SURFACE_STYLE_FILL_AREA ( #965 ) ;
#629 = FILL_AREA_STYLE_COLOUR ( '', #137 ) ;
#630 = ADVANCED_FACE ( 'NONE', ( #876 ), #108, .F. ) ;
#631 = DIRECTION ( 'NONE',  ( -0.000000000000000000, -0.000000000000000000, -1.000000000000000000 ) ) ;
#632 = EDGE_LOOP ( 'NONE', ( #402, #239, #602, #589 ) ) ;
#633 =( LENGTH_UNIT ( ) NAMED_UNIT ( * ) SI_UNIT ( .MILLI., .METRE. ) );
#634 = ORIENTED_EDGE ( 'NONE', *, *, #87, .T. ) ;
#635 = AXIS2_PLACEMENT_3D ( 'NONE', #298, #124, #974 ) ;
#636 = SURFACE_SIDE_STYLE ('',( #45 ) ) ;
#637 = COLOUR_RGB ( '',0.6470588235294117974, 0.6196078431372549211, 0.5882352941176470784 ) ;
#638 =( LENGTH_UNIT ( ) NAMED_UNIT ( * ) SI_UNIT ( .MILLI., .METRE. ) );
#639 = AXIS2_PLACEMENT_3D ( 'NONE', #911, #655, #1097 ) ;
#640 = FILL_AREA_STYLE_COLOUR ( '', #293 ) ;
#641 = AXIS2_PLACEMENT_3D ( 'NONE', #225, #1077, #125 ) ;
#642 = VECTOR ( 'NONE', #1067, 1000.000000000000000 ) ;
#643 = DIRECTION ( 'NONE',  ( -0.000000000000000000, -0.000000000000000000, -1.000000000000000000 ) ) ;
#644 = PRESENTATION_STYLE_ASSIGNMENT (( #400 ) ) ;
#645 = EDGE_CURVE ( 'NONE', #707, #82, #318, .T. ) ;
#646 = DIRECTION ( 'NONE',  ( 0.000000000000000000, 0.000000000000000000, 1.000000000000000000 ) ) ;
#647 = SURFACE_SIDE_STYLE ('',( #316 ) ) ;
#648 = CARTESIAN_POINT ( 'NONE',  ( 0.3099999999999999978, 0.1399999999999999856, 0.2500000000000000000 ) ) ;
#649 = ORIENTED_EDGE ( 'NONE', *, *, #1029, .F. ) ;
#650 = CYLINDRICAL_SURFACE ( 'NONE', #439, 0.01999999999999999695 ) ;
#651 = STYLED_ITEM ( 'NONE', ( #451 ), #261 ) ;
#652 =( GEOMETRIC_REPRESENTATION_CONTEXT ( 3 ) GLOBAL_UNCERTAINTY_ASSIGNED_CONTEXT ( ( #843 ) ) GLOBAL_UNIT_ASSIGNED_CONTEXT ( ( #672, #745, #1012 ) ) REPRESENTATION_CONTEXT ( 'NONE', 'WORKASPACE' ) );
#653 = VECTOR ( 'NONE', #216, 1000.000000000000000 ) ;
#654 = SURFACE_STYLE_USAGE ( .BOTH. , #914 ) ;
#655 = DIRECTION ( 'NONE',  ( -0.000000000000000000, -0.000000000000000000, -1.000000000000000000 ) ) ;
#656 = ORIENTED_EDGE ( 'NONE', *, *, #516, .T. ) ;
#657 = STYLED_ITEM ( 'NONE', ( #560 ), #812 ) ;
#658 =( GEOMETRIC_REPRESENTATION_CONTEXT ( 3 ) GLOBAL_UNCERTAINTY_ASSIGNED_CONTEXT ( ( #610 ) ) GLOBAL_UNIT_ASSIGNED_CONTEXT ( ( #933, #925, #164 ) ) REPRESENTATION_CONTEXT ( 'NONE', 'WORKASPACE' ) );
#659 = EDGE_CURVE ( 'NONE', #379, #205, #922, .T. ) ;
#660 = MECHANICAL_DESIGN_GEOMETRIC_PRESENTATION_REPRESENTATION (  '', ( #147 ), #756 ) ;
#661 = CYLINDRICAL_SURFACE ( 'NONE', #126, 0.01999999999999999695 ) ;
#662 = EDGE_LOOP ( 'NONE', ( #120, #344, #302, #112 ) ) ;
#663 = ADVANCED_FACE ( 'NONE', ( #835 ), #233, .T. ) ;
#664 = DIRECTION ( 'NONE',  ( -1.000000000000000000, 0.000000000000000000, 0.000000000000000000 ) ) ;
#665 = SURFACE_SIDE_STYLE ('',( #183 ) ) ;
#666 = ORIENTED_EDGE ( 'NONE', *, *, #325, .T. ) ;
#667 =( GEOMETRIC_REPRESENTATION_CONTEXT ( 3 ) GLOBAL_UNCERTAINTY_ASSIGNED_CONTEXT ( ( #1032 ) ) GLOBAL_UNIT_ASSIGNED_CONTEXT ( ( #864, #795, #368 ) ) REPRESENTATION_CONTEXT ( 'NONE', 'WORKASPACE' ) );
#668 = PLANE ( 'NONE',  #677 ) ;
#669 = MECHANICAL_DESIGN_GEOMETRIC_PRESENTATION_REPRESENTATION (  '', ( #54 ), #689 ) ;
#670 = ORIENTED_EDGE ( 'NONE', *, *, #300, .F. ) ;
#671 = PRESENTATION_LAYER_ASSIGNMENT (  '', '', ( #555 ) ) ;
#672 =( LENGTH_UNIT ( ) NAMED_UNIT ( * ) SI_UNIT ( .MILLI., .METRE. ) );
#673 = DIRECTION ( 'NONE',  ( 1.000000000000000000, 0.000000000000000000, 0.000000000000000000 ) ) ;
#674 = PRESENTATION_LAYER_ASSIGNMENT (  '', '', ( #657 ) ) ;
#675 = UNCERTAINTY_MEASURE_WITH_UNIT (LENGTH_MEASURE( 1.000000000000000082E-05 ), #91, 'distance_accuracy_value', 'NONE');
#676 = AXIS2_PLACEMENT_3D ( 'NONE', #387, #127, #736 ) ;
#677 = AXIS2_PLACEMENT_3D ( 'NONE', #269, #799, #369 ) ;
#678 = EDGE_CURVE ( 'NONE', #787, #935, #330, .T. ) ;
#679 = ORIENTED_EDGE ( 'NONE', *, *, #751, .F. ) ;
#680 = SURFACE_SIDE_STYLE ('',( #340 ) ) ;
#681 = CARTESIAN_POINT ( 'NONE',  ( 0.1700000000000001232, -0.1200000000000000649, 0.2700000000000000178 ) ) ;
#682 = DIRECTION ( 'NONE',  ( 0.000000000000000000, 0.000000000000000000, 1.000000000000000000 ) ) ;
#683 =( NAMED_UNIT ( * ) SI_UNIT ( $, .STERADIAN. ) SOLID_ANGLE_UNIT ( ) );
#684 = VERTEX_POINT ( 'NONE', #600 ) ;
#685 = DIRECTION ( 'NONE',  ( 1.000000000000000000, 1.465138070926357470E-16, -0.000000000000000000 ) ) ;
#686 = CARTESIAN_POINT ( 'NONE',  ( -0.1699999999999999845, -0.1400000000000000411, 0.2700000000000000178 ) ) ;
#687 = ADVANCED_FACE ( 'NONE', ( #148 ), #486, .F. ) ;
#688 = ORIENTED_EDGE ( 'NONE', *, *, #176, .T. ) ;
#689 =( GEOMETRIC_REPRESENTATION_CONTEXT ( 3 ) GLOBAL_UNCERTAINTY_ASSIGNED_CONTEXT ( ( #1018 ) ) GLOBAL_UNIT_ASSIGNED_CONTEXT ( ( #1004, #418, #749 ) ) REPRESENTATION_CONTEXT ( 'NONE', 'WORKASPACE' ) );
#690 = DIRECTION ( 'NONE',  ( -4.517509052022934484E-16, 1.000000000000000000, -0.000000000000000000 ) ) ;
#691 = STYLED_ITEM ( 'NONE', ( #378 ), #687 ) ;
#692 = DIRECTION ( 'NONE',  ( -1.000000000000000000, 0.000000000000000000, 0.000000000000000000 ) ) ;
#693 =( LENGTH_UNIT ( ) NAMED_UNIT ( * ) SI_UNIT ( .MILLI., .METRE. ) );
#694 = DIRECTION ( 'NONE',  ( 1.000000000000000000, -1.936075308009830156E-16, 0.000000000000000000 ) ) ;
#695 = DIRECTION ( 'NONE',  ( 1.000000000000000000, 0.000000000000000000, 0.000000000000000000 ) ) ;
#696 = ORIENTED_EDGE ( 'NONE', *, *, #769, .F. ) ;
#697 =( NAMED_UNIT ( * ) SI_UNIT ( $, .STERADIAN. ) SOLID_ANGLE_UNIT ( ) );
#698 = LINE ( 'NONE', #517, #898 ) ;
#699 = UNCERTAINTY_MEASURE_WITH_UNIT (LENGTH_MEASURE( 1.000000000000000082E-05 ), #633, 'distance_accuracy_value', 'NONE');
#700 = CARTESIAN_POINT ( 'NONE',  ( -0.1499999999999999389, -0.1200000000000000233, 0.2700000000000000178 ) ) ;
#701 = SURFACE_STYLE_FILL_AREA ( #204 ) ;
#702 = VERTEX_POINT ( 'NONE', #208 ) ;
#703 = DIRECTION ( 'NONE',  ( 2.930276141852714940E-16, -1.000000000000000000, 0.000000000000000000 ) ) ;
#704 = DIRECTION ( 'NONE',  ( 1.000000000000000000, 0.000000000000000000, 0.000000000000000000 ) ) ;
#705 = CARTESIAN_POINT ( 'NONE',  ( -0.1700000000000000122, 0.1199999999999999956, 0.2500000000000000000 ) ) ;
#706 = SURFACE_STYLE_FILL_AREA ( #28 ) ;
#707 = VERTEX_POINT ( 'NONE', #948 ) ;
#708 = FILL_AREA_STYLE_COLOUR ( '', #324 ) ;
#709 = FACE_OUTER_BOUND ( 'NONE', #537, .T. ) ;
#710 = FILL_AREA_STYLE ('',( #1055 ) ) ;
#711 = VECTOR ( 'NONE', #979, 1000.000000000000000 ) ;
#712 = ORIENTED_EDGE ( 'NONE', *, *, #913, .F. ) ;
#713 = AXIS2_PLACEMENT_3D ( 'NONE', #505, #682, #1008 ) ;
#714 = ADVANCED_FACE ( 'NONE', ( #1047 ), #445, .F. ) ;
#715 =( NAMED_UNIT ( * ) SI_UNIT ( $, .STERADIAN. ) SOLID_ANGLE_UNIT ( ) );
#716 = COLOUR_RGB ( '',0.6470588235294117974, 0.6196078431372549211, 0.5882352941176470784 ) ;
#717 = MECHANICAL_DESIGN_GEOMETRIC_PRESENTATION_REPRESENTATION (  '', ( #250 ), #773 ) ;
#718 = CARTESIAN_POINT ( 'NONE',  ( 0.3300000000000000155, 0.1199999999999999956, 0.2700000000000000178 ) ) ;
#719 = DIRECTION ( 'NONE',  ( 1.000000000000000000, 0.000000000000000000, 0.000000000000000000 ) ) ;
#720 = PRESENTATION_STYLE_ASSIGNMENT (( #622 ) ) ;
#721 = LINE ( 'NONE', #718, #727 ) ;
#722 =( LENGTH_UNIT ( ) NAMED_UNIT ( * ) SI_UNIT ( .MILLI., .METRE. ) );
#723 = EDGE_CURVE ( 'NONE', #684, #993, #117, .T. ) ;
#724 = CARTESIAN_POINT ( 'NONE',  ( -0.3350000000000000200, -0.1849999999999999978, 0.2500000000000000000 ) ) ;
#725 =( GEOMETRIC_REPRESENTATION_CONTEXT ( 3 ) GLOBAL_UNCERTAINTY_ASSIGNED_CONTEXT ( ( #675 ) ) GLOBAL_UNIT_ASSIGNED_CONTEXT ( ( #91, #539, #598 ) ) REPRESENTATION_CONTEXT ( 'NONE', 'WORKASPACE' ) );
#726 = EDGE_LOOP ( 'NONE', ( #16, #1017, #521, #696, #670, #223, #424, #174 ) ) ;
#727 = VECTOR ( 'NONE', #559, 1000.000000000000000 ) ;
#728 = DIRECTION ( 'NONE',  ( 0.000000000000000000, 0.000000000000000000, 1.000000000000000000 ) ) ;
#729 = STYLED_ITEM ( 'NONE', ( #720 ), #547 ) ;
#730 = VECTOR ( 'NONE', #61, 1000.000000000000000 ) ;
#731 = VERTEX_POINT ( 'NONE', #700 ) ;
#732 = DIRECTION ( 'NONE',  ( -0.000000000000000000, -0.000000000000000000, -1.000000000000000000 ) ) ;
#733 = VERTEX_POINT ( 'NONE', #8 ) ;
#734 = PRESENTATION_LAYER_ASSIGNMENT (  '', '', ( #383 ) ) ;
#735 = DIRECTION ( 'NONE',  ( -4.517509052022934484E-16, 1.000000000000000000, -0.000000000000000000 ) ) ;
#736 = DIRECTION ( 'NONE',  ( 1.000000000000000000, 0.000000000000000000, 0.000000000000000000 ) ) ;
#737 = EDGE_LOOP ( 'NONE', ( #543, #957, #358, #656 ) ) ;
#738 = EDGE_CURVE ( 'NONE', #731, #983, #348, .T. ) ;
#739 = CARTESIAN_POINT ( 'NONE',  ( 0.1500000000000001332, -0.1200000000000000649, 0.2700000000000000178 ) ) ;
#740 = CARTESIAN_POINT ( 'NONE',  ( 0.3300000000000000155, 0.1199999999999999956, 0.2700000000000000178 ) ) ;
#741 = CARTESIAN_POINT ( 'NONE',  ( -0.3300000000000001266, 0.1199999999999999956, 0.2700000000000000178 ) ) ;
#742 = PRESENTATION_STYLE_ASSIGNMENT (( #407 ) ) ;
#743 = ORIENTED_EDGE ( 'NONE', *, *, #659, .T. ) ;
#744 = PRESENTATION_LAYER_ASSIGNMENT (  '', '', ( #651 ) ) ;
#745 =( NAMED_UNIT ( * ) PLANE_ANGLE_UNIT ( ) SI_UNIT ( $, .RADIAN. ) );
#746 =( GEOMETRIC_REPRESENTATION_CONTEXT ( 3 ) GLOBAL_UNCERTAINTY_ASSIGNED_CONTEXT ( ( #444 ) ) GLOBAL_UNIT_ASSIGNED_CONTEXT ( ( #863, #17, #97 ) ) REPRESENTATION_CONTEXT ( 'NONE', 'WORKASPACE' ) );
#747 =( LENGTH_UNIT ( ) NAMED_UNIT ( * ) SI_UNIT ( .MILLI., .METRE. ) );
#748 = PRESENTATION_STYLE_ASSIGNMENT (( #81 ) ) ;
#749 =( NAMED_UNIT ( * ) SI_UNIT ( $, .STERADIAN. ) SOLID_ANGLE_UNIT ( ) );
#750 = VERTEX_POINT ( 'NONE', #614 ) ;
#751 = EDGE_CURVE ( 'NONE', #74, #379, #872, .T. ) ;
#752 = AXIS2_PLACEMENT_3D ( 'NONE', #50, #229, #975 ) ;
#753 = DIRECTION ( 'NONE',  ( -0.000000000000000000, -0.000000000000000000, -1.000000000000000000 ) ) ;
#754 = AXIS2_PLACEMENT_3D ( 'NONE', #416, #157, #327 ) ;
#755 = CARTESIAN_POINT ( 'NONE',  ( -0.3350000000000000200, -0.1849999999999999978, 0.2500000000000000000 ) ) ;
#756 =( GEOMETRIC_REPRESENTATION_CONTEXT ( 3 ) GLOBAL_UNCERTAINTY_ASSIGNED_CONTEXT ( ( #77 ) ) GLOBAL_UNIT_ASSIGNED_CONTEXT ( ( #693, #187, #940 ) ) REPRESENTATION_CONTEXT ( 'NONE', 'WORKASPACE' ) );
#757 =( NAMED_UNIT ( * ) SI_UNIT ( $, .STERADIAN. ) SOLID_ANGLE_UNIT ( ) );
#758 = VERTEX_POINT ( 'NONE', #740 ) ;
#759 = DIRECTION ( 'NONE',  ( -1.000000000000000000, -0.000000000000000000, -0.000000000000000000 ) ) ;
#760 = CARTESIAN_POINT ( 'NONE',  ( 0.1500000000000000222, 0.1199999999999999956, 0.2700000000000000178 ) ) ;
#761 = DIRECTION ( 'NONE',  ( -0.000000000000000000, -0.000000000000000000, -1.000000000000000000 ) ) ;
#762 = UNCERTAINTY_MEASURE_WITH_UNIT (LENGTH_MEASURE( 1.000000000000000082E-05 ), #262, 'distance_accuracy_value', 'NONE');
#763 = ORIENTED_EDGE ( 'NONE', *, *, #1110, .F. ) ;
#764 = CARTESIAN_POINT ( 'NONE',  ( -0.3350000000000000755, 0.1849999999999999978, 0.000000000000000000 ) ) ;
#765 = MECHANICAL_DESIGN_GEOMETRIC_PRESENTATION_REPRESENTATION (  '', ( #423 ), #349 ) ;
#766 =( GEOMETRIC_REPRESENTATION_CONTEXT ( 3 ) GLOBAL_UNCERTAINTY_ASSIGNED_CONTEXT ( ( #454 ) ) GLOBAL_UNIT_ASSIGNED_CONTEXT ( ( #476, #1083, #109 ) ) REPRESENTATION_CONTEXT ( 'NONE', 'WORKASPACE' ) );
#767 = EDGE_CURVE ( 'NONE', #96, #733, #384, .T. ) ;
#768 = ORIENTED_EDGE ( 'NONE', *, *, #801, .F. ) ;
#769 = EDGE_CURVE ( 'NONE', #453, #983, #1003, .T. ) ;
#770 = DIRECTION ( 'NONE',  ( -0.000000000000000000, -0.000000000000000000, -1.000000000000000000 ) ) ;
#771 = DIRECTION ( 'NONE',  ( 0.000000000000000000, 0.000000000000000000, 1.000000000000000000 ) ) ;
#772 = AXIS2_PLACEMENT_3D ( 'NONE', #982, #1085, #227 ) ;
#773 =( GEOMETRIC_REPRESENTATION_CONTEXT ( 3 ) GLOBAL_UNCERTAINTY_ASSIGNED_CONTEXT ( ( #762 ) ) GLOBAL_UNIT_ASSIGNED_CONTEXT ( ( #262, #1045, #104 ) ) REPRESENTATION_CONTEXT ( 'NONE', 'WORKASPACE' ) );
#774 = ORIENTED_EDGE ( 'NONE', *, *, #541, .T. ) ;
#775 = LINE ( 'NONE', #858, #603 ) ;
#776 = EDGE_CURVE ( 'NONE', #988, #758, #63, .T. ) ;
#777 = CARTESIAN_POINT ( 'NONE',  ( -0.3300000000000000155, -0.1200000000000000511, 0.2500000000000000000 ) ) ;
#778 = DIRECTION ( 'NONE',  ( -0.000000000000000000, -0.000000000000000000, -1.000000000000000000 ) ) ;
#779 = CARTESIAN_POINT ( 'NONE',  ( 0.3349999999999999645, 0.1849999999999999978, 0.2500000000000000000 ) ) ;
#780 = ORIENTED_EDGE ( 'NONE', *, *, #751, .T. ) ;
#781 = FACE_OUTER_BOUND ( 'NONE', #154, .T. ) ;
#782 = DIRECTION ( 'NONE',  ( -1.465138070926357470E-16, 1.000000000000000000, 0.000000000000000000 ) ) ;
#783 = DIRECTION ( 'NONE',  ( -0.000000000000000000, 0.000000000000000000, -1.000000000000000000 ) ) ;
#784 = UNCERTAINTY_MEASURE_WITH_UNIT (LENGTH_MEASURE( 1.000000000000000082E-05 ), #315, 'distance_accuracy_value', 'NONE');
#785 =( NAMED_UNIT ( * ) SI_UNIT ( $, .STERADIAN. ) SOLID_ANGLE_UNIT ( ) );
#786 = AXIS2_PLACEMENT_3D ( 'NONE', #823, #413, #1005 ) ;
#787 = VERTEX_POINT ( 'NONE', #902 ) ;
#788 = PRESENTATION_STYLE_ASSIGNMENT (( #513 ) ) ;
#789 = ORIENTED_EDGE ( 'NONE', *, *, #597, .F. ) ;
#790 = CARTESIAN_POINT ( 'NONE',  ( 0.3349999999999999645, 0.1849999999999999978, 0.2500000000000000000 ) ) ;
#791 = SURFACE_STYLE_FILL_AREA ( #860 ) ;
#792 = VECTOR ( 'NONE', #333, 1000.000000000000000 ) ;
#793 = ORIENTED_EDGE ( 'NONE', *, *, #1009, .F. ) ;
#794 = DIRECTION ( 'NONE',  ( -1.000000000000000000, 0.000000000000000000, 0.000000000000000000 ) ) ;
#795 =( NAMED_UNIT ( * ) PLANE_ANGLE_UNIT ( ) SI_UNIT ( $, .RADIAN. ) );
#796 = SURFACE_STYLE_FILL_AREA ( #363 ) ;
#797 = EDGE_LOOP ( 'NONE', ( #438, #964, #1064, #743 ) ) ;
#798 = FILL_AREA_STYLE_COLOUR ( '', #322 ) ;
#799 = DIRECTION ( 'NONE',  ( 0.000000000000000000, 1.000000000000000000, 0.000000000000000000 ) ) ;
#800 = CARTESIAN_POINT ( 'NONE',  ( 0.1700000000000000400, 0.1400000000000000133, 0.2700000000000000178 ) ) ;
#801 = EDGE_CURVE ( 'NONE', #198, #472, #806, .T. ) ;
#802 = VERTEX_POINT ( 'NONE', #213 ) ;
#803 =( LENGTH_UNIT ( ) NAMED_UNIT ( * ) SI_UNIT ( .MILLI., .METRE. ) );
#804 = ORIENTED_EDGE ( 'NONE', *, *, #336, .F. ) ;
#805 = DIRECTION ( 'NONE',  ( 1.000000000000000000, 0.000000000000000000, 0.000000000000000000 ) ) ;
#806 = LINE ( 'NONE', #479, #248 ) ;
#807 = DIRECTION ( 'NONE',  ( 4.517509052022934484E-16, -1.000000000000000000, 0.000000000000000000 ) ) ;
#808 = DIRECTION ( 'NONE',  ( -4.517509052022935470E-16, 1.000000000000000000, 0.000000000000000000 ) ) ;
#809 = ORIENTED_EDGE ( 'NONE', *, *, #143, .F. ) ;
#810 = AXIS2_PLACEMENT_3D ( 'NONE', #705, #279, #436 ) ;
#811 = FACE_OUTER_BOUND ( 'NONE', #973, .T. ) ;
#812 = MANIFOLD_SOLID_BREP ( 'Boss-Extrude2', #1023 ) ;
#813 = ORIENTED_EDGE ( 'NONE', *, *, #1110, .T. ) ;
#814 = LINE ( 'NONE', #128, #494 ) ;
#815 = CARTESIAN_POINT ( 'NONE',  ( -0.3099999999999999423, -0.1200000000000000511, 0.2500000000000000000 ) ) ;
#816 = DIRECTION ( 'NONE',  ( 4.517509052022934484E-16, -1.000000000000000000, 0.000000000000000000 ) ) ;
#817 = DIRECTION ( 'NONE',  ( -1.000000000000000000, -0.000000000000000000, -0.000000000000000000 ) ) ;
#818 = ORIENTED_EDGE ( 'NONE', *, *, #776, .T. ) ;
#819 =( NAMED_UNIT ( * ) PLANE_ANGLE_UNIT ( ) SI_UNIT ( $, .RADIAN. ) );
#820 = EDGE_CURVE ( 'NONE', #935, #733, #1022, .T. ) ;
#821 = ORIENTED_EDGE ( 'NONE', *, *, #80, .T. ) ;
#822 = COLOUR_RGB ( '',0.7921568627450980005, 0.8196078431372548767, 0.9333333333333333481 ) ;
#823 = CARTESIAN_POINT ( 'NONE',  ( 0.3099999999999999978, 0.1199999999999999956, 0.2700000000000000178 ) ) ;
#824 = VECTOR ( 'NONE', #385, 1000.000000000000000 ) ;
#825 = DIRECTION ( 'NONE',  ( 1.000000000000000000, 0.000000000000000000, 0.000000000000000000 ) ) ;
#826 = VERTEX_POINT ( 'NONE', #991 ) ;
#827 = ORIENTED_EDGE ( 'NONE', *, *, #1016, .T. ) ;
#828 = APPLICATION_CONTEXT ( 'automotive_design' ) ;
#829 = CARTESIAN_POINT ( 'NONE',  ( -0.3350000000000000755, 0.1849999999999999978, 0.2500000000000000000 ) ) ;
#830 = EDGE_CURVE ( 'NONE', #421, #472, #219, .T. ) ;
#831 = VERTEX_POINT ( 'NONE', #833 ) ;
#832 = MECHANICAL_DESIGN_GEOMETRIC_PRESENTATION_REPRESENTATION (  '', ( #490 ), #667 ) ;
#833 = CARTESIAN_POINT ( 'NONE',  ( 0.3349999999999999645, 0.1849999999999999978, 0.2500000000000000000 ) ) ;
#834 = PLANE ( 'NONE',  #230 ) ;
#835 = FACE_OUTER_BOUND ( 'NONE', #350, .T. ) ;
#836 = ORIENTED_EDGE ( 'NONE', *, *, #1091, .F. ) ;
#837 = CARTESIAN_POINT ( 'NONE',  ( -0.1500000000000000222, 0.1199999999999999956, 0.2500000000000000000 ) ) ;
#838 = VECTOR ( 'NONE', #778, 1000.000000000000000 ) ;
#839 = PRESENTATION_LAYER_ASSIGNMENT (  '', '', ( #873 ) ) ;
#840 = PRESENTATION_LAYER_ASSIGNMENT (  '', '', ( #536 ) ) ;
#841 = VECTOR ( 'NONE', #761, 1000.000000000000000 ) ;
#842 = CARTESIAN_POINT ( 'NONE',  ( -0.1700000000000000122, 0.1199999999999999956, 0.2700000000000000178 ) ) ;
#843 = UNCERTAINTY_MEASURE_WITH_UNIT (LENGTH_MEASURE( 1.000000000000000082E-05 ), #672, 'distance_accuracy_value', 'NONE');
#844 = EDGE_CURVE ( 'NONE', #243, #1048, #86, .T. ) ;
#845 = FILL_AREA_STYLE ('',( #931 ) ) ;
#846 = ORIENTED_EDGE ( 'NONE', *, *, #2, .F. ) ;
#847 =( LENGTH_UNIT ( ) NAMED_UNIT ( * ) SI_UNIT ( .MILLI., .METRE. ) );
#848 = MECHANICAL_DESIGN_GEOMETRIC_PRESENTATION_REPRESENTATION (  '', ( #266 ), #652 ) ;
#849 = AXIS2_PLACEMENT_3D ( 'NONE', #31, #643, #374 ) ;
#850 = SURFACE_SIDE_STYLE ('',( #173 ) ) ;
#851 = FILL_AREA_STYLE_COLOUR ( '', #460 ) ;
#852 = LINE ( 'NONE', #1037, #166 ) ;
#853 = AXIS2_PLACEMENT_3D ( 'NONE', #815, #393, #313 ) ;
#854 = DIRECTION ( 'NONE',  ( 1.465138070926357470E-16, -1.000000000000000000, 0.000000000000000000 ) ) ;
#855 = CARTESIAN_POINT ( 'NONE',  ( 0.1700000000000000400, 0.1400000000000000133, 0.2700000000000000178 ) ) ;
#856 =( NAMED_UNIT ( * ) PLANE_ANGLE_UNIT ( ) SI_UNIT ( $, .RADIAN. ) );
#857 = EDGE_LOOP ( 'NONE', ( #1052, #64, #679, #199 ) ) ;
#858 = CARTESIAN_POINT ( 'NONE',  ( -0.3300000000000001266, 0.1199999999999999956, 0.2700000000000000178 ) ) ;
#859 = FILL_AREA_STYLE_COLOUR ( '', #937 ) ;
#860 = FILL_AREA_STYLE ('',( #532 ) ) ;
#861 = SURFACE_SIDE_STYLE ('',( #701 ) ) ;
#862 = ORIENTED_EDGE ( 'NONE', *, *, #597, .T. ) ;
#863 =( LENGTH_UNIT ( ) NAMED_UNIT ( * ) SI_UNIT ( .MILLI., .METRE. ) );
#864 =( LENGTH_UNIT ( ) NAMED_UNIT ( * ) SI_UNIT ( .MILLI., .METRE. ) );
#865 = UNCERTAINTY_MEASURE_WITH_UNIT (LENGTH_MEASURE( 1.000000000000000082E-05 ), #473, 'distance_accuracy_value', 'NONE');
#866 = FILL_AREA_STYLE ('',( #343 ) ) ;
#867 = AXIS2_PLACEMENT_3D ( 'NONE', #995, #728, #805 ) ;
#868 = ORIENTED_EDGE ( 'NONE', *, *, #568, .T. ) ;
#869 = COLOUR_RGB ( '',0.6470588235294117974, 0.6196078431372549211, 0.5882352941176470784 ) ;
#870 = AXIS2_PLACEMENT_3D ( 'NONE', #193, #881, #1039 ) ;
#871 = CARTESIAN_POINT ( 'NONE',  ( 0.1700000000000000400, 0.1199999999999999956, 0.2700000000000000178 ) ) ;
#872 = LINE ( 'NONE', #105, #711 ) ;
#873 = STYLED_ITEM ( 'NONE', ( #255 ), #136 ) ;
#874 = VECTOR ( 'NONE', #57, 1000.000000000000000 ) ;
#875 = ORIENTED_EDGE ( 'NONE', *, *, #889, .T. ) ;
#876 = FACE_OUTER_BOUND ( 'NONE', #535, .T. ) ;
#877 = ORIENTED_EDGE ( 'NONE', *, *, #1103, .T. ) ;
#878 = FILL_AREA_STYLE ('',( #859 ) ) ;
#879 = EDGE_CURVE ( 'NONE', #243, #18, #171, .T. ) ;
#880 = PRESENTATION_STYLE_ASSIGNMENT (( #540 ) ) ;
#881 = DIRECTION ( 'NONE',  ( 1.936075308009830649E-16, 1.000000000000000000, -0.000000000000000000 ) ) ;
#882 = DIRECTION ( 'NONE',  ( 4.517509052022935470E-16, -1.000000000000000000, 0.000000000000000000 ) ) ;
#883 = VERTEX_POINT ( 'NONE', #1031 ) ;
#884 =( NAMED_UNIT ( * ) PLANE_ANGLE_UNIT ( ) SI_UNIT ( $, .RADIAN. ) );
#885 = ORIENTED_EDGE ( 'NONE', *, *, #20, .T. ) ;
#886 = SURFACE_STYLE_USAGE ( .BOTH. , #636 ) ;
#887 = CARTESIAN_POINT ( 'NONE',  ( -0.3100000000000000533, 0.1399999999999999856, 0.2500000000000000000 ) ) ;
#888 = PRESENTATION_LAYER_ASSIGNMENT (  '', '', ( #570 ) ) ;
#889 = EDGE_CURVE ( 'NONE', #90, #750, #1100, .T. ) ;
#890 =( NAMED_UNIT ( * ) PLANE_ANGLE_UNIT ( ) SI_UNIT ( $, .RADIAN. ) );
#891 = VECTOR ( 'NONE', #732, 1000.000000000000000 ) ;
#892 = SURFACE_STYLE_FILL_AREA ( #900 ) ;
#893 =( NAMED_UNIT ( * ) PLANE_ANGLE_UNIT ( ) SI_UNIT ( $, .RADIAN. ) );
#894 = FILL_AREA_STYLE_COLOUR ( '', #311 ) ;
#895 = EDGE_LOOP ( 'NONE', ( #129, #666, #827, #616 ) ) ;
#896 = CIRCLE ( 'NONE', #314, 0.02000000000000005246 ) ;
#897 = PRODUCT_RELATED_PRODUCT_CATEGORY ( 'part', '', ( #220 ) ) ;
#898 = VECTOR ( 'NONE', #854, 1000.000000000000000 ) ;
#899 = CARTESIAN_POINT ( 'NONE',  ( -0.3099999999999999423, -0.1400000000000000411, 0.2500000000000000000 ) ) ;
#900 = FILL_AREA_STYLE ('',( #47 ) ) ;
#901 = ORIENTED_EDGE ( 'NONE', *, *, #134, .F. ) ;
#902 = CARTESIAN_POINT ( 'NONE',  ( -0.3300000000000001266, 0.1199999999999999956, 0.2500000000000000000 ) ) ;
#903 = CARTESIAN_POINT ( 'NONE',  ( -0.3100000000000000533, 0.1199999999999999956, 0.2700000000000000178 ) ) ;
#904 = MECHANICAL_DESIGN_GEOMETRIC_PRESENTATION_REPRESENTATION (  '', ( #549 ), #999 ) ;
#905 = VECTOR ( 'NONE', #49, 1000.000000000000000 ) ;
#906 = FILL_AREA_STYLE_COLOUR ( '', #1073 ) ;
#907 = AXIS2_PLACEMENT_3D ( 'NONE', #209, #550, #808 ) ;
#908 = ADVANCED_FACE ( 'NONE', ( #66 ), #583, .T. ) ;
#909 = PLANE ( 'NONE',  #484 ) ;
#910 = VECTOR ( 'NONE', #1078, 1000.000000000000000 ) ;
#911 = CARTESIAN_POINT ( 'NONE',  ( -0.1699999999999999845, -0.1200000000000000233, 0.2700000000000000178 ) ) ;
#912 = ORIENTED_EDGE ( 'NONE', *, *, #645, .F. ) ;
#913 = EDGE_CURVE ( 'NONE', #503, #453, #347, .T. ) ;
#914 = SURFACE_SIDE_STYLE ('',( #1108 ) ) ;
#915 = FILL_AREA_STYLE ('',( #73 ) ) ;
#916 = ORIENTED_EDGE ( 'NONE', *, *, #143, .T. ) ;
#917 = SURFACE_STYLE_USAGE ( .BOTH. , #141 ) ;
#918 = APPLICATION_PROTOCOL_DEFINITION ( 'draft international standard', 'automotive_design', 1998, #828 ) ;
#919 = CARTESIAN_POINT ( 'NONE',  ( 0.1700000000000001232, -0.1200000000000000649, 0.2700000000000000178 ) ) ;
#920 = PRESENTATION_STYLE_ASSIGNMENT (( #410 ) ) ;
#921 = DIRECTION ( 'NONE',  ( 1.000000000000000000, 0.000000000000000000, 0.000000000000000000 ) ) ;
#922 = LINE ( 'NONE', #855, #161 ) ;
#923 = CIRCLE ( 'NONE', #437, 0.01999999999999997266 ) ;
#924 = LINE ( 'NONE', #739, #286 ) ;
#925 =( NAMED_UNIT ( * ) PLANE_ANGLE_UNIT ( ) SI_UNIT ( $, .RADIAN. ) );
#926 = ORIENTED_EDGE ( 'NONE', *, *, #619, .F. ) ;
#927 = ADVANCED_BREP_SHAPE_REPRESENTATION ( 'PS140M-D32_R1_00301', ( #812, #576 ), #237 ) ;
#928 = AXIS2_PLACEMENT_3D ( 'NONE', #919, #155, #664 ) ;
#929 = CIRCLE ( 'NONE', #60, 0.02000000000000005246 ) ;
#930 = PRESENTATION_LAYER_ASSIGNMENT (  '', '', ( #989 ) ) ;
#931 = FILL_AREA_STYLE_COLOUR ( '', #375 ) ;
#932 = CARTESIAN_POINT ( 'NONE',  ( -0.1699999999999999845, -0.1400000000000000411, 0.2700000000000000178 ) ) ;
#933 =( LENGTH_UNIT ( ) NAMED_UNIT ( * ) SI_UNIT ( .MILLI., .METRE. ) );
#934 = EDGE_CURVE ( 'NONE', #526, #613, #852, .T. ) ;
#935 = VERTEX_POINT ( 'NONE', #777 ) ;
#936 = CARTESIAN_POINT ( 'NONE',  ( 0.3100000000000000533, -0.1400000000000000411, 0.2700000000000000178 ) ) ;
#937 = COLOUR_RGB ( '',0.2980392156862745057, 0.2980392156862745057, 0.2980392156862745057 ) ;
#938 = DIRECTION ( 'NONE',  ( -0.000000000000000000, -0.000000000000000000, -1.000000000000000000 ) ) ;
#939 = VECTOR ( 'NONE', #4, 1000.000000000000000 ) ;
#940 =( NAMED_UNIT ( * ) SI_UNIT ( $, .STERADIAN. ) SOLID_ANGLE_UNIT ( ) );
#941 = FILL_AREA_STYLE_COLOUR ( '', #966 ) ;
#942 = STYLED_ITEM ( 'NONE', ( #475 ), #569 ) ;
#943 = LINE ( 'NONE', #446, #510 ) ;
#944 = MECHANICAL_DESIGN_GEOMETRIC_PRESENTATION_REPRESENTATION (  '', ( #572 ), #354 ) ;
#945 = EDGE_LOOP ( 'NONE', ( #821, #273, #496, #9 ) ) ;
#946 = CYLINDRICAL_SURFACE ( 'NONE', #287, 0.01999999999999999695 ) ;
#947 = SURFACE_STYLE_USAGE ( .BOTH. , #604 ) ;
#948 = CARTESIAN_POINT ( 'NONE',  ( 0.3350000000000000755, -0.1849999999999999978, 0.2500000000000000000 ) ) ;
#949 = CARTESIAN_POINT ( 'NONE',  ( -0.3300000000000000155, -0.1200000000000000511, 0.2700000000000000178 ) ) ;
#950 = ORIENTED_EDGE ( 'NONE', *, *, #1002, .F. ) ;
#951 =( NAMED_UNIT ( * ) SI_UNIT ( $, .STERADIAN. ) SOLID_ANGLE_UNIT ( ) );
#952 = ORIENTED_EDGE ( 'NONE', *, *, #976, .T. ) ;
#953 = PLANE ( 'NONE',  #304 ) ;
#954 = PLANE ( 'NONE',  #362 ) ;
#955 =( LENGTH_UNIT ( ) NAMED_UNIT ( * ) SI_UNIT ( .MILLI., .METRE. ) );
#956 = DIRECTION ( 'NONE',  ( 1.000000000000000000, -1.936075308009830649E-16, 0.000000000000000000 ) ) ;
#957 = ORIENTED_EDGE ( 'NONE', *, *, #366, .F. ) ;
#958 =( NAMED_UNIT ( * ) PLANE_ANGLE_UNIT ( ) SI_UNIT ( $, .RADIAN. ) );
#959 = CYLINDRICAL_SURFACE ( 'NONE', #391, 0.02000000000000002470 ) ;
#960 = COLOUR_RGB ( '',0.6470588235294117974, 0.6196078431372549211, 0.5882352941176470784 ) ;
#961 =( LENGTH_UNIT ( ) NAMED_UNIT ( * ) SI_UNIT ( .MILLI., .METRE. ) );
#962 = SURFACE_SIDE_STYLE ('',( #281 ) ) ;
#963 = MECHANICAL_DESIGN_GEOMETRIC_PRESENTATION_REPRESENTATION (  '', ( #13 ), #511 ) ;
#964 = ORIENTED_EDGE ( 'NONE', *, *, #844, .F. ) ;
#965 = FILL_AREA_STYLE ('',( #798 ) ) ;
#966 = COLOUR_RGB ( '',0.6470588235294117974, 0.6196078431372549211, 0.5882352941176470784 ) ;
#967 = ORIENTED_EDGE ( 'NONE', *, *, #325, .F. ) ;
#968 = FACE_OUTER_BOUND ( 'NONE', #621, .T. ) ;
#969 = CARTESIAN_POINT ( 'NONE',  ( 0.1500000000000000222, 0.1199999999999999956, 0.2500000000000000000 ) ) ;
#970 =( NAMED_UNIT ( * ) PLANE_ANGLE_UNIT ( ) SI_UNIT ( $, .RADIAN. ) );
#971 = STYLED_ITEM ( 'NONE', ( #548 ), #130 ) ;
#972 = ORIENTED_EDGE ( 'NONE', *, *, #76, .F. ) ;
#973 = EDGE_LOOP ( 'NONE', ( #916, #926, #1109, #3 ) ) ;
#974 = DIRECTION ( 'NONE',  ( -1.000000000000000000, 0.000000000000000000, 0.000000000000000000 ) ) ;
#975 = DIRECTION ( 'NONE',  ( 4.517509052022935470E-16, -1.000000000000000000, 0.000000000000000000 ) ) ;
#976 = EDGE_CURVE ( 'NONE', #379, #243, #382, .T. ) ;
#977 = PLANE ( 'NONE',  #907 ) ;
#978 = SURFACE_STYLE_USAGE ( .BOTH. , #381 ) ;
#979 = DIRECTION ( 'NONE',  ( -1.000000000000000000, 1.936075308009829910E-16, -0.000000000000000000 ) ) ;
#980 = PRESENTATION_LAYER_ASSIGNMENT (  '', '', ( #615 ) ) ;
#981 = PLANE ( 'NONE',  #467 ) ;
#982 = CARTESIAN_POINT ( 'NONE',  ( -0.3099999999999999423, -0.1200000000000000511, 0.2700000000000000178 ) ) ;
#983 = VERTEX_POINT ( 'NONE', #5 ) ;
#984 = CARTESIAN_POINT ( 'NONE',  ( -0.3350000000000000755, 0.1849999999999999978, 0.2500000000000000000 ) ) ;
#985 = CIRCLE ( 'NONE', #641, 0.02000000000000005246 ) ;
#986 = FILL_AREA_STYLE ('',( #640 ) ) ;
#987 = CARTESIAN_POINT ( 'NONE',  ( -0.1700000000000000122, 0.1199999999999999956, 0.2700000000000000178 ) ) ;
#988 = VERTEX_POINT ( 'NONE', #515 ) ;
#989 = STYLED_ITEM ( 'NONE', ( #644 ), #1053 ) ;
#990 =( NAMED_UNIT ( * ) PLANE_ANGLE_UNIT ( ) SI_UNIT ( $, .RADIAN. ) );
#991 = CARTESIAN_POINT ( 'NONE',  ( -0.3350000000000000755, 0.1849999999999999978, 0.2500000000000000000 ) ) ;
#992 = ORIENTED_EDGE ( 'NONE', *, *, #738, .F. ) ;
#993 = VERTEX_POINT ( 'NONE', #887 ) ;
#994 = ADVANCED_FACE ( 'NONE', ( #42 ), #981, .F. ) ;
#995 = CARTESIAN_POINT ( 'NONE',  ( 0.3100000000000000533, -0.1200000000000000649, 0.2500000000000000000 ) ) ;
#996 =( NAMED_UNIT ( * ) PLANE_ANGLE_UNIT ( ) SI_UNIT ( $, .RADIAN. ) );
#997 = CARTESIAN_POINT ( 'NONE',  ( 0.3300000000000000155, 0.1199999999999999956, 0.2700000000000000178 ) ) ;
#998 = ORIENTED_EDGE ( 'NONE', *, *, #1051, .T. ) ;
#999 =( GEOMETRIC_REPRESENTATION_CONTEXT ( 3 ) GLOBAL_UNCERTAINTY_ASSIGNED_CONTEXT ( ( #1046 ) ) GLOBAL_UNIT_ASSIGNED_CONTEXT ( ( #371, #970, #785 ) ) REPRESENTATION_CONTEXT ( 'NONE', 'WORKASPACE' ) );
#1000 = ORIENTED_EDGE ( 'NONE', *, *, #70, .T. ) ;
#1001 = VECTOR ( 'NONE', #1071, 1000.000000000000000 ) ;
#1002 = EDGE_CURVE ( 'NONE', #331, #456, #151, .T. ) ;
#1003 = CIRCLE ( 'NONE', #398, 0.02000000000000005246 ) ;
#1004 =( LENGTH_UNIT ( ) NAMED_UNIT ( * ) SI_UNIT ( .MILLI., .METRE. ) );
#1005 = DIRECTION ( 'NONE',  ( -1.000000000000000000, 0.000000000000000000, 0.000000000000000000 ) ) ;
#1006 = MECHANICAL_DESIGN_GEOMETRIC_PRESENTATION_REPRESENTATION (  '', ( #989 ), #247 ) ;
#1007 = SHAPE_DEFINITION_REPRESENTATION ( #319, #927 ) ;
#1008 = DIRECTION ( 'NONE',  ( 1.000000000000000000, 0.000000000000000000, 0.000000000000000000 ) ) ;
#1009 = EDGE_CURVE ( 'NONE', #472, #802, #1101, .T. ) ;
#1010 = DIRECTION ( 'NONE',  ( -1.000000000000000000, 0.000000000000000000, 0.000000000000000000 ) ) ;
#1011 =( LENGTH_UNIT ( ) NAMED_UNIT ( * ) SI_UNIT ( .MILLI., .METRE. ) );
#1012 =( NAMED_UNIT ( * ) SI_UNIT ( $, .STERADIAN. ) SOLID_ANGLE_UNIT ( ) );
#1013 = FILL_AREA_STYLE_COLOUR ( '', #41 ) ;
#1014 = DIRECTION ( 'NONE',  ( 1.000000000000000000, -1.936075308009830649E-16, 0.000000000000000000 ) ) ;
#1015 = FILL_AREA_STYLE_COLOUR ( '', #960 ) ;
#1016 = EDGE_CURVE ( 'NONE', #826, #90, #488, .T. ) ;
#1017 = ORIENTED_EDGE ( 'NONE', *, *, #1035, .F. ) ;
#1018 = UNCERTAINTY_MEASURE_WITH_UNIT (LENGTH_MEASURE( 1.000000000000000082E-05 ), #1004, 'distance_accuracy_value', 'NONE');
#1019 = FILL_AREA_STYLE ('',( #78 ) ) ;
#1020 = ORIENTED_EDGE ( 'NONE', *, *, #571, .F. ) ;
#1021 = ADVANCED_FACE ( 'NONE', ( #332 ), #668, .F. ) ;
#1022 = CIRCLE ( 'NONE', #853, 0.01999999999999999695 ) ;
#1023 = CLOSED_SHELL ( 'NONE', ( #170, #470, #630, #283, #1021, #156, #405, #714, #261, #569, #908, #687, #136, #1053, #1040, #457, #994, #547, #294, #483, #130, #663, #162, #372 ) ) ;
#1024 = DIRECTION ( 'NONE',  ( -0.000000000000000000, -0.000000000000000000, -1.000000000000000000 ) ) ;
#1025 = CARTESIAN_POINT ( 'NONE',  ( -0.3100000000000000533, 0.1399999999999999856, 0.2700000000000000178 ) ) ;
#1026 = FACE_OUTER_BOUND ( 'NONE', #1088, .T. ) ;
#1027 = ORIENTED_EDGE ( 'NONE', *, *, #830, .T. ) ;
#1028 = CARTESIAN_POINT ( 'NONE',  ( -0.3099999999999999423, -0.1200000000000000511, 0.2700000000000000178 ) ) ;
#1029 = EDGE_CURVE ( 'NONE', #702, #750, #698, .T. ) ;
#1030 = PRESENTATION_STYLE_ASSIGNMENT (( #449 ) ) ;
#1031 = CARTESIAN_POINT ( 'NONE',  ( 0.3100000000000000533, -0.1400000000000000411, 0.2700000000000000178 ) ) ;
#1032 = UNCERTAINTY_MEASURE_WITH_UNIT (LENGTH_MEASURE( 1.000000000000000082E-05 ), #864, 'distance_accuracy_value', 'NONE');
#1033 = FACE_OUTER_BOUND ( 'NONE', #895, .T. ) ;
#1034 = VERTEX_POINT ( 'NONE', #432 ) ;
#1035 = EDGE_CURVE ( 'NONE', #456, #613, #339, .T. ) ;
#1036 = PRESENTATION_LAYER_ASSIGNMENT (  '', '', ( #423 ) ) ;
#1037 = CARTESIAN_POINT ( 'NONE',  ( -0.1700000000000000122, 0.1399999999999999856, 0.2700000000000000178 ) ) ;
#1038 =( GEOMETRIC_REPRESENTATION_CONTEXT ( 3 ) GLOBAL_UNCERTAINTY_ASSIGNED_CONTEXT ( ( #699 ) ) GLOBAL_UNIT_ASSIGNED_CONTEXT ( ( #633, #884, #465 ) ) REPRESENTATION_CONTEXT ( 'NONE', 'WORKASPACE' ) );
#1039 = DIRECTION ( 'NONE',  ( -1.000000000000000000, 1.936075308009830649E-16, 0.000000000000000000 ) ) ;
#1040 = ADVANCED_FACE ( 'NONE', ( #34 ), #954, .F. ) ;
#1041 = SURFACE_STYLE_USAGE ( .BOTH. , #861 ) ;
#1042 = ORIENTED_EDGE ( 'NONE', *, *, #76, .T. ) ;
#1043 =( GEOMETRIC_REPRESENTATION_CONTEXT ( 3 ) GLOBAL_UNCERTAINTY_ASSIGNED_CONTEXT ( ( #524 ) ) GLOBAL_UNIT_ASSIGNED_CONTEXT ( ( #955, #288, #357 ) ) REPRESENTATION_CONTEXT ( 'NONE', 'WORKASPACE' ) );
#1044 = MECHANICAL_DESIGN_GEOMETRIC_PRESENTATION_REPRESENTATION (  '', ( #971 ), #21 ) ;
#1045 =( NAMED_UNIT ( * ) PLANE_ANGLE_UNIT ( ) SI_UNIT ( $, .RADIAN. ) );
#1046 = UNCERTAINTY_MEASURE_WITH_UNIT (LENGTH_MEASURE( 1.000000000000000082E-05 ), #371, 'distance_accuracy_value', 'NONE');
#1047 = FACE_OUTER_BOUND ( 'NONE', #857, .T. ) ;
#1048 = VERTEX_POINT ( 'NONE', #969 ) ;
#1049 = CARTESIAN_POINT ( 'NONE',  ( -0.1499999999999999389, -0.1200000000000000233, 0.2700000000000000178 ) ) ;
#1050 = LINE ( 'NONE', #779, #264 ) ;
#1051 = EDGE_CURVE ( 'NONE', #831, #623, #443, .T. ) ;
#1052 = ORIENTED_EDGE ( 'NONE', *, *, #353, .T. ) ;
#1053 = ADVANCED_FACE ( 'NONE', ( #116 ), #553, .F. ) ;
#1054 = FACE_OUTER_BOUND ( 'NONE', #389, .T. ) ;
#1055 = FILL_AREA_STYLE_COLOUR ( '', #169 ) ;
#1056 = UNCERTAINTY_MEASURE_WITH_UNIT (LENGTH_MEASURE( 1.000000000000000082E-05 ), #803, 'distance_accuracy_value', 'NONE');
#1057 = COLOUR_RGB ( '',0.6470588235294117974, 0.6196078431372549211, 0.5882352941176470784 ) ;
#1058 = ORIENTED_EDGE ( 'NONE', *, *, #1051, .F. ) ;
#1059 = CIRCLE ( 'NONE', #37, 0.01999999999999999695 ) ;
#1060 = FILL_AREA_STYLE ('',( #708 ) ) ;
#1061 = EDGE_LOOP ( 'NONE', ( #249, #809, #804, #188, #793, #567, #271, #846 ) ) ;
#1062 = CIRCLE ( 'NONE', #772, 0.01999999999999999695 ) ;
#1063 = ORIENTED_EDGE ( 'NONE', *, *, #434, .T. ) ;
#1064 = ORIENTED_EDGE ( 'NONE', *, *, #976, .F. ) ;
#1065 = DIRECTION ( 'NONE',  ( -4.517509052022934484E-16, 1.000000000000000000, -0.000000000000000000 ) ) ;
#1066 = LINE ( 'NONE', #468, #397 ) ;
#1067 = DIRECTION ( 'NONE',  ( -4.517509052022934484E-16, 1.000000000000000000, -0.000000000000000000 ) ) ;
#1068 =( NAMED_UNIT ( * ) PLANE_ANGLE_UNIT ( ) SI_UNIT ( $, .RADIAN. ) );
#1069 = LINE ( 'NONE', #53, #653 ) ;
#1070 = VERTEX_POINT ( 'NONE', #545 ) ;
#1071 = DIRECTION ( 'NONE',  ( 1.000000000000000000, 0.000000000000000000, 0.000000000000000000 ) ) ;
#1072 = SURFACE_STYLE_FILL_AREA ( #135 ) ;
#1073 = COLOUR_RGB ( '',0.2980392156862745057, 0.2980392156862745057, 0.2980392156862745057 ) ;
#1074 = LINE ( 'NONE', #52, #499 ) ;
#1075 = SURFACE_STYLE_USAGE ( .BOTH. , #206 ) ;
#1076 = DIRECTION ( 'NONE',  ( -1.000000000000000000, -0.000000000000000000, -0.000000000000000000 ) ) ;
#1077 = DIRECTION ( 'NONE',  ( 0.000000000000000000, 0.000000000000000000, 1.000000000000000000 ) ) ;
#1078 = DIRECTION ( 'NONE',  ( -0.000000000000000000, -0.000000000000000000, -1.000000000000000000 ) ) ;
#1079 = CARTESIAN_POINT ( 'NONE',  ( 0.1500000000000001332, -0.1200000000000000649, 0.2700000000000000178 ) ) ;
#1080 = MECHANICAL_DESIGN_GEOMETRIC_PRESENTATION_REPRESENTATION (  '', ( #383 ), #500 ) ;
#1081 = FILL_AREA_STYLE ('',( #941 ) ) ;
#1082 = ORIENTED_EDGE ( 'NONE', *, *, #723, .T. ) ;
#1083 =( NAMED_UNIT ( * ) PLANE_ANGLE_UNIT ( ) SI_UNIT ( $, .RADIAN. ) );
#1084 =( NAMED_UNIT ( * ) SI_UNIT ( $, .STERADIAN. ) SOLID_ANGLE_UNIT ( ) );
#1085 = DIRECTION ( 'NONE',  ( 0.000000000000000000, 0.000000000000000000, 1.000000000000000000 ) ) ;
#1086 = MECHANICAL_DESIGN_GEOMETRIC_PRESENTATION_REPRESENTATION (  '', ( #1087 ), #725 ) ;
#1087 = STYLED_ITEM ( 'NONE', ( #12 ), #294 ) ;
#1088 = EDGE_LOOP ( 'NONE', ( #441, #36, #972, #43 ) ) ;
#1089 = PLANE ( 'NONE',  #321 ) ;
#1090 = PRESENTATION_LAYER_ASSIGNMENT (  '', '', ( #942 ) ) ;
#1091 = EDGE_CURVE ( 'NONE', #503, #731, #985, .T. ) ;
#1092 = VECTOR ( 'NONE', #65, 1000.000000000000000 ) ;
#1093 = PLANE ( 'NONE',  #83 ) ;
#1094 = VECTOR ( 'NONE', #1024, 1000.000000000000000 ) ;
#1095 = CARTESIAN_POINT ( 'NONE',  ( 0.1500000000000001332, -0.1200000000000000649, 0.2500000000000000000 ) ) ;
#1096 =( NAMED_UNIT ( * ) SI_UNIT ( $, .STERADIAN. ) SOLID_ANGLE_UNIT ( ) );
#1097 = DIRECTION ( 'NONE',  ( -1.000000000000000000, 0.000000000000000000, 0.000000000000000000 ) ) ;
#1098 = ORIENTED_EDGE ( 'NONE', *, *, #244, .F. ) ;
#1099 = PRESENTATION_STYLE_ASSIGNMENT (( #234 ) ) ;
#1100 = LINE ( 'NONE', #755, #144 ) ;
#1101 = LINE ( 'NONE', #415, #428 ) ;
#1102 = DIRECTION ( 'NONE',  ( -0.000000000000000000, -0.000000000000000000, -1.000000000000000000 ) ) ;
#1103 = EDGE_CURVE ( 'NONE', #526, #684, #463, .T. ) ;
#1104 = ORIENTED_EDGE ( 'NONE', *, *, #46, .F. ) ;
#1105 = COLOUR_RGB ( '',0.2980392156862745057, 0.2980392156862745057, 0.2980392156862745057 ) ;
#1106 = PRESENTATION_LAYER_ASSIGNMENT (  '', '', ( #115 ) ) ;
#1107 =( GEOMETRIC_REPRESENTATION_CONTEXT ( 3 ) GLOBAL_UNCERTAINTY_ASSIGNED_CONTEXT ( ( #22 ) ) GLOBAL_UNIT_ASSIGNED_CONTEXT ( ( #847, #958, #951 ) ) REPRESENTATION_CONTEXT ( 'NONE', 'WORKASPACE' ) );
#1108 = SURFACE_STYLE_FILL_AREA ( #1019 ) ;
#1109 = ORIENTED_EDGE ( 'NONE', *, *, #70, .F. ) ;
#1110 = EDGE_CURVE ( 'NONE', #731, #331, #1066, .T. ) ;
#1111 = CARTESIAN_POINT ( 'NONE',  ( -0.1700000000000000122, 0.1399999999999999856, 0.2700000000000000178 ) ) ;
ENDSEC;
END-ISO-10303-21;
