%TF.GenerationSoftware,KiCad,Pcbnew,9.0.8*%
%TF.CreationDate,2026-07-12T16:09:37-07:00*%
%TF.ProjectId,Ready_to_Move_Lights_2,52656164-795f-4746-9f5f-4d6f76655f4c,rev?*%
%TF.SameCoordinates,Original*%
%TF.FileFunction,Paste,Top*%
%TF.FilePolarity,Positive*%
%FSLAX46Y46*%
G04 Gerber Fmt 4.6, Leading zero omitted, Abs format (unit mm)*
G04 Created by KiCad (PCBNEW 9.0.8) date 2026-07-12 16:09:37*
%MOMM*%
%LPD*%
G01*
G04 APERTURE LIST*
G04 Aperture macros list*
%AMRoundRect*
0 Rectangle with rounded corners*
0 $1 Rounding radius*
0 $2 $3 $4 $5 $6 $7 $8 $9 X,Y pos of 4 corners*
0 Add a 4 corners polygon primitive as box body*
4,1,4,$2,$3,$4,$5,$6,$7,$8,$9,$2,$3,0*
0 Add four circle primitives for the rounded corners*
1,1,$1+$1,$2,$3*
1,1,$1+$1,$4,$5*
1,1,$1+$1,$6,$7*
1,1,$1+$1,$8,$9*
0 Add four rect primitives between the rounded corners*
20,1,$1+$1,$2,$3,$4,$5,0*
20,1,$1+$1,$4,$5,$6,$7,0*
20,1,$1+$1,$6,$7,$8,$9,0*
20,1,$1+$1,$8,$9,$2,$3,0*%
G04 Aperture macros list end*
%ADD10RoundRect,0.200000X-0.200000X-0.275000X0.200000X-0.275000X0.200000X0.275000X-0.200000X0.275000X0*%
%ADD11RoundRect,0.200000X0.200000X0.275000X-0.200000X0.275000X-0.200000X-0.275000X0.200000X-0.275000X0*%
%ADD12RoundRect,0.225000X0.250000X-0.225000X0.250000X0.225000X-0.250000X0.225000X-0.250000X-0.225000X0*%
%ADD13RoundRect,0.150000X0.825000X0.150000X-0.825000X0.150000X-0.825000X-0.150000X0.825000X-0.150000X0*%
%ADD14RoundRect,0.225000X0.225000X0.250000X-0.225000X0.250000X-0.225000X-0.250000X0.225000X-0.250000X0*%
%ADD15RoundRect,0.250000X-0.475000X0.250000X-0.475000X-0.250000X0.475000X-0.250000X0.475000X0.250000X0*%
%ADD16R,1.651000X0.431800*%
%ADD17RoundRect,0.225000X-0.225000X-0.250000X0.225000X-0.250000X0.225000X0.250000X-0.225000X0.250000X0*%
%ADD18R,1.600000X3.500000*%
%ADD19R,12.200000X9.750000*%
%ADD20R,1.003300X0.457200*%
%ADD21RoundRect,0.250000X0.312500X0.625000X-0.312500X0.625000X-0.312500X-0.625000X0.312500X-0.625000X0*%
%ADD22R,1.200000X0.600000*%
%ADD23R,1.701800X1.295400*%
%ADD24RoundRect,0.218750X-0.218750X-0.256250X0.218750X-0.256250X0.218750X0.256250X-0.218750X0.256250X0*%
G04 APERTURE END LIST*
D10*
%TO.C,R6*%
X144336000Y-87630000D03*
X145986000Y-87630000D03*
%TD*%
D11*
%TO.C,R8*%
X121475000Y-93980000D03*
X119825000Y-93980000D03*
%TD*%
D12*
%TO.C,C11*%
X132362500Y-95175000D03*
X132362500Y-93625000D03*
%TD*%
D11*
%TO.C,R1*%
X141350000Y-125730000D03*
X139700000Y-125730000D03*
%TD*%
D13*
%TO.C,U3*%
X125600000Y-87630000D03*
X125600000Y-86360000D03*
X125600000Y-85090000D03*
X125600000Y-83820000D03*
X120650000Y-83820000D03*
X120650000Y-85090000D03*
X120650000Y-86360000D03*
X120650000Y-87630000D03*
%TD*%
D14*
%TO.C,C13*%
X124460000Y-89750900D03*
X122910000Y-89750900D03*
%TD*%
D10*
%TO.C,R4*%
X137147800Y-96570800D03*
X138797800Y-96570800D03*
%TD*%
D14*
%TO.C,C3*%
X128550000Y-62672000D03*
X127000000Y-62672000D03*
%TD*%
D15*
%TO.C,C12*%
X128270000Y-81920000D03*
X128270000Y-83820000D03*
%TD*%
D16*
%TO.C,U2*%
X124460000Y-110045000D03*
X124460000Y-118495000D03*
X124460000Y-119145002D03*
X124460000Y-119795000D03*
X124460000Y-120444999D03*
X124460000Y-121095000D03*
X134162800Y-121095000D03*
X134162800Y-120444999D03*
X134162800Y-115244999D03*
X134162800Y-114595001D03*
X134162800Y-113944999D03*
X134162800Y-113295001D03*
X134162800Y-112645000D03*
X134162800Y-111995001D03*
X134162800Y-110045000D03*
%TD*%
D17*
%TO.C,C7*%
X116560000Y-112535000D03*
X118110000Y-112535000D03*
%TD*%
D18*
%TO.C,CR2*%
X120650000Y-58977000D03*
D19*
X123190000Y-48702000D03*
D18*
X125730000Y-58977000D03*
%TD*%
D12*
%TO.C,C10*%
X134902500Y-96940000D03*
X134902500Y-95390000D03*
%TD*%
D20*
%TO.C,U1*%
X138372850Y-120945021D03*
X138372850Y-121595007D03*
X138372850Y-122244993D03*
X138372850Y-122894979D03*
X141027150Y-122894979D03*
X141027150Y-122244993D03*
X141027150Y-121595007D03*
X141027150Y-120945021D03*
%TD*%
D17*
%TO.C,C5*%
X120370000Y-121920000D03*
X121920000Y-121920000D03*
%TD*%
D21*
%TO.C,R7*%
X119380000Y-74930000D03*
X116455000Y-74930000D03*
%TD*%
D17*
%TO.C,C2*%
X118110000Y-62672000D03*
X119660000Y-62672000D03*
%TD*%
D10*
%TO.C,R2*%
X142240000Y-96520000D03*
X143890000Y-96520000D03*
%TD*%
D22*
%TO.C,IC1*%
X137120000Y-93305000D03*
X137120000Y-92355000D03*
X137120000Y-91405000D03*
X134620000Y-91405000D03*
X134620000Y-93305000D03*
%TD*%
D14*
%TO.C,C4*%
X128550000Y-65212000D03*
X127000000Y-65212000D03*
%TD*%
D11*
%TO.C,R11*%
X131635000Y-74930000D03*
X129985000Y-74930000D03*
%TD*%
D10*
%TO.C,R10*%
X123635000Y-77470000D03*
X125285000Y-77470000D03*
%TD*%
D23*
%TO.C,K1*%
X141820900Y-87630000D03*
X141820900Y-80010000D03*
X132499100Y-80010000D03*
X132499100Y-87630000D03*
%TD*%
D14*
%TO.C,C8*%
X138710000Y-113000000D03*
X137160000Y-113000000D03*
%TD*%
D10*
%TO.C,R5*%
X137160000Y-99060000D03*
X138810000Y-99060000D03*
%TD*%
D14*
%TO.C,C9*%
X138710000Y-110490000D03*
X137160000Y-110490000D03*
%TD*%
D12*
%TO.C,C1*%
X142777150Y-120650000D03*
X142777150Y-119100000D03*
%TD*%
D10*
%TO.C,R9*%
X124015000Y-93980000D03*
X125665000Y-93980000D03*
%TD*%
D24*
%TO.C,D1*%
X117805000Y-80010000D03*
X119380000Y-80010000D03*
%TD*%
D11*
%TO.C,R3*%
X143915000Y-99060000D03*
X142265000Y-99060000D03*
%TD*%
D17*
%TO.C,C6*%
X120370000Y-120155000D03*
X121920000Y-120155000D03*
%TD*%
M02*
