%TF.GenerationSoftware,KiCad,Pcbnew,9.0.8*%
%TF.CreationDate,2026-07-12T16:09:37-07:00*%
%TF.ProjectId,Ready_to_Move_Lights_2,52656164-795f-4746-9f5f-4d6f76655f4c,rev?*%
%TF.SameCoordinates,Original*%
%TF.FileFunction,Soldermask,Bot*%
%TF.FilePolarity,Negative*%
%FSLAX46Y46*%
G04 Gerber Fmt 4.6, Leading zero omitted, Abs format (unit mm)*
G04 Created by KiCad (PCBNEW 9.0.8) date 2026-07-12 16:09:37*
%MOMM*%
%LPD*%
G01*
G04 APERTURE LIST*
G04 Aperture macros list*
%AMRoundRect*
0 Rectangle with rounded corners*
0 $1 Rounding radius*
0 $2 $3 $4 $5 $6 $7 $8 $9 X,Y pos of 4 corners*
0 Add a 4 corners polygon primitive as box body*
4,1,4,$2,$3,$4,$5,$6,$7,$8,$9,$2,$3,0*
0 Add four circle primitives for the rounded corners*
1,1,$1+$1,$2,$3*
1,1,$1+$1,$4,$5*
1,1,$1+$1,$6,$7*
1,1,$1+$1,$8,$9*
0 Add four rect primitives between the rounded corners*
20,1,$1+$1,$2,$3,$4,$5,0*
20,1,$1+$1,$4,$5,$6,$7,0*
20,1,$1+$1,$6,$7,$8,$9,0*
20,1,$1+$1,$8,$9,$2,$3,0*%
G04 Aperture macros list end*
%ADD10C,3.200000*%
%ADD11C,2.700000*%
%ADD12C,1.303000*%
%ADD13C,2.400000*%
%ADD14RoundRect,0.249999X0.850001X0.850001X-0.850001X0.850001X-0.850001X-0.850001X0.850001X-0.850001X0*%
%ADD15C,2.200000*%
%ADD16R,1.905000X2.000000*%
%ADD17O,1.905000X2.000000*%
%ADD18C,2.490000*%
%ADD19C,2.184000*%
G04 APERTURE END LIST*
D10*
%TO.C,*%
X101600000Y-44450000D03*
%TD*%
%TO.C,*%
X101600000Y-127000000D03*
%TD*%
D11*
%TO.C,J2*%
X110870000Y-63500000D03*
X110870000Y-67500000D03*
X110870000Y-71500000D03*
X106870000Y-65500000D03*
X106870000Y-69500000D03*
X102870000Y-63500000D03*
X102870000Y-67500000D03*
X102870000Y-71500000D03*
%TD*%
D12*
%TO.C,PS1*%
X129540000Y-100990000D03*
X127000000Y-100990000D03*
X124460000Y-100990000D03*
X121920000Y-100990000D03*
%TD*%
%TO.C,VR1*%
X141827500Y-57135000D03*
X139287500Y-54595000D03*
X136747500Y-57135000D03*
%TD*%
D10*
%TO.C,*%
X147320000Y-44450000D03*
%TD*%
%TO.C,*%
X147320000Y-127000000D03*
%TD*%
D13*
%TO.C,RED_TP1*%
X139700000Y-45720000D03*
%TD*%
D14*
%TO.C,D2*%
X146050000Y-74930000D03*
D15*
X135890000Y-74930000D03*
%TD*%
D16*
%TO.C,Q1*%
X128270000Y-71120000D03*
D17*
X130810000Y-71120000D03*
X133350000Y-71120000D03*
%TD*%
D18*
%TO.C,J1*%
X105410000Y-96520000D03*
X105410000Y-118110000D03*
D19*
X111440000Y-102870000D03*
X111440000Y-105410000D03*
X108900000Y-102870000D03*
X108900000Y-105410000D03*
X106360000Y-102870000D03*
X106360000Y-105410000D03*
X103820000Y-102870000D03*
X103820000Y-105410000D03*
X111440000Y-109220000D03*
X111440000Y-111760000D03*
X108900000Y-109220000D03*
X108900000Y-111760000D03*
X106360000Y-109220000D03*
X106360000Y-111760000D03*
X103820000Y-109220000D03*
X103820000Y-111760000D03*
%TD*%
M02*
