M48
; DRILL file {KiCad 9.0.8} date 2026-07-12T16:09:50-0700
; FORMAT={-:-/ absolute / metric / decimal}
; #@! TF.CreationDate,2026-07-12T16:09:50-07:00
; #@! TF.GenerationSoftware,Kicad,Pcbnew,9.0.8
; #@! TF.FileFunction,Plated,1,2,PTH
FMAT,2
METRIC
; #@! TA.AperFunction,Plated,PTH,ViaDrill
T1C0.300
; #@! TA.AperFunction,Plated,PTH,ComponentDrill
T2C0.760
; #@! TA.AperFunction,Plated,PTH,ComponentDrill
T3C1.100
; #@! TA.AperFunction,Plated,PTH,ComponentDrill
T4C1.320
; #@! TA.AperFunction,Plated,PTH,ComponentDrill
T5C1.600
; #@! TA.AperFunction,Plated,PTH,ComponentDrill
T6C1.850
%
G90
G05
T1
X114.3Y-69.85
X116.84Y-66.04
X116.84Y-104.14
X116.84Y-109.22
X118.11Y-81.28
X118.11Y-83.82
X118.11Y-85.09
X120.65Y-91.44
X121.92Y-82.55
X121.92Y-107.95
X121.92Y-116.84
X123.19Y-91.44
X124.46Y-66.04
X125.73Y-81.28
X128.27Y-85.09
X129.964Y-86.784
X130.81Y-64.77
X130.81Y-92.71
X132.08Y-55.88
X132.08Y-60.96
X132.08Y-90.17
X132.08Y-107.95
X133.35Y-74.93
X133.35Y-99.06
X135.89Y-77.47
X135.89Y-115.57
X135.89Y-118.11
X137.16Y-107.95
X137.16Y-121.92
X137.16Y-124.46
X137.16Y-125.73
X138.43Y-77.47
X138.43Y-92.71
X138.43Y-101.6
X139.7Y-95.25
X139.7Y-102.87
X139.7Y-114.3
X142.24Y-101.6
X142.24Y-104.14
X143.51Y-78.74
T2
X121.92Y-100.99
X124.46Y-100.99
X127.0Y-100.99
X129.54Y-100.99
X136.748Y-57.135
X139.287Y-54.595
X141.827Y-57.135
T3
X128.27Y-71.12
X130.81Y-71.12
X133.35Y-71.12
X135.89Y-74.93
X146.05Y-74.93
T4
X103.82Y-102.87
X103.82Y-105.41
X103.82Y-109.22
X103.82Y-111.76
X106.36Y-102.87
X106.36Y-105.41
X106.36Y-109.22
X106.36Y-111.76
X108.9Y-102.87
X108.9Y-105.41
X108.9Y-109.22
X108.9Y-111.76
X111.44Y-102.87
X111.44Y-105.41
X111.44Y-109.22
X111.44Y-111.76
T5
X139.7Y-45.72
T6
X102.87Y-63.5
X102.87Y-67.5
X102.87Y-71.5
X106.87Y-65.5
X106.87Y-69.5
X110.87Y-63.5
X110.87Y-67.5
X110.87Y-71.5
M30
