%TF.GenerationSoftware,KiCad,Pcbnew,10.0.1*%
%TF.CreationDate,2026-09-07T23:57:41-07:00*%
%TF.ProjectId,TSSI_v2.1,54535349-5f76-4322-9e31-2e6b69636164,rev?*%
%TF.SameCoordinates,Original*%
%TF.FileFunction,Copper,L2,Bot*%
%TF.FilePolarity,Positive*%
%FSLAX46Y46*%
G04 Gerber Fmt 4.6, Leading zero omitted, Abs format (unit mm)*
G04 Created by KiCad (PCBNEW 10.0.1) date 2026-09-07 23:57:41*
%MOMM*%
%LPD*%
G01*
G04 APERTURE LIST*
%TA.AperFunction,ComponentPad*%
%ADD10C,2.260600*%
%TD*%
%TA.AperFunction,ComponentPad*%
%ADD11O,1.900000X1.200000*%
%TD*%
%TA.AperFunction,ComponentPad*%
%ADD12C,1.450000*%
%TD*%
%TA.AperFunction,ComponentPad*%
%ADD13C,1.550000*%
%TD*%
%TA.AperFunction,ViaPad*%
%ADD14C,0.600000*%
%TD*%
%TA.AperFunction,Conductor*%
%ADD15C,0.200000*%
%TD*%
%TA.AperFunction,Conductor*%
%ADD16C,0.500000*%
%TD*%
G04 APERTURE END LIST*
D10*
%TO.P,J1,1,1_1*%
%TO.N,+12V*%
X171600000Y-84800000D03*
%TO.P,J1,2,2_2*%
%TO.N,GND*%
X167600000Y-84800000D03*
%TO.P,J1,3,3_3*%
%TO.N,/IMD_FAULT*%
X163600001Y-84800000D03*
%TO.P,J1,4,4_4*%
%TO.N,/BMS_FAULT*%
X159600001Y-84800000D03*
%TO.P,J1,5,5_5*%
%TO.N,+12V*%
X155600001Y-84800000D03*
%TO.P,J1,6,6_6*%
%TO.N,/GreenGND*%
X169599999Y-80800000D03*
%TO.P,J1,7,7_7*%
%TO.N,+12V*%
X165599999Y-80800000D03*
%TO.P,J1,8,8_8*%
%TO.N,/RedGND*%
X161600000Y-80800000D03*
%TO.P,J1,9,9_9*%
%TO.N,/LAMP_TEST*%
X157600000Y-80800000D03*
%TO.P,J1,10,10_10*%
%TO.N,GND*%
X171600000Y-76800000D03*
%TO.P,J1,11,11_11*%
X167600000Y-76800000D03*
%TO.P,J1,12,12_12*%
X163600001Y-76800000D03*
%TO.P,J1,13,13_13*%
X159600001Y-76800000D03*
%TO.P,J1,14,14_14*%
X155600001Y-76800000D03*
%TD*%
D11*
%TO.P,J3,SH,Shield_SH*%
%TO.N,GND*%
X193337500Y-113600000D03*
D12*
X190637500Y-112600000D03*
X190637500Y-107600000D03*
D11*
X193337500Y-106600000D03*
%TD*%
D13*
%TO.P,J4,6,6_6*%
%TO.N,/GPIO39*%
X121660000Y-116980000D03*
%TO.P,J4,5,5_5*%
%TO.N,+3.3V*%
X124200000Y-116980000D03*
%TO.P,J4,4,4_4*%
%TO.N,/GPIO44{slash}UORXD*%
X121660000Y-114440000D03*
%TO.P,J4,3,3_3*%
%TO.N,GND*%
X124200000Y-114440000D03*
%TO.P,J4,2,2_2*%
%TO.N,/GPIO43{slash}UOTXD*%
X121660000Y-111900000D03*
%TO.P,J4,1,1_1*%
%TO.N,/GPIO38*%
X124200000Y-111900000D03*
%TD*%
D14*
%TO.N,GND*%
X185100000Y-110400000D03*
X186800000Y-108200000D03*
%TO.N,/GPIO39*%
X161500000Y-116300000D03*
X160200000Y-116300000D03*
%TO.N,/GPIO44{slash}UORXD*%
X164500000Y-118400000D03*
X158400000Y-107400000D03*
%TO.N,/GPIO43{slash}UOTXD*%
X161000000Y-112300000D03*
X157600000Y-108400000D03*
%TO.N,/GPIO38*%
X161500000Y-114200000D03*
X156600000Y-108800000D03*
%TO.N,/BMS_FAULT*%
X176300000Y-109900000D03*
X175900000Y-123100000D03*
X158300000Y-120300000D03*
X158200000Y-125100000D03*
%TO.N,/IMD_FAULT*%
X177700000Y-109900000D03*
X177800000Y-121600000D03*
X146600000Y-123500000D03*
%TO.N,/LAMP_TEST*%
X179200000Y-109750002D03*
X179200000Y-119900000D03*
X138300000Y-123400000D03*
%TO.N,/RED*%
X163300000Y-106200000D03*
%TO.N,GND*%
X182700000Y-113800000D03*
%TO.N,/GREEN*%
X168800000Y-105400000D03*
%TO.N,/LAMP_CHECK*%
X169900000Y-106700000D03*
X167200000Y-110000000D03*
X166900000Y-122400000D03*
X133200000Y-123000000D03*
%TO.N,/BMS_CHECK*%
X151700000Y-120900000D03*
X175100000Y-106600000D03*
%TO.N,/IMD_CHECK*%
X182500000Y-118700000D03*
X142200000Y-121100000D03*
%TO.N,GND*%
X184000000Y-116300000D03*
X179100000Y-106600000D03*
X174000000Y-106500000D03*
%TO.N,+3.3V*%
X188600000Y-119100000D03*
X188300000Y-108200000D03*
%TO.N,GND*%
X177100000Y-98400000D03*
X175600000Y-100700000D03*
X173100000Y-75800000D03*
X167700000Y-75200000D03*
X163600000Y-75200000D03*
X159600000Y-74900000D03*
X153800000Y-75800000D03*
X183000000Y-103300000D03*
%TO.N,/ENABLE*%
X184800000Y-104300000D03*
X185200000Y-114200000D03*
%TO.N,GND*%
X182800000Y-106700000D03*
X189200000Y-108500000D03*
X185300000Y-126200000D03*
X174000000Y-119200000D03*
X170700000Y-118500000D03*
X171000000Y-116300000D03*
X173300000Y-116100000D03*
X175700000Y-116400000D03*
X175800000Y-118500000D03*
X175500000Y-120600000D03*
X173300000Y-120900000D03*
X171000000Y-120800000D03*
X178400000Y-126300000D03*
X161300000Y-126300000D03*
%TO.N,+3.3V*%
X162800000Y-104800000D03*
X164800000Y-104900000D03*
%TO.N,GND*%
X127800000Y-114500000D03*
%TO.N,Net-(D1-K)*%
X127300000Y-91600000D03*
X122000000Y-90800000D03*
%TO.N,GND*%
X148500000Y-109200000D03*
X183700000Y-100700000D03*
X193300000Y-105000000D03*
X165900000Y-83500000D03*
X138300000Y-89700000D03*
X167500000Y-90600000D03*
X193400000Y-115000000D03*
X189000000Y-113700000D03*
X162300000Y-90700000D03*
X167600000Y-100200000D03*
X189000000Y-107100000D03*
X189700000Y-100000000D03*
X127700000Y-102500000D03*
X171600000Y-97200000D03*
X186700000Y-92500000D03*
X187000000Y-119100000D03*
X174325000Y-103200000D03*
X166900000Y-98300000D03*
X125300000Y-82500000D03*
X162700000Y-94800000D03*
X137800000Y-79300000D03*
X130500000Y-109600000D03*
X131100000Y-91100000D03*
X139700000Y-109300000D03*
X185700000Y-124000000D03*
%TO.N,/GreenGND*%
X166700000Y-87700000D03*
%TO.N,/IMD_FAULT*%
X169700000Y-86200000D03*
X176800000Y-91300000D03*
X172800000Y-86400000D03*
%TO.N,/BMS_FAULT*%
X154900000Y-109800000D03*
%TO.N,/GREEN*%
X167500000Y-96100000D03*
%TO.N,/RED*%
X160200000Y-96100000D03*
%TD*%
%TO.N,/ENABLE*%
D15*
X187600000Y-107100000D02*
X184800000Y-104300000D01*
X187600000Y-111800000D02*
X187600000Y-107100000D01*
X185200000Y-114200000D02*
X187600000Y-111800000D01*
%TO.N,/GPIO39*%
X160200000Y-116300000D02*
X161500000Y-116300000D01*
%TO.N,/GPIO44{slash}UORXD*%
X164500000Y-113500000D02*
X164500000Y-118400000D01*
X158400000Y-107400000D02*
X164500000Y-113500000D01*
%TO.N,/GPIO43{slash}UOTXD*%
X161000000Y-111800000D02*
X161000000Y-112300000D01*
X157600000Y-108400000D02*
X161000000Y-111800000D01*
%TO.N,/GPIO38*%
X156600000Y-108800000D02*
X161500000Y-113700000D01*
X161500000Y-113700000D02*
X161500000Y-114200000D01*
%TO.N,/BMS_FAULT*%
X175900000Y-100151471D02*
X175900000Y-83900000D01*
X176300000Y-109900000D02*
X176300000Y-100551471D01*
X176300000Y-100551471D02*
X175900000Y-100151471D01*
X175400000Y-123600000D02*
X175900000Y-123100000D01*
X160100000Y-123600000D02*
X175400000Y-123600000D01*
X160100000Y-123800000D02*
X160100000Y-123600000D01*
X158800000Y-125100000D02*
X160100000Y-123800000D01*
X158200000Y-125100000D02*
X158800000Y-125100000D01*
X158300000Y-113200000D02*
X158300000Y-120300000D01*
X154900000Y-109800000D02*
X158300000Y-113200000D01*
%TO.N,/IMD_FAULT*%
X176500000Y-124500000D02*
X177800000Y-123200000D01*
X147400000Y-125700000D02*
X159200000Y-125700000D01*
X177800000Y-123200000D02*
X177800000Y-121600000D01*
X146600000Y-124900000D02*
X147400000Y-125700000D01*
X146600000Y-123500000D02*
X146600000Y-124900000D01*
X159200000Y-125700000D02*
X160400000Y-124500000D01*
X160400000Y-124500000D02*
X176500000Y-124500000D01*
%TO.N,/LAMP_TEST*%
X160800000Y-125600000D02*
X177000000Y-125600000D01*
X177000000Y-125600000D02*
X179200000Y-123400000D01*
X138500000Y-126700000D02*
X159700000Y-126700000D01*
X179200000Y-123400000D02*
X179200000Y-119900000D01*
X138300000Y-126500000D02*
X138500000Y-126700000D01*
X159700000Y-126700000D02*
X160800000Y-125600000D01*
X138300000Y-123400000D02*
X138300000Y-126500000D01*
%TO.N,/IMD_FAULT*%
X177700000Y-92200000D02*
X176800000Y-91300000D01*
X177700000Y-109900000D02*
X177700000Y-92200000D01*
%TO.N,/LAMP_TEST*%
X159600000Y-78800000D02*
X157600000Y-80800000D01*
X172000000Y-78800000D02*
X159600000Y-78800000D01*
X181200000Y-88000000D02*
X172000000Y-78800000D01*
X181200000Y-107750002D02*
X181200000Y-88000000D01*
X179200000Y-109750002D02*
X181200000Y-107750002D01*
%TO.N,/LAMP_CHECK*%
X133400000Y-122800000D02*
X166500000Y-122800000D01*
X133200000Y-123000000D02*
X133400000Y-122800000D01*
X166500000Y-122800000D02*
X166900000Y-122400000D01*
%TO.N,/RED*%
X162800000Y-106200000D02*
X160200000Y-103600000D01*
X163300000Y-106200000D02*
X162800000Y-106200000D01*
X160200000Y-103600000D02*
X160200000Y-96100000D01*
%TO.N,/GREEN*%
X168800000Y-97400000D02*
X167500000Y-96100000D01*
X168800000Y-105400000D02*
X168800000Y-97400000D01*
%TO.N,/BMS_CHECK*%
X167800000Y-116200000D02*
X167800000Y-113900000D01*
X164200000Y-119800000D02*
X167800000Y-116200000D01*
X162000000Y-119800000D02*
X164200000Y-119800000D01*
X160900000Y-120900000D02*
X162000000Y-119800000D01*
X151700000Y-120900000D02*
X160900000Y-120900000D01*
%TO.N,/LAMP_CHECK*%
X167600000Y-106700000D02*
X169900000Y-106700000D01*
X167200000Y-110000000D02*
X167200000Y-107100000D01*
X167200000Y-107100000D02*
X167600000Y-106700000D01*
%TO.N,/IMD_CHECK*%
X179500000Y-118700000D02*
X182500000Y-118700000D01*
X176700000Y-121500000D02*
X179500000Y-118700000D01*
X142600000Y-121500000D02*
X176700000Y-121500000D01*
X142200000Y-121100000D02*
X142600000Y-121500000D01*
%TO.N,+3.3V*%
X188300000Y-117000000D02*
X188600000Y-117300000D01*
X188600000Y-117300000D02*
X188600000Y-119100000D01*
X188300000Y-108200000D02*
X188300000Y-117000000D01*
X164800000Y-104900000D02*
X164700000Y-104800000D01*
X164700000Y-104800000D02*
X162800000Y-104800000D01*
%TO.N,Net-(D1-K)*%
D16*
X126500000Y-90800000D02*
X122000000Y-90800000D01*
X127300000Y-91600000D02*
X126500000Y-90800000D01*
%TO.N,/GreenGND*%
X170100000Y-81300001D02*
X169599999Y-80800000D01*
X166934882Y-87700000D02*
X166700000Y-87700000D01*
X170100000Y-82400000D02*
X169180300Y-83319700D01*
X170100000Y-82400000D02*
X170100000Y-81300001D01*
X169180300Y-83319700D02*
X169180300Y-85454582D01*
X169180300Y-85454582D02*
X166934882Y-87700000D01*
%TO.N,/IMD_FAULT*%
D15*
X172800000Y-86400000D02*
X169900000Y-86400000D01*
X169900000Y-86400000D02*
X169700000Y-86200000D01*
%TO.N,/BMS_FAULT*%
X160500000Y-84800000D02*
X162600000Y-82700000D01*
X159600001Y-84800000D02*
X160500000Y-84800000D01*
X168230300Y-79369700D02*
X171369700Y-79369700D01*
X171369700Y-79369700D02*
X175900000Y-83900000D01*
X167900000Y-79700000D02*
X168230300Y-79369700D01*
X167900000Y-82100000D02*
X167900000Y-79700000D01*
X167300000Y-82700000D02*
X167900000Y-82100000D01*
X162600000Y-82700000D02*
X167300000Y-82700000D01*
%TO.N,/BMS_CHECK*%
X175100000Y-106600000D02*
X167800000Y-113900000D01*
%TD*%
%TA.AperFunction,Conductor*%
%TO.N,GND*%
G36*
X123724755Y-114636853D02*
G01*
X123791898Y-114753147D01*
X123886853Y-114848102D01*
X124003147Y-114915245D01*
X124062425Y-114931128D01*
X123491975Y-115501576D01*
X123531754Y-115530478D01*
X123666696Y-115599234D01*
X123717492Y-115647208D01*
X123734287Y-115715029D01*
X123711750Y-115781164D01*
X123666697Y-115820203D01*
X123531493Y-115889093D01*
X123445922Y-115951265D01*
X123369068Y-116007103D01*
X123369066Y-116007105D01*
X123369065Y-116007105D01*
X123227105Y-116149065D01*
X123227105Y-116149066D01*
X123227103Y-116149068D01*
X123176423Y-116218822D01*
X123109095Y-116311491D01*
X123040485Y-116446146D01*
X122992510Y-116496942D01*
X122924689Y-116513737D01*
X122858554Y-116491199D01*
X122819515Y-116446146D01*
X122785224Y-116378846D01*
X122750905Y-116311492D01*
X122632897Y-116149068D01*
X122490932Y-116007103D01*
X122328508Y-115889095D01*
X122193852Y-115820484D01*
X122143057Y-115772510D01*
X122126262Y-115704689D01*
X122148799Y-115638555D01*
X122193853Y-115599515D01*
X122328508Y-115530905D01*
X122490932Y-115412897D01*
X122632897Y-115270932D01*
X122750905Y-115108508D01*
X122819795Y-114973302D01*
X122867769Y-114922507D01*
X122935590Y-114905712D01*
X123001725Y-114928249D01*
X123040765Y-114973303D01*
X123109522Y-115108246D01*
X123138422Y-115148022D01*
X123138423Y-115148023D01*
X123708871Y-114577574D01*
X123724755Y-114636853D01*
G37*
%TD.AperFunction*%
%TA.AperFunction,Conductor*%
G36*
X123001445Y-112388799D02*
G01*
X123040484Y-112433852D01*
X123109095Y-112568508D01*
X123227103Y-112730932D01*
X123369068Y-112872897D01*
X123531492Y-112990905D01*
X123601789Y-113026723D01*
X123666696Y-113059795D01*
X123717492Y-113107770D01*
X123734287Y-113175591D01*
X123711750Y-113241726D01*
X123666697Y-113280764D01*
X123531757Y-113349520D01*
X123491976Y-113378422D01*
X124062425Y-113948871D01*
X124003147Y-113964755D01*
X123886853Y-114031898D01*
X123791898Y-114126853D01*
X123724755Y-114243147D01*
X123708871Y-114302425D01*
X123138422Y-113731976D01*
X123109520Y-113771757D01*
X123040764Y-113906697D01*
X122992790Y-113957492D01*
X122924969Y-113974287D01*
X122858834Y-113951749D01*
X122819795Y-113906696D01*
X122782892Y-113834270D01*
X122750905Y-113771492D01*
X122632897Y-113609068D01*
X122490932Y-113467103D01*
X122328508Y-113349095D01*
X122193852Y-113280484D01*
X122143057Y-113232510D01*
X122126262Y-113164689D01*
X122148799Y-113098555D01*
X122193853Y-113059515D01*
X122328508Y-112990905D01*
X122490932Y-112872897D01*
X122632897Y-112730932D01*
X122750905Y-112568508D01*
X122819515Y-112433852D01*
X122867490Y-112383057D01*
X122935311Y-112366262D01*
X123001445Y-112388799D01*
G37*
%TD.AperFunction*%
%TA.AperFunction,Conductor*%
G36*
X194442539Y-74120185D02*
G01*
X194488294Y-74172989D01*
X194499500Y-74224500D01*
X194499500Y-105586914D01*
X194479815Y-105653953D01*
X194427011Y-105699708D01*
X194357853Y-105709652D01*
X194302616Y-105687233D01*
X194264027Y-105659197D01*
X194109757Y-105580591D01*
X193945084Y-105527085D01*
X193774071Y-105500000D01*
X193587500Y-105500000D01*
X193587500Y-106300000D01*
X193087500Y-106300000D01*
X193087500Y-105500000D01*
X192900929Y-105500000D01*
X192729915Y-105527085D01*
X192565242Y-105580591D01*
X192410975Y-105659195D01*
X192270897Y-105760967D01*
X192148467Y-105883397D01*
X192046695Y-106023475D01*
X191968091Y-106177744D01*
X191914585Y-106342415D01*
X191913384Y-106349999D01*
X191913385Y-106350000D01*
X192820512Y-106350000D01*
X192803295Y-106359940D01*
X192747440Y-106415795D01*
X192707944Y-106484204D01*
X192687500Y-106560504D01*
X192687500Y-106639496D01*
X192707944Y-106715796D01*
X192747440Y-106784205D01*
X192803295Y-106840060D01*
X192820512Y-106850000D01*
X191913385Y-106850000D01*
X191914585Y-106857584D01*
X191921437Y-106878670D01*
X191923432Y-106948511D01*
X191887352Y-107008344D01*
X191824651Y-107039172D01*
X191755237Y-107031207D01*
X191701148Y-106986979D01*
X191693022Y-106973284D01*
X191685214Y-106957960D01*
X191663281Y-106927771D01*
X191663280Y-106927771D01*
X191059225Y-107531826D01*
X191033537Y-107435956D01*
X190977584Y-107339044D01*
X190898456Y-107259916D01*
X190801544Y-107203963D01*
X190705672Y-107178274D01*
X191309727Y-106574218D01*
X191309727Y-106574217D01*
X191279543Y-106552288D01*
X191172114Y-106497550D01*
X191107737Y-106464747D01*
X191107734Y-106464746D01*
X190924356Y-106405164D01*
X190733909Y-106375000D01*
X190541091Y-106375000D01*
X190350643Y-106405164D01*
X190167265Y-106464746D01*
X190167262Y-106464747D01*
X189995455Y-106552288D01*
X189995450Y-106552292D01*
X189965271Y-106574216D01*
X189965271Y-106574219D01*
X190569328Y-107178274D01*
X190473456Y-107203963D01*
X190376544Y-107259916D01*
X190297416Y-107339044D01*
X190241463Y-107435956D01*
X190215774Y-107531827D01*
X189611719Y-106927771D01*
X189611716Y-106927771D01*
X189589792Y-106957950D01*
X189589788Y-106957955D01*
X189502247Y-107129762D01*
X189502246Y-107129765D01*
X189442664Y-107313143D01*
X189412500Y-107503590D01*
X189412500Y-107696409D01*
X189442664Y-107886856D01*
X189502246Y-108070234D01*
X189502247Y-108070237D01*
X189589788Y-108242043D01*
X189611717Y-108272227D01*
X189611718Y-108272227D01*
X190215774Y-107668171D01*
X190241463Y-107764044D01*
X190297416Y-107860956D01*
X190376544Y-107940084D01*
X190473456Y-107996037D01*
X190569327Y-108021725D01*
X189965271Y-108625780D01*
X189965271Y-108625781D01*
X189995457Y-108647712D01*
X190167262Y-108735252D01*
X190167265Y-108735253D01*
X190350643Y-108794835D01*
X190541091Y-108825000D01*
X190733909Y-108825000D01*
X190924356Y-108794835D01*
X191107734Y-108735253D01*
X191107737Y-108735252D01*
X191279540Y-108647713D01*
X191309727Y-108625780D01*
X191309728Y-108625780D01*
X190705673Y-108021725D01*
X190801544Y-107996037D01*
X190898456Y-107940084D01*
X190977584Y-107860956D01*
X191033537Y-107764044D01*
X191059225Y-107668173D01*
X191663280Y-108272228D01*
X191663280Y-108272227D01*
X191685213Y-108242040D01*
X191772752Y-108070237D01*
X191772753Y-108070234D01*
X191832335Y-107886856D01*
X191862500Y-107696409D01*
X191862500Y-107503590D01*
X191832336Y-107313146D01*
X191819404Y-107273345D01*
X191817409Y-107203503D01*
X191853489Y-107143670D01*
X191916190Y-107112842D01*
X191985604Y-107120806D01*
X192039693Y-107165035D01*
X192044074Y-107172419D01*
X192044151Y-107172373D01*
X192046689Y-107176516D01*
X192148467Y-107316602D01*
X192270897Y-107439032D01*
X192410975Y-107540804D01*
X192565242Y-107619408D01*
X192729915Y-107672914D01*
X192900929Y-107700000D01*
X193087500Y-107700000D01*
X193087500Y-106900000D01*
X193587500Y-106900000D01*
X193587500Y-107700000D01*
X193774071Y-107700000D01*
X193945084Y-107672914D01*
X194109757Y-107619408D01*
X194264025Y-107540803D01*
X194302614Y-107512767D01*
X194368420Y-107489287D01*
X194436474Y-107505112D01*
X194485169Y-107555218D01*
X194499500Y-107613085D01*
X194499500Y-112586914D01*
X194479815Y-112653953D01*
X194427011Y-112699708D01*
X194357853Y-112709652D01*
X194302616Y-112687233D01*
X194264027Y-112659197D01*
X194109757Y-112580591D01*
X193945084Y-112527085D01*
X193774071Y-112500000D01*
X193587500Y-112500000D01*
X193587500Y-113300000D01*
X193087500Y-113300000D01*
X193087500Y-112500000D01*
X192900929Y-112500000D01*
X192729915Y-112527085D01*
X192565242Y-112580591D01*
X192410975Y-112659195D01*
X192270897Y-112760967D01*
X192148467Y-112883397D01*
X192046689Y-113023483D01*
X192044151Y-113027627D01*
X192042676Y-113026723D01*
X191999819Y-113072079D01*
X191931993Y-113088858D01*
X191865864Y-113066304D01*
X191822426Y-113011578D01*
X191815471Y-112942055D01*
X191819404Y-112926654D01*
X191832336Y-112886853D01*
X191862500Y-112696409D01*
X191862500Y-112503590D01*
X191832335Y-112313143D01*
X191772753Y-112129765D01*
X191772752Y-112129762D01*
X191685212Y-111957957D01*
X191663281Y-111927771D01*
X191663280Y-111927771D01*
X191059225Y-112531826D01*
X191033537Y-112435956D01*
X190977584Y-112339044D01*
X190898456Y-112259916D01*
X190801544Y-112203963D01*
X190705672Y-112178274D01*
X191309727Y-111574218D01*
X191309727Y-111574217D01*
X191279543Y-111552288D01*
X191107737Y-111464747D01*
X191107734Y-111464746D01*
X190924356Y-111405164D01*
X190733909Y-111375000D01*
X190541091Y-111375000D01*
X190350643Y-111405164D01*
X190167265Y-111464746D01*
X190167262Y-111464747D01*
X189995455Y-111552288D01*
X189995450Y-111552292D01*
X189965271Y-111574216D01*
X189965271Y-111574219D01*
X190569328Y-112178274D01*
X190473456Y-112203963D01*
X190376544Y-112259916D01*
X190297416Y-112339044D01*
X190241463Y-112435956D01*
X190215774Y-112531827D01*
X189611719Y-111927771D01*
X189611716Y-111927771D01*
X189589792Y-111957950D01*
X189589788Y-111957955D01*
X189502247Y-112129762D01*
X189502246Y-112129765D01*
X189442664Y-112313143D01*
X189412500Y-112503590D01*
X189412500Y-112696409D01*
X189442664Y-112886856D01*
X189502246Y-113070234D01*
X189502247Y-113070237D01*
X189589788Y-113242043D01*
X189611717Y-113272227D01*
X189611718Y-113272227D01*
X190215774Y-112668171D01*
X190241463Y-112764044D01*
X190297416Y-112860956D01*
X190376544Y-112940084D01*
X190473456Y-112996037D01*
X190569327Y-113021725D01*
X189965271Y-113625780D01*
X189965271Y-113625781D01*
X189995457Y-113647712D01*
X190167262Y-113735252D01*
X190167265Y-113735253D01*
X190350643Y-113794835D01*
X190541091Y-113825000D01*
X190733909Y-113825000D01*
X190924356Y-113794835D01*
X191107734Y-113735253D01*
X191107737Y-113735251D01*
X191172115Y-113702450D01*
X191279540Y-113647713D01*
X191309727Y-113625780D01*
X191309728Y-113625780D01*
X190705673Y-113021725D01*
X190801544Y-112996037D01*
X190898456Y-112940084D01*
X190977584Y-112860956D01*
X191033537Y-112764044D01*
X191059225Y-112668173D01*
X191663280Y-113272228D01*
X191663280Y-113272227D01*
X191685213Y-113242041D01*
X191693018Y-113226722D01*
X191740991Y-113175924D01*
X191808812Y-113159127D01*
X191874947Y-113181662D01*
X191918400Y-113236376D01*
X191925375Y-113305896D01*
X191921437Y-113321329D01*
X191914585Y-113342416D01*
X191913384Y-113349999D01*
X191913385Y-113350000D01*
X192820512Y-113350000D01*
X192803295Y-113359940D01*
X192747440Y-113415795D01*
X192707944Y-113484204D01*
X192687500Y-113560504D01*
X192687500Y-113639496D01*
X192707944Y-113715796D01*
X192747440Y-113784205D01*
X192803295Y-113840060D01*
X192820512Y-113850000D01*
X191913385Y-113850000D01*
X191914585Y-113857584D01*
X191968091Y-114022255D01*
X192046695Y-114176524D01*
X192148467Y-114316602D01*
X192270897Y-114439032D01*
X192410975Y-114540804D01*
X192565242Y-114619408D01*
X192729915Y-114672914D01*
X192900929Y-114700000D01*
X193087500Y-114700000D01*
X193087500Y-113900000D01*
X193587500Y-113900000D01*
X193587500Y-114700000D01*
X193774071Y-114700000D01*
X193945084Y-114672914D01*
X194109757Y-114619408D01*
X194264025Y-114540803D01*
X194302614Y-114512767D01*
X194368420Y-114489287D01*
X194436474Y-114505112D01*
X194485169Y-114555218D01*
X194499500Y-114613085D01*
X194499500Y-126675500D01*
X194479815Y-126742539D01*
X194427011Y-126788294D01*
X194375500Y-126799500D01*
X160749097Y-126799500D01*
X160682058Y-126779815D01*
X160636303Y-126727011D01*
X160626359Y-126657853D01*
X160655384Y-126594297D01*
X160661416Y-126587819D01*
X161012416Y-126236819D01*
X161073739Y-126203334D01*
X161100097Y-126200500D01*
X176913331Y-126200500D01*
X176913347Y-126200501D01*
X176920943Y-126200501D01*
X177079054Y-126200501D01*
X177079057Y-126200501D01*
X177231785Y-126159577D01*
X177281904Y-126130639D01*
X177368716Y-126080520D01*
X177480520Y-125968716D01*
X177480520Y-125968714D01*
X177490728Y-125958507D01*
X177490730Y-125958504D01*
X179558506Y-123890728D01*
X179558511Y-123890724D01*
X179568714Y-123880520D01*
X179568716Y-123880520D01*
X179680520Y-123768716D01*
X179682254Y-123765713D01*
X190449500Y-123765713D01*
X190449500Y-123978287D01*
X190482754Y-124188243D01*
X190548056Y-124389222D01*
X190548444Y-124390414D01*
X190644951Y-124579820D01*
X190769890Y-124751786D01*
X190920213Y-124902109D01*
X191092179Y-125027048D01*
X191092181Y-125027049D01*
X191092184Y-125027051D01*
X191281588Y-125123557D01*
X191483757Y-125189246D01*
X191693713Y-125222500D01*
X191693714Y-125222500D01*
X191906286Y-125222500D01*
X191906287Y-125222500D01*
X192116243Y-125189246D01*
X192318412Y-125123557D01*
X192507816Y-125027051D01*
X192573879Y-124979054D01*
X192679786Y-124902109D01*
X192679788Y-124902106D01*
X192679792Y-124902104D01*
X192830104Y-124751792D01*
X192830106Y-124751788D01*
X192830109Y-124751786D01*
X192955048Y-124579820D01*
X192955047Y-124579820D01*
X192955051Y-124579816D01*
X193051557Y-124390412D01*
X193117246Y-124188243D01*
X193150500Y-123978287D01*
X193150500Y-123765713D01*
X193117246Y-123555757D01*
X193051557Y-123353588D01*
X192955051Y-123164184D01*
X192955049Y-123164181D01*
X192955048Y-123164179D01*
X192830109Y-122992213D01*
X192679786Y-122841890D01*
X192507820Y-122716951D01*
X192318414Y-122620444D01*
X192318413Y-122620443D01*
X192318412Y-122620443D01*
X192116243Y-122554754D01*
X192116241Y-122554753D01*
X192116240Y-122554753D01*
X191954957Y-122529208D01*
X191906287Y-122521500D01*
X191693713Y-122521500D01*
X191645042Y-122529208D01*
X191483760Y-122554753D01*
X191281585Y-122620444D01*
X191092179Y-122716951D01*
X190920213Y-122841890D01*
X190769890Y-122992213D01*
X190644951Y-123164179D01*
X190548444Y-123353585D01*
X190482753Y-123555760D01*
X190454602Y-123733501D01*
X190449500Y-123765713D01*
X179682254Y-123765713D01*
X179733781Y-123676465D01*
X179759577Y-123631785D01*
X179800501Y-123479057D01*
X179800501Y-123320943D01*
X179800501Y-123313348D01*
X179800500Y-123313330D01*
X179800500Y-120479765D01*
X179820185Y-120412726D01*
X179821398Y-120410874D01*
X179909390Y-120279185D01*
X179909390Y-120279184D01*
X179909394Y-120279179D01*
X179969737Y-120133497D01*
X180000500Y-119978842D01*
X180000500Y-119821158D01*
X180000500Y-119821155D01*
X180000499Y-119821153D01*
X179980734Y-119721789D01*
X179969737Y-119666503D01*
X179946452Y-119610288D01*
X179909397Y-119520827D01*
X179909389Y-119520812D01*
X179891067Y-119493392D01*
X179870188Y-119426715D01*
X179888672Y-119359334D01*
X179940650Y-119312644D01*
X179994168Y-119300500D01*
X181920234Y-119300500D01*
X181987273Y-119320185D01*
X181989125Y-119321398D01*
X182120814Y-119409390D01*
X182120827Y-119409397D01*
X182173673Y-119431286D01*
X182266503Y-119469737D01*
X182385424Y-119493392D01*
X182421153Y-119500499D01*
X182421156Y-119500500D01*
X182421158Y-119500500D01*
X182578844Y-119500500D01*
X182578845Y-119500499D01*
X182733497Y-119469737D01*
X182879179Y-119409394D01*
X183010289Y-119321789D01*
X183121789Y-119210289D01*
X183209394Y-119079179D01*
X183210061Y-119077570D01*
X183223067Y-119046166D01*
X183269737Y-118933497D01*
X183300500Y-118778842D01*
X183300500Y-118621158D01*
X183300500Y-118621155D01*
X183300499Y-118621153D01*
X183269738Y-118466510D01*
X183269737Y-118466503D01*
X183209532Y-118321153D01*
X183209397Y-118320827D01*
X183209390Y-118320814D01*
X183121789Y-118189711D01*
X183121786Y-118189707D01*
X183010292Y-118078213D01*
X183010288Y-118078210D01*
X182879185Y-117990609D01*
X182879172Y-117990602D01*
X182733501Y-117930264D01*
X182733489Y-117930261D01*
X182578845Y-117899500D01*
X182578842Y-117899500D01*
X182421158Y-117899500D01*
X182421155Y-117899500D01*
X182266510Y-117930261D01*
X182266498Y-117930264D01*
X182120827Y-117990602D01*
X182120814Y-117990609D01*
X181989125Y-118078602D01*
X181922447Y-118099480D01*
X181920234Y-118099500D01*
X179586669Y-118099500D01*
X179586653Y-118099499D01*
X179579057Y-118099499D01*
X179420943Y-118099499D01*
X179306397Y-118130192D01*
X179268214Y-118140423D01*
X179230753Y-118162052D01*
X179230752Y-118162052D01*
X179131287Y-118219477D01*
X179131282Y-118219481D01*
X179029950Y-118320814D01*
X179019480Y-118331284D01*
X179019478Y-118331286D01*
X177740473Y-119610292D01*
X176487584Y-120863181D01*
X176426261Y-120896666D01*
X176399903Y-120899500D01*
X162049097Y-120899500D01*
X161982058Y-120879815D01*
X161936303Y-120827011D01*
X161926359Y-120757853D01*
X161955384Y-120694297D01*
X161961416Y-120687819D01*
X162212416Y-120436819D01*
X162273739Y-120403334D01*
X162300097Y-120400500D01*
X164113331Y-120400500D01*
X164113347Y-120400501D01*
X164120943Y-120400501D01*
X164279054Y-120400501D01*
X164279057Y-120400501D01*
X164431785Y-120359577D01*
X164494211Y-120323535D01*
X164568716Y-120280520D01*
X164680520Y-120168716D01*
X164680520Y-120168714D01*
X164690724Y-120158511D01*
X164690728Y-120158506D01*
X168168713Y-116680521D01*
X168168716Y-116680520D01*
X168280520Y-116568716D01*
X168330639Y-116481904D01*
X168359577Y-116431785D01*
X168400501Y-116279057D01*
X168400501Y-116120943D01*
X168400501Y-116113348D01*
X168400500Y-116113330D01*
X168400500Y-114200097D01*
X168420185Y-114133058D01*
X168436819Y-114112416D01*
X171748736Y-110800499D01*
X175114662Y-107434572D01*
X175175983Y-107401089D01*
X175178150Y-107400638D01*
X175236085Y-107389113D01*
X175333497Y-107369737D01*
X175479179Y-107309394D01*
X175479184Y-107309390D01*
X175479187Y-107309389D01*
X175506608Y-107291067D01*
X175573285Y-107270188D01*
X175640666Y-107288672D01*
X175687356Y-107340650D01*
X175699500Y-107394168D01*
X175699500Y-109320234D01*
X175679815Y-109387273D01*
X175678602Y-109389125D01*
X175590609Y-109520814D01*
X175590602Y-109520827D01*
X175530264Y-109666498D01*
X175530261Y-109666510D01*
X175499500Y-109821153D01*
X175499500Y-109978846D01*
X175530261Y-110133489D01*
X175530264Y-110133501D01*
X175590602Y-110279172D01*
X175590609Y-110279185D01*
X175678210Y-110410288D01*
X175678213Y-110410292D01*
X175789707Y-110521786D01*
X175789711Y-110521789D01*
X175920814Y-110609390D01*
X175920827Y-110609397D01*
X175981611Y-110634574D01*
X176066503Y-110669737D01*
X176221153Y-110700499D01*
X176221156Y-110700500D01*
X176221158Y-110700500D01*
X176378844Y-110700500D01*
X176378845Y-110700499D01*
X176533497Y-110669737D01*
X176679179Y-110609394D01*
X176810289Y-110521789D01*
X176822688Y-110509390D01*
X176912319Y-110419760D01*
X176973642Y-110386275D01*
X177043334Y-110391259D01*
X177087681Y-110419760D01*
X177189707Y-110521786D01*
X177189711Y-110521789D01*
X177320814Y-110609390D01*
X177320827Y-110609397D01*
X177381611Y-110634574D01*
X177466503Y-110669737D01*
X177621153Y-110700499D01*
X177621156Y-110700500D01*
X177621158Y-110700500D01*
X177778844Y-110700500D01*
X177778845Y-110700499D01*
X177933497Y-110669737D01*
X178079179Y-110609394D01*
X178210289Y-110521789D01*
X178321789Y-110410289D01*
X178400635Y-110292286D01*
X178454245Y-110247483D01*
X178523570Y-110238776D01*
X178586598Y-110268930D01*
X178591417Y-110273498D01*
X178689707Y-110371788D01*
X178689711Y-110371791D01*
X178820814Y-110459392D01*
X178820827Y-110459399D01*
X178966498Y-110519737D01*
X178966503Y-110519739D01*
X179121153Y-110550501D01*
X179121156Y-110550502D01*
X179121158Y-110550502D01*
X179278844Y-110550502D01*
X179278845Y-110550501D01*
X179433497Y-110519739D01*
X179579179Y-110459396D01*
X179710289Y-110371791D01*
X179821789Y-110260291D01*
X179909394Y-110129181D01*
X179969737Y-109983499D01*
X180000500Y-109828844D01*
X180000638Y-109828152D01*
X180033023Y-109766241D01*
X180034519Y-109764717D01*
X181558506Y-108240729D01*
X181558511Y-108240726D01*
X181568714Y-108230522D01*
X181568716Y-108230522D01*
X181680520Y-108118718D01*
X181734338Y-108025501D01*
X181759577Y-107981787D01*
X181800500Y-107829059D01*
X181800500Y-107670945D01*
X181800500Y-104221153D01*
X183999500Y-104221153D01*
X183999500Y-104378846D01*
X184030261Y-104533489D01*
X184030264Y-104533501D01*
X184090602Y-104679172D01*
X184090609Y-104679185D01*
X184178210Y-104810288D01*
X184178213Y-104810292D01*
X184289707Y-104921786D01*
X184289711Y-104921789D01*
X184420814Y-105009390D01*
X184420827Y-105009397D01*
X184566498Y-105069735D01*
X184566503Y-105069737D01*
X184631147Y-105082595D01*
X184721849Y-105100638D01*
X184783760Y-105133023D01*
X184785339Y-105134574D01*
X186963181Y-107312416D01*
X186996666Y-107373739D01*
X186999500Y-107400097D01*
X186999500Y-111499902D01*
X186979815Y-111566941D01*
X186963181Y-111587583D01*
X185185339Y-113365425D01*
X185124016Y-113398910D01*
X185121850Y-113399361D01*
X184966508Y-113430261D01*
X184966498Y-113430264D01*
X184820827Y-113490602D01*
X184820814Y-113490609D01*
X184689711Y-113578210D01*
X184689709Y-113578212D01*
X184578213Y-113689707D01*
X184578210Y-113689711D01*
X184490609Y-113820814D01*
X184490602Y-113820827D01*
X184430264Y-113966498D01*
X184430261Y-113966510D01*
X184399500Y-114121153D01*
X184399500Y-114278846D01*
X184430261Y-114433489D01*
X184430264Y-114433501D01*
X184490602Y-114579172D01*
X184490609Y-114579185D01*
X184578210Y-114710288D01*
X184578213Y-114710292D01*
X184689707Y-114821786D01*
X184689711Y-114821789D01*
X184820814Y-114909390D01*
X184820827Y-114909397D01*
X184918853Y-114950000D01*
X184966503Y-114969737D01*
X185121153Y-115000499D01*
X185121156Y-115000500D01*
X185121158Y-115000500D01*
X185278844Y-115000500D01*
X185278845Y-115000499D01*
X185433497Y-114969737D01*
X185579179Y-114909394D01*
X185710289Y-114821789D01*
X185821789Y-114710289D01*
X185909394Y-114579179D01*
X185969737Y-114433497D01*
X185992989Y-114316602D01*
X186000638Y-114278150D01*
X186033023Y-114216239D01*
X186034518Y-114214716D01*
X187487819Y-112761416D01*
X187549142Y-112727931D01*
X187618834Y-112732915D01*
X187674767Y-112774787D01*
X187699184Y-112840251D01*
X187699500Y-112849097D01*
X187699500Y-116913330D01*
X187699499Y-116913348D01*
X187699499Y-117079054D01*
X187699498Y-117079054D01*
X187705244Y-117100499D01*
X187740423Y-117231785D01*
X187765230Y-117274752D01*
X187819477Y-117368712D01*
X187819481Y-117368717D01*
X187938349Y-117487585D01*
X187938355Y-117487590D01*
X187963181Y-117512416D01*
X187996666Y-117573739D01*
X187999500Y-117600097D01*
X187999500Y-118520234D01*
X187979815Y-118587273D01*
X187978602Y-118589125D01*
X187890609Y-118720814D01*
X187890602Y-118720827D01*
X187830264Y-118866498D01*
X187830261Y-118866510D01*
X187799500Y-119021153D01*
X187799500Y-119178846D01*
X187830261Y-119333489D01*
X187830264Y-119333501D01*
X187890602Y-119479172D01*
X187890609Y-119479185D01*
X187978210Y-119610288D01*
X187978213Y-119610292D01*
X188089707Y-119721786D01*
X188089711Y-119721789D01*
X188220814Y-119809390D01*
X188220827Y-119809397D01*
X188366498Y-119869735D01*
X188366503Y-119869737D01*
X188521153Y-119900499D01*
X188521156Y-119900500D01*
X188521158Y-119900500D01*
X188678844Y-119900500D01*
X188678845Y-119900499D01*
X188833497Y-119869737D01*
X188979179Y-119809394D01*
X189110289Y-119721789D01*
X189221789Y-119610289D01*
X189309394Y-119479179D01*
X189369737Y-119333497D01*
X189400500Y-119178842D01*
X189400500Y-119021158D01*
X189400500Y-119021155D01*
X189400499Y-119021153D01*
X189378447Y-118910292D01*
X189369737Y-118866503D01*
X189333569Y-118779185D01*
X189309397Y-118720827D01*
X189309390Y-118720814D01*
X189221398Y-118589125D01*
X189200520Y-118522447D01*
X189200500Y-118520234D01*
X189200500Y-117220945D01*
X189200500Y-117220943D01*
X189159577Y-117068215D01*
X189125616Y-117009394D01*
X189080520Y-116931284D01*
X188968716Y-116819480D01*
X188968715Y-116819479D01*
X188964385Y-116815149D01*
X188964374Y-116815139D01*
X188936819Y-116787584D01*
X188903334Y-116726261D01*
X188900500Y-116699903D01*
X188900500Y-108779765D01*
X188904876Y-108763811D01*
X188904350Y-108749108D01*
X188916197Y-108722536D01*
X188917854Y-108716499D01*
X188921171Y-108710906D01*
X188921789Y-108710289D01*
X189009394Y-108579179D01*
X189069737Y-108433497D01*
X189100500Y-108278842D01*
X189100500Y-108121158D01*
X189100500Y-108121155D01*
X189100499Y-108121153D01*
X189090371Y-108070237D01*
X189069737Y-107966503D01*
X189037929Y-107889711D01*
X189009397Y-107820827D01*
X189009390Y-107820814D01*
X188921789Y-107689711D01*
X188921786Y-107689707D01*
X188810292Y-107578213D01*
X188810288Y-107578210D01*
X188679185Y-107490609D01*
X188679172Y-107490602D01*
X188533501Y-107430264D01*
X188533489Y-107430261D01*
X188378845Y-107399500D01*
X188378842Y-107399500D01*
X188324500Y-107399500D01*
X188315814Y-107396949D01*
X188306853Y-107398238D01*
X188282812Y-107387259D01*
X188257461Y-107379815D01*
X188251533Y-107372974D01*
X188243297Y-107369213D01*
X188229007Y-107346978D01*
X188211706Y-107327011D01*
X188209418Y-107316496D01*
X188205523Y-107310435D01*
X188200500Y-107275500D01*
X188200500Y-107189059D01*
X188200501Y-107189046D01*
X188200501Y-107020945D01*
X188200501Y-107020943D01*
X188159577Y-106868215D01*
X188130639Y-106818095D01*
X188080520Y-106731284D01*
X187968716Y-106619480D01*
X187968715Y-106619479D01*
X187964385Y-106615149D01*
X187964374Y-106615139D01*
X185634574Y-104285339D01*
X185601089Y-104224016D01*
X185600638Y-104221849D01*
X185582419Y-104130261D01*
X185569737Y-104066503D01*
X185569735Y-104066498D01*
X185509397Y-103920827D01*
X185509390Y-103920814D01*
X185421789Y-103789711D01*
X185421786Y-103789707D01*
X185310292Y-103678213D01*
X185310288Y-103678210D01*
X185179185Y-103590609D01*
X185179172Y-103590602D01*
X185033501Y-103530264D01*
X185033489Y-103530261D01*
X184878845Y-103499500D01*
X184878842Y-103499500D01*
X184721158Y-103499500D01*
X184721155Y-103499500D01*
X184566510Y-103530261D01*
X184566498Y-103530264D01*
X184420827Y-103590602D01*
X184420814Y-103590609D01*
X184289711Y-103678210D01*
X184289707Y-103678213D01*
X184178213Y-103789707D01*
X184178210Y-103789711D01*
X184090609Y-103920814D01*
X184090602Y-103920827D01*
X184030264Y-104066498D01*
X184030261Y-104066510D01*
X183999500Y-104221153D01*
X181800500Y-104221153D01*
X181800500Y-88089060D01*
X181800501Y-88089047D01*
X181800501Y-87920944D01*
X181759576Y-87768214D01*
X181759573Y-87768209D01*
X181680524Y-87631290D01*
X181680518Y-87631282D01*
X178006612Y-83957376D01*
X174239579Y-80190344D01*
X176427098Y-80190344D01*
X176427098Y-80409655D01*
X176455721Y-80627064D01*
X176512480Y-80838890D01*
X176596398Y-81041485D01*
X176596402Y-81041495D01*
X176706047Y-81231406D01*
X176839545Y-81405384D01*
X176839551Y-81405391D01*
X176994606Y-81560446D01*
X176994613Y-81560452D01*
X177168591Y-81693950D01*
X177358502Y-81803595D01*
X177358503Y-81803595D01*
X177358506Y-81803597D01*
X177561108Y-81887518D01*
X177772931Y-81944276D01*
X177990350Y-81972900D01*
X177990357Y-81972900D01*
X178209639Y-81972900D01*
X178209646Y-81972900D01*
X178427065Y-81944276D01*
X178638888Y-81887518D01*
X178841490Y-81803597D01*
X179031405Y-81693950D01*
X179205384Y-81560451D01*
X179360449Y-81405386D01*
X179493948Y-81231407D01*
X179603595Y-81041492D01*
X179687516Y-80838890D01*
X179744274Y-80627067D01*
X179772898Y-80409648D01*
X179772898Y-80190352D01*
X179744274Y-79972933D01*
X179687516Y-79761110D01*
X179603595Y-79558508D01*
X179599178Y-79550858D01*
X179493948Y-79368593D01*
X179360450Y-79194615D01*
X179360444Y-79194608D01*
X179205389Y-79039553D01*
X179205382Y-79039547D01*
X179031404Y-78906049D01*
X178841493Y-78796404D01*
X178841483Y-78796400D01*
X178638888Y-78712482D01*
X178427062Y-78655723D01*
X178209653Y-78627100D01*
X178209646Y-78627100D01*
X177990350Y-78627100D01*
X177990342Y-78627100D01*
X177772933Y-78655723D01*
X177561107Y-78712482D01*
X177358512Y-78796400D01*
X177358502Y-78796404D01*
X177168591Y-78906049D01*
X176994613Y-79039547D01*
X176994606Y-79039553D01*
X176839551Y-79194608D01*
X176839545Y-79194615D01*
X176706047Y-79368593D01*
X176596402Y-79558504D01*
X176596398Y-79558514D01*
X176512480Y-79761109D01*
X176455721Y-79972935D01*
X176427098Y-80190344D01*
X174239579Y-80190344D01*
X172480521Y-78431286D01*
X172480520Y-78431284D01*
X172434936Y-78385700D01*
X172408171Y-78336682D01*
X172401452Y-78324378D01*
X172406436Y-78254686D01*
X172448308Y-78198753D01*
X172450537Y-78197242D01*
X172450521Y-78197220D01*
X172562388Y-78115942D01*
X172562389Y-78115942D01*
X172019837Y-77573390D01*
X172158609Y-77480667D01*
X172280667Y-77358609D01*
X172373390Y-77219837D01*
X172915942Y-77762389D01*
X172915942Y-77762388D01*
X172994356Y-77654461D01*
X172994360Y-77654455D01*
X173110859Y-77425815D01*
X173190155Y-77181767D01*
X173190155Y-77181764D01*
X173230300Y-76928306D01*
X173230300Y-76793713D01*
X190549500Y-76793713D01*
X190549500Y-77006287D01*
X190582754Y-77216243D01*
X190594937Y-77253739D01*
X190648444Y-77418414D01*
X190744951Y-77607820D01*
X190869890Y-77779786D01*
X191020213Y-77930109D01*
X191192179Y-78055048D01*
X191192181Y-78055049D01*
X191192184Y-78055051D01*
X191381588Y-78151557D01*
X191583757Y-78217246D01*
X191793713Y-78250500D01*
X191793714Y-78250500D01*
X192006286Y-78250500D01*
X192006287Y-78250500D01*
X192216243Y-78217246D01*
X192418412Y-78151557D01*
X192607816Y-78055051D01*
X192727130Y-77968365D01*
X192779786Y-77930109D01*
X192779788Y-77930106D01*
X192779792Y-77930104D01*
X192930104Y-77779792D01*
X192930106Y-77779788D01*
X192930109Y-77779786D01*
X193055048Y-77607820D01*
X193055047Y-77607820D01*
X193055051Y-77607816D01*
X193151557Y-77418412D01*
X193217246Y-77216243D01*
X193250500Y-77006287D01*
X193250500Y-76793713D01*
X193217246Y-76583757D01*
X193151557Y-76381588D01*
X193055051Y-76192184D01*
X193055049Y-76192181D01*
X193055048Y-76192179D01*
X192930109Y-76020213D01*
X192779786Y-75869890D01*
X192607820Y-75744951D01*
X192418414Y-75648444D01*
X192418413Y-75648443D01*
X192418412Y-75648443D01*
X192216243Y-75582754D01*
X192216241Y-75582753D01*
X192216240Y-75582753D01*
X192054957Y-75557208D01*
X192006287Y-75549500D01*
X191793713Y-75549500D01*
X191745042Y-75557208D01*
X191583760Y-75582753D01*
X191583757Y-75582754D01*
X191468348Y-75620253D01*
X191381585Y-75648444D01*
X191192179Y-75744951D01*
X191020213Y-75869890D01*
X190869890Y-76020213D01*
X190744951Y-76192179D01*
X190648444Y-76381585D01*
X190582753Y-76583760D01*
X190576814Y-76621259D01*
X190549500Y-76793713D01*
X173230300Y-76793713D01*
X173230300Y-76671693D01*
X173190155Y-76418235D01*
X173190155Y-76418232D01*
X173110859Y-76174184D01*
X172994356Y-75945536D01*
X172915942Y-75837610D01*
X172915942Y-75837609D01*
X172373390Y-76380161D01*
X172280667Y-76241391D01*
X172158609Y-76119333D01*
X172019837Y-76026608D01*
X172562389Y-75484056D01*
X172454463Y-75405643D01*
X172225815Y-75289140D01*
X171981766Y-75209844D01*
X171728306Y-75169700D01*
X171471694Y-75169700D01*
X171218235Y-75209844D01*
X171218232Y-75209844D01*
X170974184Y-75289140D01*
X170745533Y-75405645D01*
X170637610Y-75484055D01*
X170637609Y-75484056D01*
X171180162Y-76026609D01*
X171041391Y-76119333D01*
X170919333Y-76241391D01*
X170826609Y-76380162D01*
X170284056Y-75837609D01*
X170284055Y-75837610D01*
X170205645Y-75945533D01*
X170089140Y-76174184D01*
X170009844Y-76418232D01*
X170009844Y-76418235D01*
X169969700Y-76671693D01*
X169969700Y-76928306D01*
X170009844Y-77181764D01*
X170009844Y-77181767D01*
X170089140Y-77425815D01*
X170205643Y-77654463D01*
X170284056Y-77762388D01*
X170284056Y-77762389D01*
X170826608Y-77219836D01*
X170919333Y-77358609D01*
X171041391Y-77480667D01*
X171180162Y-77573390D01*
X170611991Y-78141560D01*
X170570237Y-78183910D01*
X170510043Y-78199500D01*
X168689956Y-78199500D01*
X168622917Y-78179815D01*
X168601204Y-78154757D01*
X168019837Y-77573390D01*
X168158609Y-77480667D01*
X168280667Y-77358609D01*
X168373390Y-77219837D01*
X168915942Y-77762389D01*
X168915942Y-77762388D01*
X168994356Y-77654461D01*
X168994360Y-77654455D01*
X169110859Y-77425815D01*
X169190155Y-77181767D01*
X169190155Y-77181764D01*
X169230300Y-76928306D01*
X169230300Y-76671693D01*
X169190155Y-76418235D01*
X169190155Y-76418232D01*
X169110859Y-76174184D01*
X168994356Y-75945536D01*
X168915942Y-75837610D01*
X168915942Y-75837609D01*
X168373390Y-76380161D01*
X168280667Y-76241391D01*
X168158609Y-76119333D01*
X168019837Y-76026608D01*
X168562389Y-75484056D01*
X168454463Y-75405643D01*
X168225815Y-75289140D01*
X167981766Y-75209844D01*
X167728306Y-75169700D01*
X167471694Y-75169700D01*
X167218235Y-75209844D01*
X167218232Y-75209844D01*
X166974184Y-75289140D01*
X166745533Y-75405645D01*
X166637610Y-75484055D01*
X166637609Y-75484056D01*
X167180162Y-76026609D01*
X167041391Y-76119333D01*
X166919333Y-76241391D01*
X166826609Y-76380162D01*
X166284056Y-75837609D01*
X166284055Y-75837610D01*
X166205645Y-75945533D01*
X166089140Y-76174184D01*
X166009844Y-76418232D01*
X166009844Y-76418235D01*
X165969700Y-76671693D01*
X165969700Y-76928306D01*
X166009844Y-77181764D01*
X166009844Y-77181767D01*
X166089140Y-77425815D01*
X166205643Y-77654463D01*
X166284056Y-77762388D01*
X166284056Y-77762389D01*
X166826608Y-77219836D01*
X166919333Y-77358609D01*
X167041391Y-77480667D01*
X167180162Y-77573390D01*
X166611991Y-78141560D01*
X166570237Y-78183910D01*
X166510043Y-78199500D01*
X164689957Y-78199500D01*
X164622918Y-78179815D01*
X164601205Y-78154757D01*
X164019838Y-77573390D01*
X164158610Y-77480667D01*
X164280668Y-77358609D01*
X164373391Y-77219837D01*
X164915943Y-77762389D01*
X164915943Y-77762388D01*
X164994357Y-77654461D01*
X164994361Y-77654455D01*
X165110860Y-77425815D01*
X165190156Y-77181767D01*
X165190156Y-77181764D01*
X165230301Y-76928306D01*
X165230301Y-76671693D01*
X165190156Y-76418235D01*
X165190156Y-76418232D01*
X165110860Y-76174184D01*
X164994357Y-75945536D01*
X164915943Y-75837610D01*
X164915943Y-75837609D01*
X164373391Y-76380161D01*
X164280668Y-76241391D01*
X164158610Y-76119333D01*
X164019838Y-76026608D01*
X164562390Y-75484056D01*
X164454464Y-75405643D01*
X164225816Y-75289140D01*
X163981767Y-75209844D01*
X163728307Y-75169700D01*
X163471695Y-75169700D01*
X163218236Y-75209844D01*
X163218233Y-75209844D01*
X162974185Y-75289140D01*
X162745534Y-75405645D01*
X162637611Y-75484055D01*
X162637610Y-75484056D01*
X163180163Y-76026609D01*
X163041392Y-76119333D01*
X162919334Y-76241391D01*
X162826610Y-76380162D01*
X162284057Y-75837609D01*
X162284056Y-75837610D01*
X162205646Y-75945533D01*
X162089141Y-76174184D01*
X162009845Y-76418232D01*
X162009845Y-76418235D01*
X161969701Y-76671693D01*
X161969701Y-76928306D01*
X162009845Y-77181764D01*
X162009845Y-77181767D01*
X162089141Y-77425815D01*
X162205644Y-77654463D01*
X162284057Y-77762388D01*
X162284057Y-77762389D01*
X162826609Y-77219836D01*
X162919334Y-77358609D01*
X163041392Y-77480667D01*
X163180163Y-77573390D01*
X162611992Y-78141560D01*
X162570238Y-78183910D01*
X162510044Y-78199500D01*
X160689957Y-78199500D01*
X160622918Y-78179815D01*
X160601205Y-78154757D01*
X160019838Y-77573390D01*
X160158610Y-77480667D01*
X160280668Y-77358609D01*
X160373391Y-77219837D01*
X160915943Y-77762389D01*
X160915943Y-77762388D01*
X160994357Y-77654461D01*
X160994361Y-77654455D01*
X161110860Y-77425815D01*
X161190156Y-77181767D01*
X161190156Y-77181764D01*
X161230301Y-76928306D01*
X161230301Y-76671693D01*
X161190156Y-76418235D01*
X161190156Y-76418232D01*
X161110860Y-76174184D01*
X160994357Y-75945536D01*
X160915943Y-75837610D01*
X160915943Y-75837609D01*
X160373391Y-76380161D01*
X160280668Y-76241391D01*
X160158610Y-76119333D01*
X160019838Y-76026608D01*
X160562390Y-75484056D01*
X160454464Y-75405643D01*
X160225816Y-75289140D01*
X159981767Y-75209844D01*
X159728307Y-75169700D01*
X159471695Y-75169700D01*
X159218236Y-75209844D01*
X159218233Y-75209844D01*
X158974185Y-75289140D01*
X158745534Y-75405645D01*
X158637611Y-75484055D01*
X158637610Y-75484056D01*
X159180163Y-76026609D01*
X159041392Y-76119333D01*
X158919334Y-76241391D01*
X158826610Y-76380162D01*
X158284057Y-75837609D01*
X158284056Y-75837610D01*
X158205646Y-75945533D01*
X158089141Y-76174184D01*
X158009845Y-76418232D01*
X158009845Y-76418235D01*
X157969701Y-76671693D01*
X157969701Y-76928306D01*
X158009845Y-77181764D01*
X158009845Y-77181767D01*
X158089141Y-77425815D01*
X158205644Y-77654463D01*
X158284057Y-77762388D01*
X158284057Y-77762389D01*
X158826609Y-77219836D01*
X158919334Y-77358609D01*
X159041392Y-77480667D01*
X159180163Y-77573390D01*
X158637610Y-78115942D01*
X158745537Y-78194356D01*
X158974179Y-78310856D01*
X158982292Y-78313492D01*
X159039968Y-78352928D01*
X159067168Y-78417285D01*
X159055256Y-78486132D01*
X159031658Y-78519105D01*
X158306969Y-79243794D01*
X158245646Y-79277279D01*
X158180971Y-79274044D01*
X158087872Y-79243794D01*
X157981880Y-79209354D01*
X157728352Y-79169200D01*
X157728347Y-79169200D01*
X157471653Y-79169200D01*
X157471648Y-79169200D01*
X157218119Y-79209354D01*
X156973985Y-79288679D01*
X156745270Y-79405217D01*
X156537608Y-79556092D01*
X156537602Y-79556097D01*
X156356097Y-79737602D01*
X156356092Y-79737608D01*
X156205217Y-79945270D01*
X156088679Y-80173985D01*
X156009354Y-80418119D01*
X155969200Y-80671647D01*
X155969200Y-80928352D01*
X156009354Y-81181880D01*
X156088679Y-81426014D01*
X156145867Y-81538250D01*
X156205215Y-81654726D01*
X156356095Y-81862395D01*
X156537605Y-82043905D01*
X156745274Y-82194785D01*
X156891010Y-82269041D01*
X156973985Y-82311320D01*
X156973987Y-82311320D01*
X156973990Y-82311322D01*
X157102221Y-82352987D01*
X157218119Y-82390645D01*
X157471648Y-82430800D01*
X157471653Y-82430800D01*
X157728352Y-82430800D01*
X157981880Y-82390645D01*
X158008782Y-82381904D01*
X158226010Y-82311322D01*
X158454726Y-82194785D01*
X158662395Y-82043905D01*
X158843905Y-81862395D01*
X158994785Y-81654726D01*
X159111322Y-81426010D01*
X159190645Y-81181880D01*
X159230800Y-80928352D01*
X159230800Y-80671647D01*
X159190645Y-80418119D01*
X159145509Y-80279207D01*
X159125954Y-80219025D01*
X159123960Y-80149187D01*
X159156203Y-80093030D01*
X159812416Y-79436819D01*
X159873739Y-79403334D01*
X159900097Y-79400500D01*
X160393838Y-79400500D01*
X160460877Y-79420185D01*
X160506632Y-79472989D01*
X160516576Y-79542147D01*
X160487551Y-79605703D01*
X160481519Y-79612181D01*
X160356097Y-79737602D01*
X160356092Y-79737608D01*
X160205217Y-79945270D01*
X160088679Y-80173985D01*
X160009354Y-80418119D01*
X159969200Y-80671647D01*
X159969200Y-80928352D01*
X160009354Y-81181880D01*
X160088679Y-81426014D01*
X160145867Y-81538250D01*
X160205215Y-81654726D01*
X160356095Y-81862395D01*
X160537605Y-82043905D01*
X160745274Y-82194785D01*
X160891010Y-82269041D01*
X160973985Y-82311320D01*
X160973987Y-82311320D01*
X160973990Y-82311322D01*
X161102221Y-82352987D01*
X161218119Y-82390645D01*
X161471648Y-82430800D01*
X161720602Y-82430800D01*
X161787641Y-82450485D01*
X161833396Y-82503289D01*
X161843340Y-82572447D01*
X161814315Y-82636003D01*
X161808283Y-82642481D01*
X160866213Y-83584550D01*
X160804890Y-83618035D01*
X160735198Y-83613051D01*
X160690851Y-83584550D01*
X160662398Y-83556097D01*
X160662392Y-83556092D01*
X160454730Y-83405217D01*
X160454729Y-83405216D01*
X160454727Y-83405215D01*
X160322968Y-83338080D01*
X160226015Y-83288679D01*
X159981881Y-83209354D01*
X159728353Y-83169200D01*
X159728348Y-83169200D01*
X159471654Y-83169200D01*
X159471649Y-83169200D01*
X159218120Y-83209354D01*
X158973986Y-83288679D01*
X158745271Y-83405217D01*
X158537609Y-83556092D01*
X158537603Y-83556097D01*
X158356098Y-83737602D01*
X158356093Y-83737608D01*
X158205218Y-83945270D01*
X158088680Y-84173985D01*
X158009355Y-84418119D01*
X157969201Y-84671647D01*
X157969201Y-84928352D01*
X158009355Y-85181880D01*
X158088680Y-85426014D01*
X158143485Y-85533573D01*
X158192751Y-85630263D01*
X158205218Y-85654729D01*
X158294932Y-85778210D01*
X158356096Y-85862395D01*
X158537606Y-86043905D01*
X158745275Y-86194785D01*
X158891011Y-86269041D01*
X158973986Y-86311320D01*
X158973988Y-86311320D01*
X158973991Y-86311322D01*
X159104850Y-86353841D01*
X159218120Y-86390645D01*
X159471649Y-86430800D01*
X159471654Y-86430800D01*
X159728353Y-86430800D01*
X159981881Y-86390645D01*
X160226011Y-86311322D01*
X160454727Y-86194785D01*
X160662396Y-86043905D01*
X160843906Y-85862395D01*
X160994786Y-85654726D01*
X161111323Y-85426010D01*
X161190646Y-85181880D01*
X161226364Y-84956362D01*
X161256293Y-84893227D01*
X161261139Y-84888095D01*
X161791866Y-84357368D01*
X161853186Y-84323885D01*
X161922877Y-84328869D01*
X161978811Y-84370740D01*
X162003228Y-84436205D01*
X162002017Y-84464448D01*
X161969201Y-84671646D01*
X161969201Y-84928352D01*
X162009355Y-85181880D01*
X162088680Y-85426014D01*
X162143485Y-85533573D01*
X162192751Y-85630263D01*
X162205218Y-85654729D01*
X162294932Y-85778210D01*
X162356096Y-85862395D01*
X162537606Y-86043905D01*
X162745275Y-86194785D01*
X162891011Y-86269041D01*
X162973986Y-86311320D01*
X162973988Y-86311320D01*
X162973991Y-86311322D01*
X163104850Y-86353841D01*
X163218120Y-86390645D01*
X163471649Y-86430800D01*
X163471654Y-86430800D01*
X163728353Y-86430800D01*
X163981881Y-86390645D01*
X164226011Y-86311322D01*
X164454727Y-86194785D01*
X164662396Y-86043905D01*
X164843906Y-85862395D01*
X164994786Y-85654726D01*
X165111323Y-85426010D01*
X165190646Y-85181880D01*
X165209244Y-85064457D01*
X165230801Y-84928352D01*
X165230801Y-84671647D01*
X165190646Y-84418119D01*
X165133223Y-84241391D01*
X165111323Y-84173990D01*
X165111321Y-84173987D01*
X165111321Y-84173985D01*
X165069042Y-84091010D01*
X164994786Y-83945274D01*
X164843906Y-83737605D01*
X164662396Y-83556095D01*
X164619347Y-83524818D01*
X164576681Y-83469488D01*
X164570702Y-83399875D01*
X164603308Y-83338080D01*
X164664146Y-83303723D01*
X164692232Y-83300500D01*
X166517913Y-83300500D01*
X166584952Y-83320185D01*
X166630707Y-83372989D01*
X166641531Y-83434228D01*
X166637609Y-83484056D01*
X167180162Y-84026609D01*
X167041391Y-84119333D01*
X166919333Y-84241391D01*
X166826609Y-84380162D01*
X166284056Y-83837609D01*
X166284055Y-83837610D01*
X166205645Y-83945533D01*
X166089140Y-84174184D01*
X166009844Y-84418232D01*
X166009844Y-84418235D01*
X165969700Y-84671693D01*
X165969700Y-84928306D01*
X166009844Y-85181764D01*
X166009844Y-85181767D01*
X166089140Y-85425815D01*
X166205643Y-85654463D01*
X166284056Y-85762388D01*
X166284056Y-85762389D01*
X166826608Y-85219836D01*
X166919333Y-85358609D01*
X167041391Y-85480667D01*
X167180161Y-85573390D01*
X166637609Y-86115942D01*
X166745536Y-86194356D01*
X166974186Y-86310860D01*
X166999463Y-86319073D01*
X167057139Y-86358510D01*
X167084338Y-86422868D01*
X167072424Y-86491714D01*
X167048827Y-86524685D01*
X166710333Y-86863181D01*
X166649010Y-86896666D01*
X166622652Y-86899500D01*
X166621155Y-86899500D01*
X166466510Y-86930261D01*
X166466498Y-86930264D01*
X166320827Y-86990602D01*
X166320814Y-86990609D01*
X166189711Y-87078210D01*
X166189707Y-87078213D01*
X166078213Y-87189707D01*
X166078210Y-87189711D01*
X165990609Y-87320814D01*
X165990602Y-87320827D01*
X165930264Y-87466498D01*
X165930261Y-87466510D01*
X165899500Y-87621153D01*
X165899500Y-87778846D01*
X165930261Y-87933489D01*
X165930264Y-87933501D01*
X165990602Y-88079172D01*
X165990609Y-88079185D01*
X166078210Y-88210288D01*
X166078213Y-88210292D01*
X166189707Y-88321786D01*
X166189711Y-88321789D01*
X166320814Y-88409390D01*
X166320827Y-88409397D01*
X166420060Y-88450500D01*
X166466503Y-88469737D01*
X166621153Y-88500499D01*
X166621156Y-88500500D01*
X166621158Y-88500500D01*
X166778844Y-88500500D01*
X166778845Y-88500499D01*
X166855152Y-88485320D01*
X166933488Y-88469739D01*
X166933489Y-88469738D01*
X166933497Y-88469737D01*
X166957155Y-88459937D01*
X167004604Y-88450500D01*
X167008802Y-88450500D01*
X167106344Y-88431096D01*
X167153795Y-88421658D01*
X167290377Y-88365084D01*
X167355173Y-88321789D01*
X167355176Y-88321786D01*
X167355178Y-88321786D01*
X167387638Y-88300097D01*
X167413298Y-88282952D01*
X168944405Y-86751842D01*
X169005726Y-86718359D01*
X169075417Y-86723343D01*
X169119765Y-86751844D01*
X169189707Y-86821786D01*
X169189711Y-86821789D01*
X169320814Y-86909390D01*
X169320827Y-86909397D01*
X169466498Y-86969735D01*
X169466503Y-86969737D01*
X169596992Y-86995693D01*
X169621153Y-87000499D01*
X169621156Y-87000500D01*
X169621158Y-87000500D01*
X169778844Y-87000500D01*
X169784902Y-86999903D01*
X169784938Y-87000276D01*
X169800862Y-86998781D01*
X169815012Y-86998911D01*
X169820943Y-87000501D01*
X169979058Y-87000501D01*
X169979062Y-87000500D01*
X172220234Y-87000500D01*
X172287273Y-87020185D01*
X172289125Y-87021398D01*
X172420814Y-87109390D01*
X172420827Y-87109397D01*
X172566498Y-87169735D01*
X172566503Y-87169737D01*
X172721153Y-87200499D01*
X172721156Y-87200500D01*
X172721158Y-87200500D01*
X172878844Y-87200500D01*
X172878845Y-87200499D01*
X173033497Y-87169737D01*
X173179179Y-87109394D01*
X173310289Y-87021789D01*
X173421789Y-86910289D01*
X173509394Y-86779179D01*
X173569737Y-86633497D01*
X173600500Y-86478842D01*
X173600500Y-86321158D01*
X173600500Y-86321155D01*
X173600499Y-86321153D01*
X173598452Y-86310860D01*
X173569737Y-86166503D01*
X173548794Y-86115942D01*
X173509397Y-86020827D01*
X173509390Y-86020814D01*
X173421789Y-85889711D01*
X173421786Y-85889707D01*
X173310292Y-85778213D01*
X173310288Y-85778210D01*
X173179185Y-85690609D01*
X173179172Y-85690602D01*
X173135755Y-85672619D01*
X173081351Y-85628779D01*
X173059286Y-85562485D01*
X173072722Y-85501764D01*
X173111322Y-85426010D01*
X173190645Y-85181880D01*
X173209243Y-85064457D01*
X173230800Y-84928352D01*
X173230800Y-84671647D01*
X173190645Y-84418119D01*
X173133222Y-84241391D01*
X173111322Y-84173990D01*
X173111320Y-84173987D01*
X173111320Y-84173985D01*
X173069041Y-84091010D01*
X172994785Y-83945274D01*
X172843905Y-83737605D01*
X172662395Y-83556095D01*
X172563242Y-83484056D01*
X172454729Y-83405217D01*
X172454728Y-83405216D01*
X172454726Y-83405215D01*
X172322967Y-83338080D01*
X172226014Y-83288679D01*
X171981880Y-83209354D01*
X171728352Y-83169200D01*
X171728347Y-83169200D01*
X171471653Y-83169200D01*
X171471648Y-83169200D01*
X171218119Y-83209354D01*
X170973985Y-83288679D01*
X170745270Y-83405217D01*
X170537608Y-83556092D01*
X170537602Y-83556097D01*
X170356097Y-83737602D01*
X170356092Y-83737608D01*
X170205215Y-83945272D01*
X170165284Y-84023641D01*
X170117310Y-84074436D01*
X170049489Y-84091231D01*
X169983354Y-84068693D01*
X169939903Y-84013978D01*
X169930800Y-83967345D01*
X169930800Y-83681929D01*
X169950485Y-83614890D01*
X169967119Y-83594248D01*
X170682948Y-82878419D01*
X170682950Y-82878417D01*
X170682951Y-82878416D01*
X170765084Y-82755495D01*
X170821658Y-82618913D01*
X170850500Y-82473918D01*
X170850500Y-82326083D01*
X170850500Y-81893605D01*
X170870185Y-81826566D01*
X170874164Y-81820744D01*
X170994784Y-81654726D01*
X171111321Y-81426010D01*
X171190644Y-81181880D01*
X171230799Y-80928352D01*
X171230799Y-80671647D01*
X171190644Y-80418119D01*
X171168201Y-80349048D01*
X171166206Y-80279207D01*
X171202286Y-80219374D01*
X171264987Y-80188545D01*
X171334401Y-80196509D01*
X171373813Y-80223048D01*
X175263181Y-84112416D01*
X175296666Y-84173739D01*
X175299500Y-84200097D01*
X175299500Y-100064801D01*
X175299499Y-100064819D01*
X175299499Y-100230525D01*
X175299498Y-100230525D01*
X175299499Y-100230528D01*
X175340423Y-100383256D01*
X175343344Y-100388316D01*
X175369358Y-100433371D01*
X175369359Y-100433375D01*
X175369360Y-100433375D01*
X175419479Y-100520185D01*
X175419481Y-100520188D01*
X175538349Y-100639056D01*
X175538355Y-100639061D01*
X175663181Y-100763887D01*
X175696666Y-100825210D01*
X175699500Y-100851568D01*
X175699500Y-105805831D01*
X175679815Y-105872870D01*
X175627011Y-105918625D01*
X175557853Y-105928569D01*
X175506610Y-105908934D01*
X175479183Y-105890608D01*
X175479172Y-105890602D01*
X175333501Y-105830264D01*
X175333489Y-105830261D01*
X175178845Y-105799500D01*
X175178842Y-105799500D01*
X175021158Y-105799500D01*
X175021155Y-105799500D01*
X174866510Y-105830261D01*
X174866498Y-105830264D01*
X174720827Y-105890602D01*
X174720814Y-105890609D01*
X174589711Y-105978210D01*
X174589707Y-105978213D01*
X174478213Y-106089707D01*
X174478210Y-106089711D01*
X174390609Y-106220814D01*
X174390602Y-106220827D01*
X174330264Y-106366498D01*
X174330261Y-106366508D01*
X174299361Y-106521850D01*
X174266976Y-106583761D01*
X174265425Y-106585339D01*
X167319481Y-113531282D01*
X167319479Y-113531284D01*
X167302610Y-113560504D01*
X167292387Y-113578211D01*
X167240423Y-113668215D01*
X167199499Y-113820943D01*
X167199499Y-113820945D01*
X167199499Y-113989046D01*
X167199500Y-113989059D01*
X167199500Y-115899902D01*
X167179815Y-115966941D01*
X167163181Y-115987583D01*
X165312181Y-117838583D01*
X165250858Y-117872068D01*
X165181166Y-117867084D01*
X165125233Y-117825212D01*
X165100816Y-117759748D01*
X165100500Y-117750902D01*
X165100500Y-113589060D01*
X165100501Y-113589047D01*
X165100501Y-113420944D01*
X165100108Y-113419478D01*
X165059577Y-113268216D01*
X165044283Y-113241726D01*
X164980524Y-113131290D01*
X164980518Y-113131282D01*
X161770389Y-109921153D01*
X166399500Y-109921153D01*
X166399500Y-110078846D01*
X166430261Y-110233489D01*
X166430264Y-110233501D01*
X166490602Y-110379172D01*
X166490609Y-110379185D01*
X166578210Y-110510288D01*
X166578213Y-110510292D01*
X166689707Y-110621786D01*
X166689711Y-110621789D01*
X166820814Y-110709390D01*
X166820827Y-110709397D01*
X166966498Y-110769735D01*
X166966503Y-110769737D01*
X167121153Y-110800499D01*
X167121156Y-110800500D01*
X167121158Y-110800500D01*
X167278844Y-110800500D01*
X167278845Y-110800499D01*
X167433497Y-110769737D01*
X167579179Y-110709394D01*
X167710289Y-110621789D01*
X167821789Y-110510289D01*
X167909394Y-110379179D01*
X167912456Y-110371788D01*
X167937929Y-110310288D01*
X167969737Y-110233497D01*
X168000500Y-110078842D01*
X168000500Y-109921158D01*
X168000500Y-109921155D01*
X168000499Y-109921153D01*
X167969737Y-109766503D01*
X167969735Y-109766498D01*
X167909397Y-109620827D01*
X167909390Y-109620814D01*
X167821398Y-109489125D01*
X167800520Y-109422447D01*
X167800500Y-109420234D01*
X167800500Y-107424500D01*
X167820185Y-107357461D01*
X167872989Y-107311706D01*
X167924500Y-107300500D01*
X169320234Y-107300500D01*
X169387273Y-107320185D01*
X169389125Y-107321398D01*
X169520814Y-107409390D01*
X169520827Y-107409397D01*
X169666498Y-107469735D01*
X169666503Y-107469737D01*
X169821153Y-107500499D01*
X169821156Y-107500500D01*
X169821158Y-107500500D01*
X169978844Y-107500500D01*
X169978845Y-107500499D01*
X170133497Y-107469737D01*
X170279179Y-107409394D01*
X170410289Y-107321789D01*
X170521789Y-107210289D01*
X170609394Y-107079179D01*
X170669737Y-106933497D01*
X170700500Y-106778842D01*
X170700500Y-106621158D01*
X170700500Y-106621155D01*
X170700499Y-106621153D01*
X170691163Y-106574217D01*
X170669737Y-106466503D01*
X170628314Y-106366498D01*
X170609397Y-106320827D01*
X170609390Y-106320814D01*
X170521789Y-106189711D01*
X170521786Y-106189707D01*
X170410292Y-106078213D01*
X170410288Y-106078210D01*
X170279185Y-105990609D01*
X170279172Y-105990602D01*
X170133501Y-105930264D01*
X170133489Y-105930261D01*
X169978845Y-105899500D01*
X169978842Y-105899500D01*
X169821158Y-105899500D01*
X169821155Y-105899500D01*
X169666499Y-105930263D01*
X169666111Y-105930381D01*
X169665897Y-105930382D01*
X169660528Y-105931451D01*
X169660325Y-105930431D01*
X169596244Y-105930994D01*
X169537137Y-105893738D01*
X169507555Y-105830439D01*
X169515571Y-105764264D01*
X169569737Y-105633497D01*
X169600500Y-105478842D01*
X169600500Y-105321158D01*
X169600500Y-105321155D01*
X169600499Y-105321153D01*
X169569738Y-105166510D01*
X169569737Y-105166503D01*
X169529655Y-105069735D01*
X169509397Y-105020827D01*
X169509390Y-105020814D01*
X169421398Y-104889125D01*
X169400520Y-104822447D01*
X169400500Y-104820234D01*
X169400500Y-97489060D01*
X169400501Y-97489047D01*
X169400501Y-97320944D01*
X169359576Y-97168214D01*
X169359573Y-97168209D01*
X169280524Y-97031290D01*
X169280518Y-97031282D01*
X168334573Y-96085337D01*
X168301088Y-96024014D01*
X168300637Y-96021847D01*
X168269738Y-95866510D01*
X168269737Y-95866503D01*
X168269735Y-95866498D01*
X168209397Y-95720827D01*
X168209390Y-95720814D01*
X168121789Y-95589711D01*
X168121786Y-95589707D01*
X168010292Y-95478213D01*
X168010288Y-95478210D01*
X167879185Y-95390609D01*
X167879172Y-95390602D01*
X167733501Y-95330264D01*
X167733489Y-95330261D01*
X167578845Y-95299500D01*
X167578842Y-95299500D01*
X167421158Y-95299500D01*
X167421155Y-95299500D01*
X167266510Y-95330261D01*
X167266498Y-95330264D01*
X167120827Y-95390602D01*
X167120814Y-95390609D01*
X166989711Y-95478210D01*
X166989707Y-95478213D01*
X166878213Y-95589707D01*
X166878210Y-95589711D01*
X166790609Y-95720814D01*
X166790602Y-95720827D01*
X166730264Y-95866498D01*
X166730261Y-95866510D01*
X166699500Y-96021153D01*
X166699500Y-96178846D01*
X166730261Y-96333489D01*
X166730264Y-96333501D01*
X166790602Y-96479172D01*
X166790609Y-96479185D01*
X166878210Y-96610288D01*
X166878213Y-96610292D01*
X166989707Y-96721786D01*
X166989711Y-96721789D01*
X167120814Y-96809390D01*
X167120827Y-96809397D01*
X167266498Y-96869735D01*
X167266503Y-96869737D01*
X167331147Y-96882595D01*
X167421849Y-96900638D01*
X167483760Y-96933023D01*
X167485339Y-96934574D01*
X168163181Y-97612416D01*
X168196666Y-97673739D01*
X168199500Y-97700097D01*
X168199500Y-104820234D01*
X168179815Y-104887273D01*
X168178602Y-104889125D01*
X168090609Y-105020814D01*
X168090602Y-105020827D01*
X168030264Y-105166498D01*
X168030261Y-105166510D01*
X167999500Y-105321153D01*
X167999500Y-105478846D01*
X168030261Y-105633489D01*
X168030264Y-105633501D01*
X168090602Y-105779172D01*
X168090609Y-105779185D01*
X168175752Y-105906609D01*
X168196630Y-105973286D01*
X168178146Y-106040666D01*
X168126167Y-106087357D01*
X168072650Y-106099500D01*
X167520941Y-106099500D01*
X167484017Y-106109393D01*
X167484018Y-106109394D01*
X167368214Y-106140423D01*
X167368209Y-106140426D01*
X167231290Y-106219475D01*
X167231282Y-106219481D01*
X166719481Y-106731282D01*
X166719480Y-106731284D01*
X166679519Y-106800500D01*
X166669361Y-106818094D01*
X166669359Y-106818096D01*
X166640425Y-106868209D01*
X166640424Y-106868210D01*
X166637384Y-106879556D01*
X166599499Y-107020943D01*
X166599499Y-107020945D01*
X166599499Y-107189046D01*
X166599500Y-107189059D01*
X166599500Y-109420234D01*
X166579815Y-109487273D01*
X166578602Y-109489125D01*
X166490609Y-109620814D01*
X166490602Y-109620827D01*
X166430264Y-109766498D01*
X166430261Y-109766510D01*
X166399500Y-109921153D01*
X161770389Y-109921153D01*
X159234573Y-107385337D01*
X159201088Y-107324014D01*
X159200637Y-107321847D01*
X159198367Y-107310435D01*
X159169737Y-107166503D01*
X159154520Y-107129765D01*
X159109397Y-107020827D01*
X159109390Y-107020814D01*
X159021789Y-106889711D01*
X159021786Y-106889707D01*
X158910292Y-106778213D01*
X158910288Y-106778210D01*
X158779185Y-106690609D01*
X158779172Y-106690602D01*
X158633501Y-106630264D01*
X158633489Y-106630261D01*
X158478845Y-106599500D01*
X158478842Y-106599500D01*
X158321158Y-106599500D01*
X158321155Y-106599500D01*
X158166510Y-106630261D01*
X158166498Y-106630264D01*
X158020827Y-106690602D01*
X158020814Y-106690609D01*
X157889711Y-106778210D01*
X157889707Y-106778213D01*
X157778213Y-106889707D01*
X157778210Y-106889711D01*
X157690609Y-107020814D01*
X157690602Y-107020827D01*
X157630264Y-107166498D01*
X157630261Y-107166510D01*
X157599500Y-107321153D01*
X157599500Y-107482152D01*
X157579815Y-107549191D01*
X157527011Y-107594946D01*
X157499692Y-107603769D01*
X157366508Y-107630261D01*
X157366498Y-107630264D01*
X157220827Y-107690602D01*
X157220814Y-107690609D01*
X157089711Y-107778210D01*
X157089707Y-107778213D01*
X156978213Y-107889707D01*
X156978210Y-107889711D01*
X156924368Y-107970291D01*
X156870755Y-108015096D01*
X156801430Y-108023803D01*
X156797075Y-108023017D01*
X156678846Y-107999500D01*
X156678842Y-107999500D01*
X156521158Y-107999500D01*
X156521155Y-107999500D01*
X156366510Y-108030261D01*
X156366498Y-108030264D01*
X156220827Y-108090602D01*
X156220814Y-108090609D01*
X156089711Y-108178210D01*
X156089707Y-108178213D01*
X155978213Y-108289707D01*
X155978210Y-108289711D01*
X155890609Y-108420814D01*
X155890602Y-108420827D01*
X155830264Y-108566498D01*
X155830261Y-108566510D01*
X155799500Y-108721153D01*
X155799500Y-108878846D01*
X155830261Y-109033489D01*
X155830264Y-109033501D01*
X155890602Y-109179172D01*
X155890609Y-109179185D01*
X155978210Y-109310288D01*
X155978213Y-109310292D01*
X156089707Y-109421786D01*
X156089711Y-109421789D01*
X156220814Y-109509390D01*
X156220827Y-109509397D01*
X156327199Y-109553457D01*
X156366503Y-109569737D01*
X156431147Y-109582595D01*
X156521849Y-109600638D01*
X156583760Y-109633023D01*
X156585339Y-109634574D01*
X160726448Y-113775683D01*
X160759933Y-113837006D01*
X160754949Y-113906698D01*
X160753329Y-113910814D01*
X160730263Y-113966502D01*
X160730260Y-113966511D01*
X160699500Y-114121153D01*
X160699500Y-114278846D01*
X160730261Y-114433489D01*
X160730264Y-114433501D01*
X160790602Y-114579172D01*
X160790609Y-114579185D01*
X160878210Y-114710288D01*
X160878213Y-114710292D01*
X160989707Y-114821786D01*
X160989711Y-114821789D01*
X161120814Y-114909390D01*
X161120827Y-114909397D01*
X161218853Y-114950000D01*
X161266503Y-114969737D01*
X161421153Y-115000499D01*
X161421156Y-115000500D01*
X161421158Y-115000500D01*
X161578844Y-115000500D01*
X161578845Y-115000499D01*
X161733497Y-114969737D01*
X161879179Y-114909394D01*
X162010289Y-114821789D01*
X162121789Y-114710289D01*
X162209394Y-114579179D01*
X162269737Y-114433497D01*
X162300500Y-114278842D01*
X162300500Y-114121158D01*
X162300500Y-114121155D01*
X162300499Y-114121153D01*
X162280827Y-114022255D01*
X162269737Y-113966503D01*
X162244965Y-113906697D01*
X162209397Y-113820827D01*
X162209390Y-113820814D01*
X162121398Y-113689125D01*
X162102532Y-113628875D01*
X162101561Y-113629003D01*
X162100826Y-113623426D01*
X162100520Y-113622447D01*
X162100506Y-113620997D01*
X162100500Y-113620950D01*
X162100500Y-113620943D01*
X162059577Y-113468216D01*
X162031440Y-113419480D01*
X161980524Y-113331290D01*
X161980521Y-113331286D01*
X161980520Y-113331284D01*
X161868716Y-113219480D01*
X161868715Y-113219479D01*
X161864385Y-113215149D01*
X161864374Y-113215139D01*
X161628116Y-112978881D01*
X161594631Y-112917558D01*
X161599615Y-112847866D01*
X161619958Y-112812517D01*
X161621770Y-112810307D01*
X161621789Y-112810289D01*
X161709394Y-112679179D01*
X161769737Y-112533497D01*
X161800500Y-112378842D01*
X161800500Y-112221158D01*
X161800500Y-112221155D01*
X161800499Y-112221153D01*
X161796029Y-112198680D01*
X161769737Y-112066503D01*
X161742350Y-112000384D01*
X161709397Y-111920827D01*
X161709395Y-111920823D01*
X161709394Y-111920821D01*
X161679518Y-111876108D01*
X161658640Y-111809431D01*
X161677124Y-111742051D01*
X161729103Y-111695360D01*
X161798073Y-111684184D01*
X161862137Y-111712069D01*
X161870301Y-111719536D01*
X163863181Y-113712416D01*
X163896666Y-113773739D01*
X163899500Y-113800097D01*
X163899500Y-117820234D01*
X163879815Y-117887273D01*
X163878602Y-117889125D01*
X163790609Y-118020814D01*
X163790602Y-118020827D01*
X163730264Y-118166498D01*
X163730261Y-118166510D01*
X163699500Y-118321153D01*
X163699500Y-118478846D01*
X163730261Y-118633489D01*
X163730264Y-118633501D01*
X163790602Y-118779172D01*
X163790609Y-118779185D01*
X163878210Y-118910288D01*
X163878213Y-118910292D01*
X163955740Y-118987819D01*
X163989225Y-119049142D01*
X163984241Y-119118834D01*
X163942369Y-119174767D01*
X163876905Y-119199184D01*
X163868059Y-119199500D01*
X162086669Y-119199500D01*
X162086653Y-119199499D01*
X162079057Y-119199499D01*
X161920943Y-119199499D01*
X161841010Y-119220917D01*
X161768216Y-119240422D01*
X161735038Y-119259578D01*
X161735037Y-119259577D01*
X161631287Y-119319477D01*
X161631282Y-119319481D01*
X161519478Y-119431286D01*
X160687584Y-120263181D01*
X160626261Y-120296666D01*
X160599903Y-120299500D01*
X159217848Y-120299500D01*
X159150809Y-120279815D01*
X159105054Y-120227011D01*
X159096231Y-120199692D01*
X159069738Y-120066508D01*
X159069737Y-120066507D01*
X159069737Y-120066503D01*
X159033427Y-119978842D01*
X159009397Y-119920827D01*
X159009390Y-119920814D01*
X158921398Y-119789125D01*
X158900520Y-119722447D01*
X158900500Y-119720234D01*
X158900500Y-116221153D01*
X159399500Y-116221153D01*
X159399500Y-116378846D01*
X159430261Y-116533489D01*
X159430264Y-116533501D01*
X159490602Y-116679172D01*
X159490609Y-116679185D01*
X159578210Y-116810288D01*
X159578213Y-116810292D01*
X159689707Y-116921786D01*
X159689711Y-116921789D01*
X159820814Y-117009390D01*
X159820827Y-117009397D01*
X159966498Y-117069735D01*
X159966503Y-117069737D01*
X160121153Y-117100499D01*
X160121156Y-117100500D01*
X160121158Y-117100500D01*
X160278844Y-117100500D01*
X160278845Y-117100499D01*
X160433497Y-117069737D01*
X160579179Y-117009394D01*
X160696079Y-116931284D01*
X160710875Y-116921398D01*
X160728921Y-116915747D01*
X160744831Y-116905523D01*
X160775792Y-116901071D01*
X160777553Y-116900520D01*
X160779766Y-116900500D01*
X160920234Y-116900500D01*
X160987273Y-116920185D01*
X160989125Y-116921398D01*
X161120814Y-117009390D01*
X161120827Y-117009397D01*
X161266498Y-117069735D01*
X161266503Y-117069737D01*
X161421153Y-117100499D01*
X161421156Y-117100500D01*
X161421158Y-117100500D01*
X161578844Y-117100500D01*
X161578845Y-117100499D01*
X161733497Y-117069737D01*
X161879179Y-117009394D01*
X162010289Y-116921789D01*
X162121789Y-116810289D01*
X162209394Y-116679179D01*
X162269737Y-116533497D01*
X162300500Y-116378842D01*
X162300500Y-116221158D01*
X162300500Y-116221155D01*
X162300499Y-116221153D01*
X162279055Y-116113348D01*
X162269737Y-116066503D01*
X162237048Y-115987583D01*
X162209397Y-115920827D01*
X162209390Y-115920814D01*
X162121789Y-115789711D01*
X162121786Y-115789707D01*
X162010292Y-115678213D01*
X162010288Y-115678210D01*
X161879185Y-115590609D01*
X161879172Y-115590602D01*
X161733501Y-115530264D01*
X161733489Y-115530261D01*
X161578845Y-115499500D01*
X161578842Y-115499500D01*
X161421158Y-115499500D01*
X161421155Y-115499500D01*
X161266510Y-115530261D01*
X161266498Y-115530264D01*
X161120827Y-115590602D01*
X161120814Y-115590609D01*
X160989125Y-115678602D01*
X160971078Y-115684252D01*
X160955169Y-115694477D01*
X160924207Y-115698928D01*
X160922447Y-115699480D01*
X160920234Y-115699500D01*
X160779766Y-115699500D01*
X160712727Y-115679815D01*
X160710875Y-115678602D01*
X160579185Y-115590609D01*
X160579172Y-115590602D01*
X160433501Y-115530264D01*
X160433489Y-115530261D01*
X160278845Y-115499500D01*
X160278842Y-115499500D01*
X160121158Y-115499500D01*
X160121155Y-115499500D01*
X159966510Y-115530261D01*
X159966498Y-115530264D01*
X159820827Y-115590602D01*
X159820814Y-115590609D01*
X159689711Y-115678210D01*
X159689707Y-115678213D01*
X159578213Y-115789707D01*
X159578210Y-115789711D01*
X159490609Y-115920814D01*
X159490602Y-115920827D01*
X159430264Y-116066498D01*
X159430261Y-116066510D01*
X159399500Y-116221153D01*
X158900500Y-116221153D01*
X158900500Y-113120944D01*
X158900500Y-113120943D01*
X158890079Y-113082052D01*
X158859577Y-112968215D01*
X158826255Y-112910500D01*
X158780520Y-112831284D01*
X158668716Y-112719480D01*
X158668715Y-112719479D01*
X158664385Y-112715149D01*
X158664374Y-112715139D01*
X155734574Y-109785339D01*
X155701089Y-109724016D01*
X155700638Y-109721849D01*
X155669738Y-109566510D01*
X155669737Y-109566503D01*
X155650812Y-109520814D01*
X155609397Y-109420827D01*
X155609390Y-109420814D01*
X155521789Y-109289711D01*
X155521786Y-109289707D01*
X155410292Y-109178213D01*
X155410288Y-109178210D01*
X155279185Y-109090609D01*
X155279172Y-109090602D01*
X155133501Y-109030264D01*
X155133489Y-109030261D01*
X154978845Y-108999500D01*
X154978842Y-108999500D01*
X154821158Y-108999500D01*
X154821155Y-108999500D01*
X154666510Y-109030261D01*
X154666498Y-109030264D01*
X154520827Y-109090602D01*
X154520814Y-109090609D01*
X154389711Y-109178210D01*
X154389707Y-109178213D01*
X154278213Y-109289707D01*
X154278210Y-109289711D01*
X154190609Y-109420814D01*
X154190602Y-109420827D01*
X154130264Y-109566498D01*
X154130261Y-109566510D01*
X154099500Y-109721153D01*
X154099500Y-109878846D01*
X154130261Y-110033489D01*
X154130264Y-110033501D01*
X154190602Y-110179172D01*
X154190609Y-110179185D01*
X154278210Y-110310288D01*
X154278213Y-110310292D01*
X154389707Y-110421786D01*
X154389711Y-110421789D01*
X154520814Y-110509390D01*
X154520827Y-110509397D01*
X154620065Y-110550502D01*
X154666503Y-110569737D01*
X154731147Y-110582595D01*
X154821849Y-110600638D01*
X154883760Y-110633023D01*
X154885339Y-110634574D01*
X157663181Y-113412416D01*
X157696666Y-113473739D01*
X157699500Y-113500097D01*
X157699500Y-119720234D01*
X157679815Y-119787273D01*
X157678602Y-119789125D01*
X157590609Y-119920814D01*
X157590602Y-119920827D01*
X157530264Y-120066498D01*
X157530261Y-120066508D01*
X157503769Y-120199692D01*
X157471384Y-120261603D01*
X157410668Y-120296177D01*
X157382152Y-120299500D01*
X152279766Y-120299500D01*
X152212727Y-120279815D01*
X152210875Y-120278602D01*
X152079185Y-120190609D01*
X152079172Y-120190602D01*
X151933501Y-120130264D01*
X151933489Y-120130261D01*
X151778845Y-120099500D01*
X151778842Y-120099500D01*
X151621158Y-120099500D01*
X151621155Y-120099500D01*
X151466510Y-120130261D01*
X151466498Y-120130264D01*
X151320827Y-120190602D01*
X151320814Y-120190609D01*
X151189711Y-120278210D01*
X151189707Y-120278213D01*
X151078213Y-120389707D01*
X151078210Y-120389711D01*
X150990609Y-120520814D01*
X150990602Y-120520827D01*
X150930264Y-120666498D01*
X150930261Y-120666508D01*
X150903769Y-120799692D01*
X150871384Y-120861603D01*
X150810668Y-120896177D01*
X150782152Y-120899500D01*
X143066259Y-120899500D01*
X142999220Y-120879815D01*
X142953465Y-120827011D01*
X142951698Y-120822952D01*
X142909397Y-120720827D01*
X142909390Y-120720814D01*
X142821789Y-120589711D01*
X142821786Y-120589707D01*
X142710292Y-120478213D01*
X142710288Y-120478210D01*
X142579185Y-120390609D01*
X142579172Y-120390602D01*
X142433501Y-120330264D01*
X142433489Y-120330261D01*
X142278845Y-120299500D01*
X142278842Y-120299500D01*
X142121158Y-120299500D01*
X142121155Y-120299500D01*
X141966510Y-120330261D01*
X141966498Y-120330264D01*
X141820827Y-120390602D01*
X141820814Y-120390609D01*
X141689711Y-120478210D01*
X141689707Y-120478213D01*
X141578213Y-120589707D01*
X141578210Y-120589711D01*
X141490609Y-120720814D01*
X141490602Y-120720827D01*
X141430264Y-120866498D01*
X141430261Y-120866510D01*
X141399500Y-121021153D01*
X141399500Y-121178846D01*
X141430261Y-121333489D01*
X141430264Y-121333501D01*
X141490602Y-121479172D01*
X141490609Y-121479185D01*
X141578210Y-121610288D01*
X141578213Y-121610292D01*
X141689707Y-121721786D01*
X141689711Y-121721789D01*
X141820814Y-121809390D01*
X141820827Y-121809397D01*
X141966498Y-121869735D01*
X141966503Y-121869737D01*
X142121158Y-121900500D01*
X142121847Y-121900637D01*
X142138367Y-121909278D01*
X142156604Y-121913162D01*
X142182072Y-121932140D01*
X142183758Y-121933022D01*
X142184951Y-121934188D01*
X142185065Y-121934301D01*
X142231284Y-121980520D01*
X142232261Y-121981084D01*
X142238667Y-121987434D01*
X142251907Y-122011431D01*
X142268067Y-122033569D01*
X142268543Y-122041581D01*
X142272421Y-122048610D01*
X142270586Y-122075955D01*
X142272212Y-122103316D01*
X142268280Y-122110314D01*
X142267743Y-122118323D01*
X142251414Y-122140335D01*
X142237991Y-122164231D01*
X142230900Y-122167992D01*
X142226118Y-122174440D01*
X142200480Y-122184130D01*
X142176269Y-122196975D01*
X142162916Y-122198329D01*
X142160761Y-122199144D01*
X142158864Y-122198740D01*
X142151372Y-122199500D01*
X133486670Y-122199500D01*
X133486654Y-122199499D01*
X133479058Y-122199499D01*
X133320943Y-122199499D01*
X133320939Y-122199499D01*
X133315902Y-122200162D01*
X133285000Y-122199150D01*
X133284907Y-122200097D01*
X133278845Y-122199500D01*
X133278842Y-122199500D01*
X133121158Y-122199500D01*
X133121155Y-122199500D01*
X132966510Y-122230261D01*
X132966498Y-122230264D01*
X132820827Y-122290602D01*
X132820814Y-122290609D01*
X132689711Y-122378210D01*
X132689707Y-122378213D01*
X132578213Y-122489707D01*
X132578210Y-122489711D01*
X132490609Y-122620814D01*
X132490602Y-122620827D01*
X132430264Y-122766498D01*
X132430261Y-122766510D01*
X132399500Y-122921153D01*
X132399500Y-123078846D01*
X132430261Y-123233489D01*
X132430264Y-123233501D01*
X132490602Y-123379172D01*
X132490609Y-123379185D01*
X132578210Y-123510288D01*
X132578213Y-123510292D01*
X132689707Y-123621786D01*
X132689711Y-123621789D01*
X132820814Y-123709390D01*
X132820827Y-123709397D01*
X132956788Y-123765713D01*
X132966503Y-123769737D01*
X133121153Y-123800499D01*
X133121156Y-123800500D01*
X133121158Y-123800500D01*
X133278844Y-123800500D01*
X133278845Y-123800499D01*
X133433497Y-123769737D01*
X133579179Y-123709394D01*
X133710289Y-123621789D01*
X133821789Y-123510289D01*
X133858325Y-123455610D01*
X133911937Y-123410804D01*
X133961427Y-123400500D01*
X137382152Y-123400500D01*
X137449191Y-123420185D01*
X137494946Y-123472989D01*
X137503769Y-123500308D01*
X137530261Y-123633491D01*
X137530264Y-123633501D01*
X137590602Y-123779172D01*
X137590609Y-123779185D01*
X137678602Y-123910874D01*
X137699480Y-123977551D01*
X137699500Y-123979765D01*
X137699500Y-126413330D01*
X137699499Y-126413348D01*
X137699499Y-126579054D01*
X137699498Y-126579054D01*
X137716742Y-126643406D01*
X137715079Y-126713256D01*
X137675917Y-126771119D01*
X137611688Y-126798623D01*
X137596967Y-126799500D01*
X119924500Y-126799500D01*
X119857461Y-126779815D01*
X119811706Y-126727011D01*
X119800500Y-126675500D01*
X119800500Y-123993713D01*
X122049500Y-123993713D01*
X122049500Y-124206286D01*
X122078662Y-124390412D01*
X122082754Y-124416243D01*
X122139117Y-124589711D01*
X122148444Y-124618414D01*
X122244951Y-124807820D01*
X122369890Y-124979786D01*
X122520213Y-125130109D01*
X122692179Y-125255048D01*
X122692181Y-125255049D01*
X122692184Y-125255051D01*
X122881588Y-125351557D01*
X123083757Y-125417246D01*
X123293713Y-125450500D01*
X123293714Y-125450500D01*
X123506286Y-125450500D01*
X123506287Y-125450500D01*
X123716243Y-125417246D01*
X123918412Y-125351557D01*
X124107816Y-125255051D01*
X124152619Y-125222500D01*
X124279786Y-125130109D01*
X124279788Y-125130106D01*
X124279792Y-125130104D01*
X124430104Y-124979792D01*
X124430106Y-124979788D01*
X124430109Y-124979786D01*
X124555048Y-124807820D01*
X124555047Y-124807820D01*
X124555051Y-124807816D01*
X124651557Y-124618412D01*
X124717246Y-124416243D01*
X124750500Y-124206287D01*
X124750500Y-123993713D01*
X124717246Y-123783757D01*
X124651557Y-123581588D01*
X124555051Y-123392184D01*
X124555049Y-123392181D01*
X124555048Y-123392179D01*
X124430109Y-123220213D01*
X124279786Y-123069890D01*
X124107820Y-122944951D01*
X123918414Y-122848444D01*
X123918413Y-122848443D01*
X123918412Y-122848443D01*
X123716243Y-122782754D01*
X123716241Y-122782753D01*
X123716240Y-122782753D01*
X123554957Y-122757208D01*
X123506287Y-122749500D01*
X123293713Y-122749500D01*
X123245042Y-122757208D01*
X123083760Y-122782753D01*
X123083757Y-122782754D01*
X122901738Y-122841896D01*
X122881585Y-122848444D01*
X122692179Y-122944951D01*
X122520213Y-123069890D01*
X122369890Y-123220213D01*
X122244951Y-123392179D01*
X122148444Y-123581585D01*
X122082753Y-123783760D01*
X122049500Y-123993713D01*
X119800500Y-123993713D01*
X119800500Y-111799616D01*
X120384500Y-111799616D01*
X120384500Y-112000384D01*
X120404992Y-112129765D01*
X120415907Y-112198680D01*
X120477949Y-112389626D01*
X120547989Y-112527085D01*
X120569095Y-112568508D01*
X120687103Y-112730932D01*
X120829068Y-112872897D01*
X120991492Y-112990905D01*
X121055430Y-113023483D01*
X121126146Y-113059515D01*
X121176942Y-113107490D01*
X121193737Y-113175311D01*
X121171199Y-113241446D01*
X121126146Y-113280485D01*
X120991491Y-113349095D01*
X120904338Y-113412416D01*
X120829068Y-113467103D01*
X120829066Y-113467105D01*
X120829065Y-113467105D01*
X120687105Y-113609065D01*
X120687105Y-113609066D01*
X120687103Y-113609068D01*
X120659026Y-113647713D01*
X120569095Y-113771491D01*
X120477949Y-113950373D01*
X120415907Y-114141319D01*
X120410331Y-114176524D01*
X120384500Y-114339616D01*
X120384500Y-114540384D01*
X120396015Y-114613085D01*
X120415907Y-114738680D01*
X120477949Y-114929626D01*
X120514062Y-115000500D01*
X120569095Y-115108508D01*
X120687103Y-115270932D01*
X120829068Y-115412897D01*
X120991492Y-115530905D01*
X121071285Y-115571561D01*
X121126146Y-115599515D01*
X121176942Y-115647490D01*
X121193737Y-115715311D01*
X121171199Y-115781446D01*
X121126146Y-115820485D01*
X120991491Y-115889095D01*
X120905922Y-115951265D01*
X120829068Y-116007103D01*
X120829066Y-116007105D01*
X120829065Y-116007105D01*
X120687105Y-116149065D01*
X120687105Y-116149066D01*
X120687103Y-116149068D01*
X120636423Y-116218822D01*
X120569095Y-116311491D01*
X120477949Y-116490373D01*
X120415907Y-116681319D01*
X120384500Y-116879616D01*
X120384500Y-117080383D01*
X120415907Y-117278680D01*
X120477949Y-117469626D01*
X120518258Y-117548735D01*
X120569095Y-117648508D01*
X120687103Y-117810932D01*
X120829068Y-117952897D01*
X120991492Y-118070905D01*
X121047574Y-118099480D01*
X121170373Y-118162050D01*
X121170375Y-118162050D01*
X121170378Y-118162052D01*
X121361320Y-118224093D01*
X121559616Y-118255500D01*
X121559617Y-118255500D01*
X121760383Y-118255500D01*
X121760384Y-118255500D01*
X121958680Y-118224093D01*
X122149622Y-118162052D01*
X122328508Y-118070905D01*
X122490932Y-117952897D01*
X122632897Y-117810932D01*
X122750905Y-117648508D01*
X122819515Y-117513852D01*
X122867490Y-117463057D01*
X122935311Y-117446262D01*
X123001445Y-117468799D01*
X123040484Y-117513852D01*
X123109095Y-117648508D01*
X123227103Y-117810932D01*
X123369068Y-117952897D01*
X123531492Y-118070905D01*
X123587574Y-118099480D01*
X123710373Y-118162050D01*
X123710375Y-118162050D01*
X123710378Y-118162052D01*
X123901320Y-118224093D01*
X124099616Y-118255500D01*
X124099617Y-118255500D01*
X124300383Y-118255500D01*
X124300384Y-118255500D01*
X124498680Y-118224093D01*
X124689622Y-118162052D01*
X124868508Y-118070905D01*
X125030932Y-117952897D01*
X125172897Y-117810932D01*
X125290905Y-117648508D01*
X125382052Y-117469622D01*
X125444093Y-117278680D01*
X125475500Y-117080384D01*
X125475500Y-116879616D01*
X125444093Y-116681320D01*
X125382052Y-116490378D01*
X125382050Y-116490375D01*
X125382050Y-116490373D01*
X125333967Y-116396007D01*
X125290905Y-116311492D01*
X125172897Y-116149068D01*
X125030932Y-116007103D01*
X124868508Y-115889095D01*
X124868504Y-115889093D01*
X124733303Y-115820204D01*
X124682507Y-115772229D01*
X124665712Y-115704408D01*
X124688250Y-115638273D01*
X124733304Y-115599234D01*
X124868243Y-115530479D01*
X124868245Y-115530478D01*
X124908022Y-115501576D01*
X124337574Y-114931128D01*
X124396853Y-114915245D01*
X124513147Y-114848102D01*
X124608102Y-114753147D01*
X124675245Y-114636853D01*
X124691128Y-114577574D01*
X125261576Y-115148022D01*
X125290477Y-115108246D01*
X125381587Y-114929432D01*
X125443606Y-114738559D01*
X125475000Y-114540350D01*
X125475000Y-114339649D01*
X125443606Y-114141440D01*
X125381587Y-113950567D01*
X125290478Y-113771754D01*
X125261576Y-113731976D01*
X125261576Y-113731975D01*
X124691128Y-114302424D01*
X124675245Y-114243147D01*
X124608102Y-114126853D01*
X124513147Y-114031898D01*
X124396853Y-113964755D01*
X124337574Y-113948871D01*
X124908023Y-113378423D01*
X124908022Y-113378422D01*
X124868246Y-113349522D01*
X124733303Y-113280765D01*
X124682507Y-113232790D01*
X124665712Y-113164969D01*
X124688249Y-113098834D01*
X124733301Y-113059795D01*
X124868508Y-112990905D01*
X125030932Y-112872897D01*
X125172897Y-112730932D01*
X125290905Y-112568508D01*
X125382052Y-112389622D01*
X125444093Y-112198680D01*
X125475500Y-112000384D01*
X125475500Y-111799616D01*
X125444093Y-111601320D01*
X125382052Y-111410378D01*
X125382050Y-111410375D01*
X125382050Y-111410373D01*
X125290904Y-111231491D01*
X125172897Y-111069068D01*
X125030932Y-110927103D01*
X124868508Y-110809095D01*
X124689626Y-110717949D01*
X124498680Y-110655907D01*
X124300384Y-110624500D01*
X124099616Y-110624500D01*
X124000468Y-110640203D01*
X123901319Y-110655907D01*
X123710373Y-110717949D01*
X123531491Y-110809095D01*
X123438822Y-110876423D01*
X123369068Y-110927103D01*
X123369066Y-110927105D01*
X123369065Y-110927105D01*
X123227105Y-111069065D01*
X123227105Y-111069066D01*
X123227103Y-111069068D01*
X123176423Y-111138822D01*
X123109095Y-111231491D01*
X123040485Y-111366146D01*
X122992510Y-111416942D01*
X122924689Y-111433737D01*
X122858554Y-111411199D01*
X122819515Y-111366146D01*
X122750904Y-111231491D01*
X122632897Y-111069068D01*
X122490932Y-110927103D01*
X122328508Y-110809095D01*
X122149626Y-110717949D01*
X121958680Y-110655907D01*
X121760384Y-110624500D01*
X121559616Y-110624500D01*
X121460468Y-110640203D01*
X121361319Y-110655907D01*
X121170373Y-110717949D01*
X120991491Y-110809095D01*
X120898822Y-110876423D01*
X120829068Y-110927103D01*
X120829066Y-110927105D01*
X120829065Y-110927105D01*
X120687105Y-111069065D01*
X120687105Y-111069066D01*
X120687103Y-111069068D01*
X120636423Y-111138822D01*
X120569095Y-111231491D01*
X120477949Y-111410373D01*
X120415907Y-111601319D01*
X120398366Y-111712069D01*
X120384500Y-111799616D01*
X119800500Y-111799616D01*
X119800500Y-96021153D01*
X159399500Y-96021153D01*
X159399500Y-96178846D01*
X159430261Y-96333489D01*
X159430264Y-96333501D01*
X159490602Y-96479172D01*
X159490609Y-96479185D01*
X159578602Y-96610874D01*
X159599480Y-96677551D01*
X159599500Y-96679765D01*
X159599500Y-103513330D01*
X159599499Y-103513348D01*
X159599499Y-103679054D01*
X159599498Y-103679054D01*
X159640423Y-103831785D01*
X159669358Y-103881900D01*
X159669359Y-103881904D01*
X159669360Y-103881904D01*
X159719479Y-103968714D01*
X159719481Y-103968717D01*
X159838349Y-104087585D01*
X159838355Y-104087590D01*
X162315139Y-106564374D01*
X162315149Y-106564385D01*
X162319479Y-106568715D01*
X162319480Y-106568716D01*
X162431284Y-106680520D01*
X162518095Y-106730639D01*
X162518097Y-106730641D01*
X162568213Y-106759576D01*
X162568215Y-106759577D01*
X162720942Y-106800500D01*
X162720943Y-106800500D01*
X162720950Y-106800500D01*
X162729002Y-106801561D01*
X162728810Y-106803018D01*
X162787273Y-106820185D01*
X162789125Y-106821398D01*
X162920814Y-106909390D01*
X162920827Y-106909397D01*
X163066498Y-106969735D01*
X163066503Y-106969737D01*
X163221153Y-107000499D01*
X163221156Y-107000500D01*
X163221158Y-107000500D01*
X163378844Y-107000500D01*
X163378845Y-107000499D01*
X163533497Y-106969737D01*
X163679179Y-106909394D01*
X163810289Y-106821789D01*
X163921789Y-106710289D01*
X164009394Y-106579179D01*
X164011449Y-106574219D01*
X164033427Y-106521158D01*
X164069737Y-106433497D01*
X164100500Y-106278842D01*
X164100500Y-106121158D01*
X164100500Y-106121155D01*
X164100499Y-106121153D01*
X164094244Y-106089707D01*
X164069737Y-105966503D01*
X164054775Y-105930381D01*
X164009397Y-105820827D01*
X164009390Y-105820814D01*
X163921789Y-105689711D01*
X163921786Y-105689707D01*
X163844260Y-105612181D01*
X163833647Y-105592744D01*
X163819147Y-105576011D01*
X163817230Y-105562679D01*
X163810775Y-105550858D01*
X163812354Y-105528771D01*
X163809203Y-105506853D01*
X163814798Y-105494601D01*
X163815759Y-105481166D01*
X163829029Y-105463439D01*
X163838228Y-105443297D01*
X163849559Y-105436014D01*
X163857631Y-105425233D01*
X163878376Y-105417495D01*
X163897006Y-105405523D01*
X163918924Y-105402371D01*
X163923095Y-105400816D01*
X163931941Y-105400500D01*
X164117060Y-105400500D01*
X164184099Y-105420185D01*
X164204736Y-105436814D01*
X164249088Y-105481166D01*
X164289712Y-105521790D01*
X164420814Y-105609390D01*
X164420827Y-105609397D01*
X164541052Y-105659195D01*
X164566503Y-105669737D01*
X164717176Y-105699708D01*
X164721153Y-105700499D01*
X164721156Y-105700500D01*
X164721158Y-105700500D01*
X164878844Y-105700500D01*
X164878845Y-105700499D01*
X165033497Y-105669737D01*
X165179179Y-105609394D01*
X165310289Y-105521789D01*
X165421789Y-105410289D01*
X165509394Y-105279179D01*
X165569737Y-105133497D01*
X165600500Y-104978842D01*
X165600500Y-104821158D01*
X165600500Y-104821155D01*
X165600499Y-104821153D01*
X165598338Y-104810288D01*
X165569737Y-104666503D01*
X165528316Y-104566503D01*
X165509397Y-104520827D01*
X165509390Y-104520814D01*
X165421789Y-104389711D01*
X165421786Y-104389707D01*
X165310292Y-104278213D01*
X165310288Y-104278210D01*
X165179185Y-104190609D01*
X165179172Y-104190602D01*
X165033501Y-104130264D01*
X165033489Y-104130261D01*
X164878845Y-104099500D01*
X164878842Y-104099500D01*
X164721158Y-104099500D01*
X164721155Y-104099500D01*
X164566510Y-104130261D01*
X164566498Y-104130264D01*
X164422136Y-104190061D01*
X164374684Y-104199500D01*
X163379766Y-104199500D01*
X163312727Y-104179815D01*
X163310875Y-104178602D01*
X163179185Y-104090609D01*
X163179172Y-104090602D01*
X163033501Y-104030264D01*
X163033489Y-104030261D01*
X162878845Y-103999500D01*
X162878842Y-103999500D01*
X162721158Y-103999500D01*
X162721155Y-103999500D01*
X162566510Y-104030261D01*
X162566498Y-104030264D01*
X162420827Y-104090602D01*
X162420814Y-104090609D01*
X162289711Y-104178210D01*
X162289707Y-104178213D01*
X162178213Y-104289707D01*
X162178210Y-104289711D01*
X162087221Y-104425886D01*
X162085263Y-104424578D01*
X162043573Y-104466973D01*
X161975426Y-104482395D01*
X161909760Y-104458526D01*
X161895557Y-104446322D01*
X160836819Y-103387584D01*
X160803334Y-103326261D01*
X160800500Y-103299903D01*
X160800500Y-96679765D01*
X160820185Y-96612726D01*
X160821398Y-96610874D01*
X160909390Y-96479185D01*
X160909390Y-96479184D01*
X160909394Y-96479179D01*
X160969737Y-96333497D01*
X161000500Y-96178842D01*
X161000500Y-96021158D01*
X161000500Y-96021155D01*
X161000499Y-96021153D01*
X160969738Y-95866510D01*
X160969737Y-95866503D01*
X160969735Y-95866498D01*
X160909397Y-95720827D01*
X160909390Y-95720814D01*
X160821789Y-95589711D01*
X160821786Y-95589707D01*
X160710292Y-95478213D01*
X160710288Y-95478210D01*
X160579185Y-95390609D01*
X160579172Y-95390602D01*
X160433501Y-95330264D01*
X160433489Y-95330261D01*
X160278845Y-95299500D01*
X160278842Y-95299500D01*
X160121158Y-95299500D01*
X160121155Y-95299500D01*
X159966510Y-95330261D01*
X159966498Y-95330264D01*
X159820827Y-95390602D01*
X159820814Y-95390609D01*
X159689711Y-95478210D01*
X159689707Y-95478213D01*
X159578213Y-95589707D01*
X159578210Y-95589711D01*
X159490609Y-95720814D01*
X159490602Y-95720827D01*
X159430264Y-95866498D01*
X159430261Y-95866510D01*
X159399500Y-96021153D01*
X119800500Y-96021153D01*
X119800500Y-90721153D01*
X121199500Y-90721153D01*
X121199500Y-90878846D01*
X121230261Y-91033489D01*
X121230264Y-91033501D01*
X121290602Y-91179172D01*
X121290609Y-91179185D01*
X121378210Y-91310288D01*
X121378213Y-91310292D01*
X121489707Y-91421786D01*
X121489711Y-91421789D01*
X121620814Y-91509390D01*
X121620827Y-91509397D01*
X121720060Y-91550500D01*
X121766503Y-91569737D01*
X121921153Y-91600499D01*
X121921156Y-91600500D01*
X121921158Y-91600500D01*
X122078844Y-91600500D01*
X122078845Y-91600499D01*
X122155152Y-91585320D01*
X122233488Y-91569739D01*
X122233489Y-91569738D01*
X122233497Y-91569737D01*
X122257155Y-91559937D01*
X122304604Y-91550500D01*
X126137770Y-91550500D01*
X126204809Y-91570185D01*
X126225451Y-91586819D01*
X126553927Y-91915295D01*
X126580807Y-91955523D01*
X126590604Y-91979175D01*
X126590609Y-91979185D01*
X126678210Y-92110288D01*
X126678213Y-92110292D01*
X126789707Y-92221786D01*
X126789711Y-92221789D01*
X126920814Y-92309390D01*
X126920827Y-92309397D01*
X127066498Y-92369735D01*
X127066503Y-92369737D01*
X127221153Y-92400499D01*
X127221156Y-92400500D01*
X127221158Y-92400500D01*
X127378844Y-92400500D01*
X127378845Y-92400499D01*
X127533497Y-92369737D01*
X127679179Y-92309394D01*
X127810289Y-92221789D01*
X127921789Y-92110289D01*
X128009394Y-91979179D01*
X128069737Y-91833497D01*
X128100500Y-91678842D01*
X128100500Y-91521158D01*
X128100500Y-91521155D01*
X128100499Y-91521153D01*
X128080734Y-91421789D01*
X128069737Y-91366503D01*
X128036118Y-91285339D01*
X128009397Y-91220827D01*
X128009390Y-91220814D01*
X127921789Y-91089711D01*
X127921786Y-91089707D01*
X127810292Y-90978213D01*
X127810288Y-90978210D01*
X127679185Y-90890609D01*
X127679175Y-90890604D01*
X127655523Y-90880807D01*
X127615295Y-90853927D01*
X126978421Y-90217052D01*
X126978414Y-90217046D01*
X126904729Y-90167812D01*
X126904729Y-90167813D01*
X126855491Y-90134913D01*
X126718917Y-90078343D01*
X126718907Y-90078340D01*
X126573920Y-90049500D01*
X126573918Y-90049500D01*
X122304604Y-90049500D01*
X122257155Y-90040062D01*
X122233497Y-90030263D01*
X122233493Y-90030262D01*
X122233488Y-90030260D01*
X122078845Y-89999500D01*
X122078842Y-89999500D01*
X121921158Y-89999500D01*
X121921155Y-89999500D01*
X121766510Y-90030261D01*
X121766498Y-90030264D01*
X121620827Y-90090602D01*
X121620814Y-90090609D01*
X121489711Y-90178210D01*
X121489707Y-90178213D01*
X121378213Y-90289707D01*
X121378210Y-90289711D01*
X121290609Y-90420814D01*
X121290602Y-90420827D01*
X121230264Y-90566498D01*
X121230261Y-90566510D01*
X121199500Y-90721153D01*
X119800500Y-90721153D01*
X119800500Y-84671647D01*
X153969201Y-84671647D01*
X153969201Y-84928352D01*
X154009355Y-85181880D01*
X154088680Y-85426014D01*
X154143485Y-85533573D01*
X154192751Y-85630263D01*
X154205218Y-85654729D01*
X154294932Y-85778210D01*
X154356096Y-85862395D01*
X154537606Y-86043905D01*
X154745275Y-86194785D01*
X154891011Y-86269041D01*
X154973986Y-86311320D01*
X154973988Y-86311320D01*
X154973991Y-86311322D01*
X155104850Y-86353841D01*
X155218120Y-86390645D01*
X155471649Y-86430800D01*
X155471654Y-86430800D01*
X155728353Y-86430800D01*
X155981881Y-86390645D01*
X156226011Y-86311322D01*
X156454727Y-86194785D01*
X156662396Y-86043905D01*
X156843906Y-85862395D01*
X156994786Y-85654726D01*
X157111323Y-85426010D01*
X157190646Y-85181880D01*
X157209244Y-85064457D01*
X157230801Y-84928352D01*
X157230801Y-84671647D01*
X157190646Y-84418119D01*
X157133223Y-84241391D01*
X157111323Y-84173990D01*
X157111321Y-84173987D01*
X157111321Y-84173985D01*
X157069042Y-84091010D01*
X156994786Y-83945274D01*
X156843906Y-83737605D01*
X156662396Y-83556095D01*
X156563243Y-83484056D01*
X156454730Y-83405217D01*
X156454729Y-83405216D01*
X156454727Y-83405215D01*
X156322968Y-83338080D01*
X156226015Y-83288679D01*
X155981881Y-83209354D01*
X155728353Y-83169200D01*
X155728348Y-83169200D01*
X155471654Y-83169200D01*
X155471649Y-83169200D01*
X155218120Y-83209354D01*
X154973986Y-83288679D01*
X154745271Y-83405217D01*
X154537609Y-83556092D01*
X154537603Y-83556097D01*
X154356098Y-83737602D01*
X154356093Y-83737608D01*
X154205218Y-83945270D01*
X154088680Y-84173985D01*
X154009355Y-84418119D01*
X153969201Y-84671647D01*
X119800500Y-84671647D01*
X119800500Y-80190344D01*
X147427104Y-80190344D01*
X147427104Y-80409655D01*
X147455727Y-80627064D01*
X147512486Y-80838890D01*
X147596404Y-81041485D01*
X147596408Y-81041495D01*
X147706053Y-81231406D01*
X147839551Y-81405384D01*
X147839557Y-81405391D01*
X147994612Y-81560446D01*
X147994619Y-81560452D01*
X148168597Y-81693950D01*
X148358508Y-81803595D01*
X148358509Y-81803595D01*
X148358512Y-81803597D01*
X148561114Y-81887518D01*
X148772937Y-81944276D01*
X148990356Y-81972900D01*
X148990363Y-81972900D01*
X149209645Y-81972900D01*
X149209652Y-81972900D01*
X149427071Y-81944276D01*
X149638894Y-81887518D01*
X149841496Y-81803597D01*
X150031411Y-81693950D01*
X150205390Y-81560451D01*
X150360455Y-81405386D01*
X150493954Y-81231407D01*
X150603601Y-81041492D01*
X150687522Y-80838890D01*
X150744280Y-80627067D01*
X150772904Y-80409648D01*
X150772904Y-80190352D01*
X150744280Y-79972933D01*
X150687522Y-79761110D01*
X150603601Y-79558508D01*
X150599184Y-79550858D01*
X150493954Y-79368593D01*
X150360456Y-79194615D01*
X150360450Y-79194608D01*
X150205395Y-79039553D01*
X150205388Y-79039547D01*
X150031410Y-78906049D01*
X149841499Y-78796404D01*
X149841489Y-78796400D01*
X149638894Y-78712482D01*
X149427068Y-78655723D01*
X149209659Y-78627100D01*
X149209652Y-78627100D01*
X148990356Y-78627100D01*
X148990348Y-78627100D01*
X148772939Y-78655723D01*
X148561113Y-78712482D01*
X148358518Y-78796400D01*
X148358508Y-78796404D01*
X148168597Y-78906049D01*
X147994619Y-79039547D01*
X147994612Y-79039553D01*
X147839557Y-79194608D01*
X147839551Y-79194615D01*
X147706053Y-79368593D01*
X147596408Y-79558504D01*
X147596404Y-79558514D01*
X147512486Y-79761109D01*
X147455727Y-79972935D01*
X147427104Y-80190344D01*
X119800500Y-80190344D01*
X119800500Y-76831213D01*
X121349500Y-76831213D01*
X121349500Y-77043786D01*
X121376814Y-77216243D01*
X121382754Y-77253743D01*
X121436258Y-77418412D01*
X121448444Y-77455914D01*
X121544951Y-77645320D01*
X121669890Y-77817286D01*
X121820213Y-77967609D01*
X121992179Y-78092548D01*
X121992181Y-78092549D01*
X121992184Y-78092551D01*
X122181588Y-78189057D01*
X122383757Y-78254746D01*
X122593713Y-78288000D01*
X122593714Y-78288000D01*
X122806286Y-78288000D01*
X122806287Y-78288000D01*
X123016243Y-78254746D01*
X123218412Y-78189057D01*
X123407816Y-78092551D01*
X123459435Y-78055048D01*
X123578746Y-77968365D01*
X123579785Y-77967609D01*
X123579783Y-77967609D01*
X123579792Y-77967604D01*
X123730104Y-77817292D01*
X123730106Y-77817288D01*
X123730109Y-77817286D01*
X123855048Y-77645320D01*
X123855047Y-77645320D01*
X123855051Y-77645316D01*
X123951557Y-77455912D01*
X124017246Y-77253743D01*
X124050500Y-77043787D01*
X124050500Y-76831213D01*
X124025234Y-76671693D01*
X153969701Y-76671693D01*
X153969701Y-76928306D01*
X154009845Y-77181764D01*
X154009845Y-77181767D01*
X154089141Y-77425815D01*
X154205644Y-77654463D01*
X154284057Y-77762388D01*
X154284057Y-77762389D01*
X154826609Y-77219836D01*
X154919334Y-77358609D01*
X155041392Y-77480667D01*
X155180163Y-77573390D01*
X154637610Y-78115942D01*
X154745537Y-78194356D01*
X154974185Y-78310859D01*
X155218234Y-78390155D01*
X155471695Y-78430300D01*
X155728307Y-78430300D01*
X155981765Y-78390155D01*
X155981768Y-78390155D01*
X156225816Y-78310859D01*
X156454456Y-78194360D01*
X156454462Y-78194356D01*
X156562389Y-78115942D01*
X156562390Y-78115942D01*
X156019838Y-77573390D01*
X156158610Y-77480667D01*
X156280668Y-77358609D01*
X156373391Y-77219837D01*
X156915943Y-77762389D01*
X156915943Y-77762388D01*
X156994357Y-77654461D01*
X156994361Y-77654455D01*
X157110860Y-77425815D01*
X157190156Y-77181767D01*
X157190156Y-77181764D01*
X157230301Y-76928306D01*
X157230301Y-76671693D01*
X157190156Y-76418235D01*
X157190156Y-76418232D01*
X157110860Y-76174184D01*
X156994357Y-75945536D01*
X156915943Y-75837610D01*
X156915943Y-75837609D01*
X156373391Y-76380161D01*
X156280668Y-76241391D01*
X156158610Y-76119333D01*
X156019838Y-76026608D01*
X156562390Y-75484056D01*
X156454464Y-75405643D01*
X156225816Y-75289140D01*
X155981767Y-75209844D01*
X155728307Y-75169700D01*
X155471695Y-75169700D01*
X155218236Y-75209844D01*
X155218233Y-75209844D01*
X154974185Y-75289140D01*
X154745534Y-75405645D01*
X154637611Y-75484055D01*
X154637610Y-75484056D01*
X155180163Y-76026609D01*
X155041392Y-76119333D01*
X154919334Y-76241391D01*
X154826610Y-76380162D01*
X154284057Y-75837609D01*
X154284056Y-75837610D01*
X154205646Y-75945533D01*
X154089141Y-76174184D01*
X154009845Y-76418232D01*
X154009845Y-76418235D01*
X153969701Y-76671693D01*
X124025234Y-76671693D01*
X124017246Y-76621257D01*
X123951557Y-76419088D01*
X123855051Y-76229684D01*
X123855049Y-76229681D01*
X123855048Y-76229679D01*
X123730109Y-76057713D01*
X123579786Y-75907390D01*
X123407820Y-75782451D01*
X123218414Y-75685944D01*
X123218413Y-75685943D01*
X123218412Y-75685943D01*
X123016243Y-75620254D01*
X123016241Y-75620253D01*
X123016240Y-75620253D01*
X122854957Y-75594708D01*
X122806287Y-75587000D01*
X122593713Y-75587000D01*
X122545042Y-75594708D01*
X122383760Y-75620253D01*
X122181585Y-75685944D01*
X121992179Y-75782451D01*
X121820213Y-75907390D01*
X121669890Y-76057713D01*
X121544951Y-76229679D01*
X121448444Y-76419085D01*
X121382753Y-76621260D01*
X121349500Y-76831213D01*
X119800500Y-76831213D01*
X119800500Y-74224500D01*
X119820185Y-74157461D01*
X119872989Y-74111706D01*
X119924500Y-74100500D01*
X194375500Y-74100500D01*
X194442539Y-74120185D01*
G37*
%TD.AperFunction*%
%TA.AperFunction,Conductor*%
G36*
X176705703Y-84355384D02*
G01*
X176712181Y-84361416D01*
X180563181Y-88212416D01*
X180596666Y-88273739D01*
X180599500Y-88300097D01*
X180599500Y-107449905D01*
X180579815Y-107516944D01*
X180563181Y-107537586D01*
X179185339Y-108915427D01*
X179124016Y-108948912D01*
X179121850Y-108949363D01*
X178966508Y-108980263D01*
X178966498Y-108980266D01*
X178820827Y-109040604D01*
X178820814Y-109040611D01*
X178689711Y-109128212D01*
X178689707Y-109128215D01*
X178578213Y-109239709D01*
X178578210Y-109239713D01*
X178527602Y-109315453D01*
X178473989Y-109360258D01*
X178404664Y-109368965D01*
X178341637Y-109338810D01*
X178304918Y-109279367D01*
X178300500Y-109246562D01*
X178300500Y-92120943D01*
X178297647Y-92110293D01*
X178295023Y-92100500D01*
X178259577Y-91968215D01*
X178206605Y-91876465D01*
X178180520Y-91831284D01*
X178068716Y-91719480D01*
X178068713Y-91719478D01*
X177634574Y-91285339D01*
X177601089Y-91224016D01*
X177600638Y-91221849D01*
X177574353Y-91089711D01*
X177569737Y-91066503D01*
X177556062Y-91033489D01*
X177509397Y-90920827D01*
X177509390Y-90920814D01*
X177421789Y-90789711D01*
X177421786Y-90789707D01*
X177310292Y-90678213D01*
X177310288Y-90678210D01*
X177179185Y-90590609D01*
X177179172Y-90590602D01*
X177033501Y-90530264D01*
X177033489Y-90530261D01*
X176878845Y-90499500D01*
X176878842Y-90499500D01*
X176721158Y-90499500D01*
X176721155Y-90499500D01*
X176648691Y-90513914D01*
X176579100Y-90507687D01*
X176523922Y-90464824D01*
X176500678Y-90398934D01*
X176500500Y-90392297D01*
X176500500Y-84449097D01*
X176520185Y-84382058D01*
X176572989Y-84336303D01*
X176642147Y-84326359D01*
X176705703Y-84355384D01*
G37*
%TD.AperFunction*%
%TA.AperFunction,Conductor*%
G36*
X176648667Y-92086080D02*
G01*
X176709012Y-92098084D01*
X176721851Y-92100638D01*
X176783761Y-92133024D01*
X176785339Y-92134574D01*
X177063181Y-92412416D01*
X177096666Y-92473739D01*
X177099500Y-92500097D01*
X177099500Y-100275522D01*
X177079815Y-100342561D01*
X177027011Y-100388316D01*
X176957853Y-100398260D01*
X176894297Y-100369235D01*
X176863642Y-100326724D01*
X176863641Y-100326725D01*
X176863631Y-100326708D01*
X176860940Y-100322976D01*
X176859577Y-100319686D01*
X176780524Y-100182761D01*
X176780521Y-100182757D01*
X176780520Y-100182755D01*
X176668716Y-100070951D01*
X176668715Y-100070950D01*
X176664385Y-100066620D01*
X176664374Y-100066610D01*
X176536819Y-99939055D01*
X176503334Y-99877732D01*
X176500500Y-99851374D01*
X176500500Y-92207702D01*
X176520185Y-92140663D01*
X176572989Y-92094908D01*
X176642147Y-92084964D01*
X176648667Y-92086080D01*
G37*
%TD.AperFunction*%
%TD*%
M02*
