M48
; DRILL file KiCad 10.0.1 date 2026-09-07T23:58:20
; FORMAT={-:-/ absolute / metric / decimal}
; #@! TF.CreationDate,2026-09-07T23:58:20-07:00
; #@! TF.GenerationSoftware,Kicad,Pcbnew,10.0.1
; #@! TF.FileFunction,Plated,1,2,PTH
FMAT,2
METRIC
; #@! TA.AperFunction,Plated,PTH,ViaDrill
T1C0.300
; #@! TA.AperFunction,Plated,PTH,ComponentDrill
T2C0.600
; #@! TA.AperFunction,Plated,PTH,ComponentDrill
T3C0.850
; #@! TA.AperFunction,Plated,PTH,ComponentDrill
T4C1.020
; #@! TA.AperFunction,Plated,PTH,ComponentDrill
T5C1.753
%
G90
G05
T1
X122.0Y-90.8
X125.3Y-82.5
X127.3Y-91.6
X127.7Y-102.5
X127.8Y-114.5
X130.5Y-109.6
X131.1Y-91.1
X133.2Y-123.0
X137.8Y-79.3
X138.3Y-89.7
X138.3Y-123.4
X139.7Y-109.3
X142.2Y-121.1
X146.6Y-123.5
X148.5Y-109.2
X151.7Y-120.9
X153.8Y-75.8
X154.9Y-109.8
X156.6Y-108.8
X157.6Y-108.4
X158.2Y-125.1
X158.3Y-120.3
X158.4Y-107.4
X159.6Y-74.9
X160.2Y-96.1
X160.2Y-116.3
X161.0Y-112.3
X161.3Y-126.3
X161.5Y-114.2
X161.5Y-116.3
X162.3Y-90.7
X162.7Y-94.8
X162.8Y-104.8
X163.3Y-106.2
X163.6Y-75.2
X164.5Y-118.4
X164.8Y-104.9
X165.9Y-83.5
X166.7Y-87.7
X166.9Y-98.3
X166.9Y-122.4
X167.2Y-110.0
X167.5Y-90.6
X167.5Y-96.1
X167.6Y-100.2
X167.7Y-75.2
X168.8Y-105.4
X169.7Y-86.2
X169.9Y-106.7
X170.7Y-118.5
X171.0Y-116.3
X171.0Y-120.8
X171.6Y-97.2
X172.8Y-86.4
X173.1Y-75.8
X173.3Y-116.1
X173.3Y-120.9
X174.0Y-106.5
X174.0Y-119.2
X174.325Y-103.2
X175.1Y-106.6
X175.5Y-120.6
X175.6Y-100.7
X175.7Y-116.4
X175.8Y-118.5
X175.9Y-123.1
X176.3Y-109.9
X176.8Y-91.3
X177.1Y-98.4
X177.7Y-109.9
X177.8Y-121.6
X178.4Y-126.3
X179.1Y-106.6
X179.2Y-109.75
X179.2Y-119.9
X182.5Y-118.7
X182.7Y-113.8
X182.8Y-106.7
X183.0Y-103.3
X183.7Y-100.7
X184.0Y-116.3
X184.8Y-104.3
X185.1Y-110.4
X185.2Y-114.2
X185.3Y-126.2
X185.7Y-124.0
X186.7Y-92.5
X186.8Y-108.2
X187.0Y-119.1
X188.3Y-108.2
X188.6Y-119.1
X189.0Y-107.1
X189.0Y-113.7
X189.2Y-108.5
X189.7Y-100.0
X193.3Y-105.0
X193.4Y-115.0
T3
X190.637Y-107.6
X190.637Y-112.6
T4
X121.66Y-111.9
X121.66Y-114.44
X121.66Y-116.98
X124.2Y-111.9
X124.2Y-114.44
X124.2Y-116.98
T5
X155.6Y-76.8
X155.6Y-84.8
X157.6Y-80.8
X159.6Y-76.8
X159.6Y-84.8
X161.6Y-80.8
X163.6Y-76.8
X163.6Y-84.8
X165.6Y-80.8
X167.6Y-76.8
X167.6Y-84.8
X169.6Y-80.8
X171.6Y-76.8
X171.6Y-84.8
T2
X192.987Y-106.6G85X193.688Y-106.6
G05
X193.688Y-113.6G85X192.987Y-113.6
G05
M30
